<svg xmlns="http://www.w3.org/2000/svg" xmlns:xlink="http://www.w3.org/1999/xlink" width="179" zoomAndPan="magnify" viewBox="0 0 134.25 186.749995" height="249" preserveAspectRatio="xMidYMid meet" version="1.0"><defs><g/><clipPath id="338bbb27dc"><path d="M 0 0.394531 L 133.503906 0.394531 L 133.503906 186.105469 L 0 186.105469 Z M 0 0.394531 " clip-rule="nonzero"/></clipPath><clipPath id="c52f5b9989"><path d="M 0 0.394531 L 6.839844 0.394531 L 6.839844 186.105469 L 0 186.105469 Z M 0 0.394531 " clip-rule="nonzero"/></clipPath><clipPath id="f937f54fb0"><path d="M 76 88 L 121.582031 88 L 121.582031 139 L 76 139 Z M 76 88 " clip-rule="nonzero"/></clipPath><clipPath id="1bb2a0dc19"><path d="M 17.164062 101 L 59 101 L 59 148 L 17.164062 148 Z M 17.164062 101 " clip-rule="nonzero"/></clipPath><clipPath id="9c8c3c4f7d"><path d="M 19 88 L 121.582031 88 L 121.582031 148 L 19 148 Z M 19 88 " clip-rule="nonzero"/></clipPath><clipPath id="c3692a6b1b"><path d="M 20 78 L 97 78 L 97 157.570312 L 20 157.570312 Z M 20 78 " clip-rule="nonzero"/></clipPath><clipPath id="1d30133c42"><path d="M 51 107 L 97 107 L 97 157.570312 L 51 157.570312 Z M 51 107 " clip-rule="nonzero"/></clipPath><clipPath id="7ce0bbd0d0"><path d="M 44 56.136719 L 75 56.136719 L 75 105 L 44 105 Z M 44 56.136719 " clip-rule="nonzero"/></clipPath></defs><g clip-path="url(#338bbb27dc)"><path fill="#ffffff" d="M 0 0.394531 L 133.503906 0.394531 L 133.503906 186.105469 L 0 186.105469 Z M 0 0.394531 " fill-opacity="1" fill-rule="nonzero"/><path fill="#ffffff" d="M 0 0.394531 L 133.503906 0.394531 L 133.503906 186.105469 L 0 186.105469 Z M 0 0.394531 " fill-opacity="1" fill-rule="nonzero"/></g><g clip-path="url(#c52f5b9989)"><path fill="#db5275" d="M 6.839844 218.523438 L 6.839844 -5.011719 L -13.273438 8.484375 L -33.433594 -5.011719 L -33.433594 218.523438 L -13.273438 205.027344 Z M 6.839844 218.523438 " fill-opacity="1" fill-rule="nonzero"/></g><path fill="#dd7b4a" d="M 86.160156 93.007812 C 86.164062 93.054688 86.164062 93.09375 86.160156 93.140625 C 86.152344 94.539062 86.125 95.980469 86.082031 97.421875 C 86.058594 98.242188 86.027344 99.066406 85.996094 99.886719 C 85.929688 101.640625 85.847656 103.382812 85.753906 105.046875 C 85.648438 106.984375 85.539062 108.824219 85.421875 110.46875 C 85.304688 112.210938 85.1875 113.738281 85.09375 114.9375 C 84.941406 116.84375 83.910156 118.558594 82.304688 119.597656 C 77.632812 122.621094 70.484375 126.132812 66.9375 127.820312 C 65.523438 128.496094 63.902344 128.609375 62.414062 128.117188 C 56.445312 126.140625 48.664062 122.351562 44.335938 120.148438 C 42.308594 119.117188 41.019531 117.050781 40.996094 114.777344 C 40.980469 113.570312 40.976562 112.367188 40.980469 111.175781 C 40.988281 109.050781 41.015625 106.960938 41.058594 104.972656 C 41.074219 104.285156 41.089844 103.613281 41.109375 102.957031 C 41.140625 101.773438 41.179688 100.644531 41.21875 99.574219 C 41.230469 99.269531 41.238281 98.96875 41.25 98.675781 C 41.265625 98.269531 41.28125 97.878906 41.296875 97.496094 C 41.339844 96.402344 41.386719 95.402344 41.429688 94.515625 C 41.457031 94 41.480469 93.523438 41.5 93.089844 C 41.507812 92.992188 41.511719 92.902344 41.515625 92.808594 C 41.613281 90.996094 42.507812 89.320312 43.960938 88.234375 C 48.765625 84.648438 56.59375 80.855469 60.464844 79.074219 C 61.949219 78.390625 63.644531 78.320312 65.175781 78.902344 C 73.402344 82.019531 79.800781 85.632812 83.265625 87.773438 C 84.90625 88.792969 85.964844 90.515625 86.136719 92.414062 C 86.152344 92.613281 86.164062 92.8125 86.160156 93.007812 Z M 86.160156 93.007812 " fill-opacity="1" fill-rule="nonzero"/><path fill="#56091f" d="M 86.476562 97.863281 C 86.472656 98.398438 86.46875 98.984375 86.464844 99.613281 C 86.453125 100.242188 86.417969 100.914062 86.386719 101.628906 L 86.285156 103.855469 C 86.253906 104.597656 86.214844 105.339844 86.164062 106.082031 L 85.886719 110.527344 L 85.558594 114.976562 C 85.433594 116.570312 84.699219 118.101562 83.542969 119.203125 C 83.25 119.476562 82.941406 119.730469 82.605469 119.945312 L 81.65625 120.546875 L 80.695312 121.128906 L 79.730469 121.695312 C 78.4375 122.441406 77.132812 123.15625 75.816406 123.855469 C 73.183594 125.246094 70.523438 126.574219 67.839844 127.855469 C 67.496094 128.015625 67.183594 128.175781 66.808594 128.335938 C 66.445312 128.488281 66.0625 128.605469 65.675781 128.6875 C 64.902344 128.851562 64.097656 128.871094 63.316406 128.746094 C 62.925781 128.6875 62.53125 128.582031 62.171875 128.457031 L 61.113281 128.089844 C 60.410156 127.835938 59.710938 127.570312 59.019531 127.300781 C 56.242188 126.203125 53.523438 124.992188 50.832031 123.722656 C 49.488281 123.085938 48.148438 122.4375 46.816406 121.773438 L 44.828125 120.769531 C 44.496094 120.601562 44.167969 120.4375 43.820312 120.238281 C 43.492188 120.035156 43.164062 119.8125 42.875 119.546875 C 42.28125 119.039062 41.800781 118.40625 41.429688 117.71875 C 41.074219 117.027344 40.824219 116.273438 40.738281 115.496094 C 40.683594 115.105469 40.691406 114.710938 40.691406 114.347656 L 40.691406 113.234375 L 40.695312 111.003906 C 40.761719 105.054688 40.96875 99.113281 41.289062 93.175781 C 41.304688 92.8125 41.332031 92.421875 41.402344 92.046875 C 41.464844 91.667969 41.574219 91.296875 41.707031 90.9375 C 41.976562 90.21875 42.378906 89.554688 42.886719 88.980469 C 43.136719 88.691406 43.417969 88.429688 43.71875 88.195312 C 44.019531 87.960938 44.324219 87.757812 44.628906 87.539062 C 45.242188 87.113281 45.859375 86.699219 46.488281 86.304688 C 49.003906 84.714844 51.621094 83.292969 54.265625 81.949219 C 55.589844 81.277344 56.925781 80.625 58.265625 79.992188 C 58.933594 79.671875 59.609375 79.359375 60.285156 79.054688 C 60.960938 78.730469 61.695312 78.519531 62.445312 78.453125 C 63.195312 78.386719 63.957031 78.457031 64.679688 78.660156 C 65.046875 78.757812 65.390625 78.910156 65.734375 79.042969 L 66.765625 79.449219 C 68.144531 80.003906 69.507812 80.585938 70.859375 81.191406 C 73.5625 82.414062 76.21875 83.734375 78.8125 85.167969 C 80.109375 85.882812 81.394531 86.625 82.65625 87.398438 C 82.96875 87.59375 83.289062 87.78125 83.59375 87.996094 C 83.894531 88.210938 84.171875 88.457031 84.429688 88.722656 C 84.945312 89.253906 85.367188 89.878906 85.652344 90.5625 C 85.984375 91.335938 86.0625 91.976562 86.078125 92.390625 C 86.074219 92.8125 86.046875 93.015625 86.015625 93.015625 C 85.980469 93.015625 85.941406 92.8125 85.894531 92.410156 C 85.828125 92.011719 85.714844 91.40625 85.398438 90.667969 C 85.121094 90.019531 84.714844 89.429688 84.226562 88.925781 C 83.976562 88.675781 83.710938 88.441406 83.421875 88.238281 C 83.140625 88.042969 82.816406 87.855469 82.5 87.660156 C 81.238281 86.898438 79.957031 86.167969 78.660156 85.460938 C 76.070312 84.050781 73.414062 82.75 70.71875 81.546875 C 69.367188 80.949219 68.003906 80.382812 66.628906 79.835938 L 65.59375 79.4375 L 65.078125 79.238281 C 64.910156 79.175781 64.746094 79.121094 64.578125 79.074219 C 63.902344 78.886719 63.195312 78.824219 62.5 78.886719 C 61.800781 78.949219 61.128906 79.148438 60.484375 79.453125 C 59.816406 79.765625 59.144531 80.082031 58.480469 80.402344 C 57.144531 81.042969 55.816406 81.703125 54.503906 82.378906 C 51.875 83.738281 49.277344 85.171875 46.792969 86.761719 C 46.171875 87.160156 45.5625 87.574219 44.960938 87.996094 C 44.667969 88.210938 44.355469 88.429688 44.078125 88.644531 C 43.804688 88.859375 43.550781 89.097656 43.320312 89.359375 C 42.867188 89.882812 42.503906 90.488281 42.261719 91.140625 C 42.140625 91.46875 42.046875 91.804688 41.988281 92.144531 C 41.929688 92.492188 41.910156 92.820312 41.890625 93.207031 C 41.609375 99.136719 41.4375 105.078125 41.40625 111.019531 L 41.417969 114.359375 C 41.421875 114.542969 41.414062 114.742188 41.425781 114.910156 L 41.4375 115.167969 L 41.46875 115.421875 C 41.546875 116.109375 41.773438 116.773438 42.09375 117.382812 C 42.425781 117.988281 42.855469 118.539062 43.382812 118.988281 C 43.640625 119.21875 43.925781 119.410156 44.222656 119.585938 C 44.511719 119.753906 44.855469 119.921875 45.183594 120.089844 L 47.175781 121.078125 C 48.507812 121.734375 49.84375 122.375 51.1875 123 C 53.875 124.25 56.589844 125.449219 59.34375 126.519531 C 60.035156 126.785156 60.726562 127.042969 61.417969 127.292969 L 62.464844 127.648438 C 62.800781 127.761719 63.125 127.84375 63.464844 127.894531 C 64.144531 127.996094 64.839844 127.972656 65.507812 127.820312 C 65.84375 127.75 66.171875 127.644531 66.488281 127.511719 L 66.722656 127.40625 L 67.472656 127.042969 C 70.144531 125.757812 72.792969 124.429688 75.40625 123.039062 C 76.710938 122.339844 78.003906 121.625 79.28125 120.886719 C 79.917969 120.515625 80.550781 120.132812 81.175781 119.75 C 81.484375 119.554688 81.804688 119.355469 82.101562 119.160156 C 82.386719 118.972656 82.652344 118.753906 82.902344 118.519531 C 83.890625 117.566406 84.511719 116.253906 84.609375 114.882812 L 84.9375 110.457031 C 85.03125 108.976562 85.121094 107.5 85.214844 106.027344 C 85.261719 105.289062 85.300781 104.550781 85.332031 103.8125 L 85.4375 101.59375 C 85.472656 100.878906 85.507812 100.207031 85.539062 99.582031 C 85.5625 98.957031 85.589844 98.375 85.609375 97.839844 C 85.664062 96.765625 85.722656 95.871094 85.78125 95.15625 C 85.90625 93.726562 86.042969 93.015625 86.15625 93.015625 C 86.273438 93.019531 86.371094 93.742188 86.425781 95.179688 C 86.464844 95.886719 86.480469 96.785156 86.476562 97.863281 Z M 86.476562 97.863281 " fill-opacity="1" fill-rule="nonzero"/><g clip-path="url(#f937f54fb0)"><path fill="#f9aabb" d="M 121.027344 118.859375 C 121.027344 120.605469 121.015625 122.136719 121 123.339844 C 120.976562 125.25 120.066406 127.035156 118.535156 128.175781 C 114.078125 131.507812 107.183594 135.5 103.761719 137.425781 C 102.398438 138.195312 100.789062 138.417969 99.265625 138.027344 C 93.175781 136.457031 85.15625 133.207031 80.6875 131.304688 C 78.601562 130.414062 77.171875 128.441406 76.992188 126.171875 C 76.898438 124.972656 76.8125 123.769531 76.734375 122.578125 C 76.597656 120.457031 76.484375 118.371094 76.394531 116.382812 C 76.304688 114.46875 76.234375 112.652344 76.183594 110.988281 C 76.121094 109.070312 76.082031 107.351562 76.054688 105.925781 C 76.042969 105.410156 76.035156 104.933594 76.03125 104.496094 C 76.03125 104.402344 76.027344 104.308594 76.023438 104.21875 C 76 102.40625 76.773438 100.671875 78.15625 99.488281 C 82.703125 95.585938 90.257812 91.269531 94.003906 89.230469 C 95.433594 88.449219 97.125 88.265625 98.6875 88.738281 C 107.109375 91.289062 113.734375 94.460938 117.335938 96.363281 C 119.046875 97.265625 120.21875 98.914062 120.515625 100.800781 C 120.546875 100.992188 120.570312 101.191406 120.582031 101.390625 C 120.585938 101.433594 120.589844 101.476562 120.589844 101.519531 C 120.726562 103.710938 120.820312 106 120.882812 108.261719 C 120.9375 110.015625 120.96875 111.761719 120.992188 113.429688 C 121.019531 115.371094 121.03125 117.210938 121.027344 118.859375 Z M 121.027344 118.859375 " fill-opacity="1" fill-rule="nonzero"/></g><g clip-path="url(#1bb2a0dc19)"><path fill="#56091f" d="M 58.695312 116.394531 C 58.691406 116.4375 58.691406 116.480469 58.6875 116.523438 C 58.667969 116.96875 58.644531 117.421875 58.621094 117.878906 C 58.566406 118.933594 58.5 120.003906 58.425781 121.078125 C 58.375 121.804688 58.320312 122.53125 58.265625 123.253906 C 58.214844 123.910156 58.164062 124.5625 58.109375 125.210938 C 58.0625 125.730469 58.019531 126.246094 57.976562 126.753906 C 57.925781 127.3125 57.878906 127.863281 57.828125 128.40625 C 57.75 129.257812 57.667969 130.097656 57.585938 130.902344 C 57.484375 131.921875 57.382812 132.894531 57.285156 133.808594 C 57.164062 134.941406 57.046875 135.984375 56.945312 136.902344 C 56.886719 137.394531 56.832031 137.847656 56.785156 138.261719 C 56.601562 139.804688 55.84375 141.199219 54.683594 142.191406 C 54.414062 142.421875 54.128906 142.628906 53.820312 142.8125 C 52.324219 143.695312 50.589844 144.621094 48.800781 145.519531 C 47.496094 146.171875 46.167969 146.8125 44.882812 147.417969 C 44.769531 147.46875 44.65625 147.523438 44.542969 147.574219 C 44.007812 147.824219 43.390625 147.816406 42.867188 147.550781 L 42.535156 147.382812 L 19.484375 135.746094 L 17.980469 134.988281 C 17.519531 134.753906 17.242188 134.265625 17.277344 133.746094 L 18.726562 113.351562 C 18.792969 112.429688 19.003906 111.535156 19.332031 110.699219 C 19.636719 109.921875 20.050781 109.191406 20.558594 108.53125 C 20.664062 108.394531 20.773438 108.257812 20.886719 108.128906 C 21.070312 107.914062 21.269531 107.710938 21.476562 107.511719 C 22.089844 106.929688 22.792969 106.429688 23.570312 106.035156 C 23.972656 105.828125 24.378906 105.625 24.785156 105.425781 C 25.871094 104.890625 26.953125 104.378906 27.988281 103.90625 C 28.378906 103.726562 28.765625 103.550781 29.144531 103.378906 C 29.367188 103.28125 29.582031 103.183594 29.796875 103.089844 C 31.238281 102.449219 32.53125 101.902344 33.554688 101.476562 C 35.058594 100.855469 36.761719 100.847656 38.265625 101.488281 C 38.339844 101.515625 38.410156 101.546875 38.480469 101.578125 C 40.238281 102.328125 41.910156 103.097656 43.480469 103.863281 C 43.667969 103.957031 43.859375 104.046875 44.042969 104.140625 C 45.089844 104.65625 46.085938 105.175781 47.035156 105.683594 C 47.246094 105.792969 47.449219 105.902344 47.648438 106.015625 C 50.332031 107.464844 52.601562 108.839844 54.378906 109.984375 C 54.78125 110.242188 55.160156 110.492188 55.511719 110.722656 C 55.679688 110.835938 55.84375 110.941406 56 111.046875 C 56.359375 111.289062 56.6875 111.566406 56.980469 111.875 C 57.070312 111.964844 57.15625 112.0625 57.242188 112.160156 C 57.257812 112.175781 57.273438 112.195312 57.285156 112.214844 C 57.605469 112.59375 57.871094 113.007812 58.085938 113.445312 C 58.441406 114.175781 58.648438 114.972656 58.691406 115.800781 C 58.703125 115.992188 58.703125 116.191406 58.695312 116.394531 Z M 58.695312 116.394531 " fill-opacity="1" fill-rule="nonzero"/></g><path fill="#dd7b4a" d="M 43.0625 125.914062 L 43.035156 127.070312 L 42.996094 128.699219 L 42.984375 129.109375 L 42.882812 133.328125 L 42.835938 135.191406 L 42.800781 136.722656 L 42.785156 137.335938 L 42.6875 141.300781 L 42.535156 147.382812 L 19.484375 135.746094 L 19.78125 130.921875 L 20.015625 127.082031 L 20.039062 126.746094 L 20.082031 126.066406 L 20.265625 123.050781 L 20.519531 118.960938 L 20.523438 118.867188 L 20.585938 117.824219 L 20.796875 114.40625 C 20.847656 113.609375 21.683594 113.113281 22.40625 113.457031 L 40.777344 122.195312 C 42.207031 122.875 43.101562 124.332031 43.0625 125.914062 Z M 96.878906 99.335938 C 102.171875 98.667969 107.441406 97.851562 112.722656 97.132812 C 113.351562 97.046875 113.292969 96.097656 112.648438 96.140625 C 107.261719 96.5 101.910156 96.765625 96.542969 97.410156 C 93.910156 97.726562 91.277344 98.074219 88.652344 98.472656 C 87.453125 98.652344 86.253906 98.847656 85.058594 99.046875 C 83.765625 99.257812 82.722656 99.394531 81.730469 100.273438 C 81.550781 100.429688 81.625 100.777344 81.835938 100.867188 C 82.898438 101.328125 83.765625 101.222656 84.898438 101.042969 C 86.253906 100.828125 87.605469 100.609375 88.964844 100.410156 C 91.597656 100.023438 94.238281 99.667969 96.878906 99.335938 Z M 93.699219 93.828125 C 94.972656 93.652344 96.246094 93.464844 97.519531 93.3125 C 98.6875 93.167969 99.734375 92.859375 100.871094 92.640625 C 102.125 92.398438 103.40625 92.285156 104.675781 92.171875 C 105.039062 92.140625 105.011719 91.609375 104.648438 91.609375 C 102.171875 91.601562 99.675781 91.332031 97.222656 91.574219 C 96.019531 91.691406 94.816406 91.820312 93.621094 92 C 92.652344 92.140625 91.492188 92.117188 90.988281 93.074219 C 90.902344 93.238281 90.941406 93.4375 91.070312 93.5625 C 91.796875 94.261719 92.789062 93.953125 93.699219 93.828125 Z M 116.34375 116.699219 C 116.175781 113.777344 115.894531 110.816406 115.347656 107.941406 C 114.835938 105.261719 112.648438 103.1875 109.886719 103.011719 C 108.003906 102.894531 106.023438 103.175781 104.140625 103.324219 C 102.136719 103.472656 100.132812 103.691406 98.132812 103.921875 C 95.921875 104.175781 93.695312 104.457031 91.511719 104.890625 C 90.449219 105.101562 89.386719 105.484375 88.3125 105.617188 C 87.230469 105.75 86.234375 105.875 85.160156 106.128906 C 84.828125 106.207031 84.953125 106.746094 85.285156 106.714844 C 86.632812 106.589844 88.003906 106.25 89.34375 106.175781 C 90.464844 106.113281 91.585938 106.085938 92.707031 105.976562 C 95.023438 105.753906 97.34375 105.5625 99.667969 105.382812 C 101.910156 105.207031 104.15625 105.0625 106.402344 104.9375 C 108.304688 104.832031 110.414062 104.417969 112.027344 105.699219 C 113.363281 106.761719 113.570312 108.34375 113.800781 109.925781 C 114.042969 111.597656 114.230469 113.269531 114.367188 114.949219 C 114.53125 116.933594 114.617188 118.921875 114.625 120.90625 C 114.625 121.980469 114.570312 123.050781 114.554688 124.121094 C 114.546875 124.746094 114.566406 125.375 114.570312 126 C 114.578125 126.621094 114.726562 127.28125 114.71875 127.890625 C 114.710938 128.421875 115.542969 128.488281 115.644531 127.972656 C 115.832031 127.039062 116.148438 126.171875 116.277344 125.207031 C 116.402344 124.277344 116.4375 123.351562 116.457031 122.417969 C 116.496094 120.507812 116.457031 118.601562 116.34375 116.699219 Z M 110.304688 120.984375 C 110.214844 119.5625 110.140625 118.132812 110 116.714844 C 109.722656 113.859375 107.695312 111.398438 104.789062 110.921875 C 102.546875 110.558594 99.972656 111.167969 97.738281 111.449219 C 94.933594 111.804688 92.148438 112.269531 89.378906 112.835938 C 88.945312 112.925781 88.96875 113.589844 89.4375 113.546875 C 93.832031 113.121094 98.234375 112.714844 102.644531 112.46875 C 105.585938 112.300781 108.054688 113.789062 108.296875 116.929688 C 108.570312 120.515625 108.738281 124.113281 108.976562 127.703125 C 109.039062 128.667969 109.035156 129.6875 109.296875 130.625 C 109.386719 130.949219 109.734375 131.617188 109.742188 131.757812 C 109.773438 132.230469 110.511719 132.203125 110.480469 131.726562 C 110.488281 131.851562 110.496094 131.519531 110.511719 131.460938 C 110.511719 131.464844 110.671875 131.054688 110.722656 130.832031 C 110.925781 129.964844 110.8125 129.046875 110.757812 128.171875 C 110.605469 125.777344 110.457031 123.378906 110.304688 120.984375 Z M 95.960938 117.84375 C 95.671875 117.914062 95.703125 118.320312 96.011719 118.3125 C 100.019531 118.203125 99.699219 123.359375 99.675781 126.050781 C 99.660156 127.664062 99.664062 129.273438 99.617188 130.882812 C 99.578125 132.394531 99.363281 133.898438 100.175781 135.238281 C 100.222656 135.3125 100.34375 135.316406 100.402344 135.25 C 101.625 133.757812 101.402344 131.589844 101.4375 129.761719 C 101.480469 127.648438 101.472656 125.515625 101.222656 123.414062 C 100.910156 120.761719 99.25 117.070312 95.960938 117.84375 Z M 95.960938 117.84375 " fill-opacity="1" fill-rule="nonzero"/><path fill="#db5275" d="M 42.996094 128.699219 L 42.886719 133.328125 C 41.765625 132.875 40.75 132.144531 39.683594 131.542969 C 38.78125 131.035156 37.828125 130.617188 36.875 130.207031 C 34.585938 129.214844 32.292969 128.238281 29.996094 127.265625 C 26.742188 125.886719 23.484375 124.515625 20.269531 123.050781 L 20.523438 118.867188 C 22.046875 119.644531 23.726562 120.113281 25.292969 120.808594 C 26.355469 121.28125 27.367188 121.855469 28.398438 122.390625 C 33.109375 124.820312 38.273438 126.351562 42.996094 128.699219 Z M 24.714844 128.640625 C 23.179688 127.960938 21.535156 127.496094 20.042969 126.746094 L 19.785156 130.921875 C 22.96875 132.375 26.195312 133.734375 29.417969 135.097656 C 31.714844 136.070312 34.011719 137.046875 36.296875 138.039062 C 37.25 138.449219 38.203125 138.867188 39.105469 139.375 C 40.289062 140.039062 41.414062 140.871094 42.6875 141.300781 L 42.800781 136.722656 C 37.972656 134.261719 32.660156 132.714844 27.824219 130.222656 C 26.789062 129.6875 25.777344 129.113281 24.714844 128.640625 Z M 24.714844 128.640625 " fill-opacity="1" fill-rule="nonzero"/><g clip-path="url(#9c8c3c4f7d)"><path fill="#56091f" d="M 121.476562 118.890625 L 121.449219 123.347656 C 121.429688 124.945312 120.804688 126.519531 119.726562 127.691406 C 119.457031 127.984375 119.164062 128.257812 118.847656 128.496094 L 117.9375 129.160156 L 117.023438 129.804688 L 116.097656 130.433594 C 114.859375 131.265625 113.605469 132.070312 112.339844 132.855469 C 109.808594 134.425781 107.246094 135.925781 104.652344 137.386719 C 104.320312 137.566406 104.019531 137.75 103.65625 137.933594 C 103.304688 138.109375 102.933594 138.253906 102.554688 138.359375 C 101.792969 138.578125 100.992188 138.652344 100.207031 138.582031 C 99.816406 138.546875 99.417969 138.46875 99.050781 138.371094 L 97.96875 138.074219 C 97.25 137.867188 96.535156 137.65625 95.824219 137.429688 C 92.980469 136.527344 90.1875 135.5 87.414062 134.417969 C 86.03125 133.875 84.652344 133.316406 83.277344 132.746094 L 81.222656 131.878906 C 80.878906 131.734375 80.542969 131.59375 80.1875 131.417969 C 79.84375 131.234375 79.503906 131.035156 79.199219 130.792969 C 78.574219 130.324219 78.050781 129.726562 77.632812 129.070312 C 77.230469 128.402344 76.933594 127.667969 76.792969 126.902344 C 76.714844 126.519531 76.695312 126.125 76.667969 125.761719 L 76.59375 124.648438 L 76.445312 122.425781 C 76.109375 116.484375 75.910156 110.542969 75.828125 104.597656 C 75.820312 104.234375 75.820312 103.84375 75.863281 103.460938 C 75.902344 103.082031 75.984375 102.703125 76.09375 102.339844 C 76.308594 101.605469 76.667969 100.914062 77.132812 100.308594 C 77.363281 100.003906 77.628906 99.722656 77.910156 99.46875 C 78.195312 99.214844 78.484375 98.988281 78.769531 98.75 C 79.351562 98.28125 79.945312 97.828125 80.542969 97.390625 C 82.949219 95.632812 85.457031 94.039062 88.007812 92.515625 C 89.28125 91.757812 90.566406 91.015625 91.863281 90.292969 C 92.511719 89.929688 93.160156 89.570312 93.8125 89.214844 C 94.464844 88.851562 95.1875 88.585938 95.929688 88.472656 C 96.671875 88.355469 97.4375 88.371094 98.171875 88.527344 C 98.542969 88.601562 98.894531 88.726562 99.246094 88.832031 L 100.308594 89.167969 C 101.71875 89.632812 103.121094 90.117188 104.511719 90.632812 C 107.289062 91.664062 110.03125 92.804688 112.714844 94.058594 C 114.054688 94.683594 115.386719 95.335938 116.699219 96.019531 C 117.023438 96.195312 117.355469 96.359375 117.675781 96.550781 C 117.992188 96.742188 118.285156 96.96875 118.5625 97.21875 C 119.109375 97.714844 119.570312 98.308594 119.90625 98.96875 C 120.289062 99.722656 120.410156 100.351562 120.453125 100.769531 C 120.480469 101.1875 120.46875 101.394531 120.441406 101.398438 C 120.410156 101.402344 120.355469 101.199219 120.28125 100.800781 C 120.1875 100.40625 120.039062 99.8125 119.671875 99.09375 C 119.347656 98.464844 118.90625 97.902344 118.378906 97.429688 C 118.117188 97.195312 117.832031 96.980469 117.53125 96.796875 C 117.234375 96.617188 116.898438 96.453125 116.574219 96.28125 C 115.261719 95.609375 113.933594 94.964844 112.59375 94.347656 C 109.914062 93.113281 107.175781 91.996094 104.402344 90.984375 C 103.015625 90.476562 101.613281 90.003906 100.210938 89.550781 L 99.148438 89.222656 L 98.621094 89.058594 C 98.449219 89.011719 98.28125 88.964844 98.109375 88.929688 C 97.421875 88.785156 96.710938 88.773438 96.019531 88.886719 C 95.320312 88.996094 94.660156 89.238281 94.042969 89.589844 C 93.394531 89.949219 92.746094 90.304688 92.101562 90.671875 C 90.816406 91.402344 89.535156 92.148438 88.269531 92.914062 C 85.734375 94.449219 83.246094 96.050781 80.871094 97.808594 C 80.277344 98.25 79.695312 98.699219 79.125 99.164062 C 78.847656 99.398438 78.546875 99.632812 78.289062 99.871094 C 78.03125 100.101562 77.789062 100.359375 77.582031 100.636719 C 77.160156 101.191406 76.839844 101.824219 76.644531 102.492188 C 76.542969 102.828125 76.472656 103.171875 76.4375 103.515625 C 76.402344 103.867188 76.402344 104.199219 76.414062 104.582031 C 76.53125 110.519531 76.765625 116.460938 77.136719 122.386719 L 77.296875 124.609375 L 77.375 125.71875 C 77.390625 125.902344 77.398438 126.097656 77.421875 126.265625 L 77.449219 126.519531 L 77.496094 126.777344 C 77.621094 127.457031 77.894531 128.105469 78.257812 128.695312 C 78.632812 129.277344 79.097656 129.800781 79.65625 130.210938 C 79.929688 130.425781 80.230469 130.597656 80.535156 130.757812 C 80.839844 130.902344 81.195312 131.046875 81.53125 131.191406 L 83.585938 132.042969 C 84.960938 132.605469 86.339844 133.15625 87.722656 133.691406 C 90.488281 134.757812 93.277344 135.765625 96.097656 136.648438 C 96.804688 136.871094 97.515625 137.078125 98.222656 137.28125 L 99.289062 137.566406 C 99.632812 137.660156 99.964844 137.71875 100.308594 137.746094 C 100.992188 137.800781 101.691406 137.726562 102.351562 137.535156 C 102.679688 137.433594 103.003906 137.308594 103.308594 137.152344 L 103.535156 137.03125 L 103.78125 136.894531 L 104.261719 136.621094 C 106.839844 135.15625 109.394531 133.652344 111.902344 132.082031 C 113.160156 131.296875 114.402344 130.5 115.625 129.675781 C 116.238281 129.257812 116.84375 128.839844 117.441406 128.410156 C 117.734375 128.195312 118.042969 127.976562 118.324219 127.761719 C 118.597656 127.554688 118.847656 127.316406 119.078125 127.0625 C 120.003906 126.046875 120.539062 124.6875 120.542969 123.308594 L 120.570312 118.867188 C 120.5625 117.390625 120.554688 115.910156 120.546875 114.429688 C 120.546875 113.691406 120.535156 112.949219 120.515625 112.210938 L 120.46875 109.992188 C 120.453125 109.277344 120.441406 108.609375 120.429688 107.980469 C 120.414062 107.355469 120.398438 106.769531 120.382812 106.234375 C 120.363281 105.160156 120.359375 104.265625 120.371094 103.546875 C 120.390625 102.113281 120.476562 101.394531 120.582031 101.390625 C 120.699219 101.382812 120.835938 102.09375 120.984375 103.527344 C 121.058594 104.238281 121.132812 105.136719 121.203125 106.210938 C 121.234375 106.746094 121.269531 107.328125 121.308594 107.957031 C 121.339844 108.585938 121.351562 109.257812 121.367188 109.972656 L 121.414062 112.203125 C 121.429688 112.945312 121.445312 113.6875 121.445312 114.429688 Z M 41.289062 146.578125 C 34.394531 142.574219 27.125 139.136719 19.875 135.851562 C 19.355469 135.625 19.363281 135.609375 19.867188 135.871094 C 23.421875 137.664062 26.917969 139.597656 30.445312 141.480469 C 33.96875 143.363281 37.53125 145.171875 41.203125 146.753906 C 41.644531 146.9375 41.976562 147.074219 42.207031 147.171875 C 42.429688 147.265625 42.535156 147.316406 42.535156 147.316406 C 42.535156 147.316406 42.429688 147.257812 42.222656 147.136719 C 42.007812 147.007812 41.699219 146.824219 41.289062 146.578125 Z M 41.289062 146.578125 " fill-opacity="1" fill-rule="nonzero"/></g><g clip-path="url(#c3692a6b1b)"><path fill="#faefd6" d="M 50.738281 91.347656 C 49.605469 88.890625 49.808594 85.867188 51.253906 83.582031 C 52.703125 81.292969 55.347656 79.820312 58.050781 79.792969 L 67.808594 78.640625 C 70.324219 79.1875 72.804688 80.105469 74.8125 81.714844 C 76.820312 83.320312 78.316406 85.679688 78.496094 88.246094 C 78.671875 90.8125 77.355469 93.527344 75.035156 94.640625 C 73.253906 95.492188 71.15625 95.355469 69.28125 95.988281 C 67.472656 96.601562 65.914062 97.921875 64.027344 98.226562 C 62.222656 98.519531 60.386719 97.820312 58.855469 96.824219 C 57.511719 95.953125 56.292969 94.832031 54.777344 94.328125 C 54.152344 94.121094 53.484375 94.023438 52.886719 93.742188 C 51.898438 93.273438 51.199219 92.34375 50.738281 91.347656 Z M 96.164062 121.296875 C 96.160156 121.097656 96.144531 120.898438 96.125 120.703125 C 95.914062 118.804688 94.820312 117.105469 93.152344 116.121094 C 89.644531 114.054688 83.171875 110.582031 74.878906 107.640625 C 73.339844 107.097656 71.644531 107.199219 70.171875 107.914062 C 66.339844 109.78125 58.597656 113.742188 53.871094 117.429688 C 52.4375 118.542969 51.582031 120.238281 51.523438 122.054688 C 51.523438 122.144531 51.519531 122.238281 51.515625 122.332031 C 51.464844 123.96875 51.40625 126.210938 51.371094 128.824219 C 51.34375 130.488281 51.328125 132.308594 51.328125 134.222656 C 51.328125 136.210938 51.34375 138.300781 51.382812 140.425781 C 51.402344 141.621094 51.433594 142.824219 51.472656 144.027344 C 51.546875 146.300781 52.878906 148.339844 54.929688 149.324219 C 59.304688 151.433594 67.164062 155.054688 73.171875 156.902344 C 74.671875 157.363281 76.292969 157.214844 77.691406 156.511719 C 81.199219 154.75 88.269531 151.082031 92.878906 147.957031 C 94.460938 146.890625 95.453125 145.148438 95.566406 143.242188 C 95.632812 142.039062 95.714844 140.507812 95.796875 138.765625 C 95.875 137.117188 95.953125 135.277344 96.015625 133.339844 C 96.070312 131.671875 96.117188 129.929688 96.144531 128.171875 C 96.1875 125.863281 96.195312 123.527344 96.164062 121.296875 Z M 42.34375 134.984375 C 42.503906 135.054688 42.667969 135.125 42.835938 135.191406 L 42.800781 136.722656 L 42.785156 137.335938 C 42.335938 137.132812 41.898438 136.882812 41.460938 136.6875 C 40.375 136.207031 39.285156 135.738281 38.191406 135.28125 C 36 134.367188 33.789062 133.492188 31.585938 132.597656 C 29.335938 131.6875 27.046875 130.816406 24.847656 129.777344 C 23.160156 128.976562 21.503906 128.191406 20.015625 127.082031 L 20.039062 126.746094 L 20.082031 126.066406 C 22.109375 126.546875 24.023438 127.382812 25.945312 128.183594 C 28.117188 129.089844 30.285156 130.003906 32.46875 130.882812 C 34.746094 131.796875 37.027344 132.710938 39.289062 133.660156 C 40.308594 134.09375 41.332031 134.53125 42.34375 134.984375 Z M 42.40625 126.820312 C 41.367188 126.367188 40.328125 125.914062 39.289062 125.460938 C 37.070312 124.496094 34.855469 123.527344 32.632812 122.570312 C 30.421875 121.613281 28.207031 120.65625 25.996094 119.703125 C 24.339844 118.988281 22.441406 117.953125 20.585938 117.824219 L 20.523438 118.867188 L 20.519531 118.960938 C 21.953125 120.144531 23.976562 120.800781 25.617188 121.515625 C 27.835938 122.488281 30.054688 123.457031 32.273438 124.429688 C 34.496094 125.398438 36.71875 126.359375 38.945312 127.328125 C 39.980469 127.773438 41.011719 128.222656 42.046875 128.671875 C 42.367188 128.8125 42.675781 128.96875 42.984375 129.109375 L 42.996094 128.699219 L 43.035156 127.070312 C 42.816406 126.984375 42.605469 126.90625 42.40625 126.820312 Z M 42.40625 126.820312 " fill-opacity="1" fill-rule="nonzero"/></g><path fill="#dd7b4a" d="M 96.144531 128.171875 C 91.402344 130.734375 86.65625 133.296875 81.914062 135.859375 C 79.304688 137.265625 76.484375 138.71875 73.539062 138.386719 C 70.542969 138.046875 68.082031 135.9375 65.300781 134.765625 C 63.902344 134.175781 62.414062 133.820312 60.980469 133.308594 C 59.601562 132.8125 58.277344 132.171875 56.957031 131.53125 C 55.097656 130.628906 53.234375 129.726562 51.371094 128.824219 C 51.40625 126.210938 51.464844 123.96875 51.515625 122.332031 C 57.769531 125.519531 64.21875 128.304688 70.824219 130.671875 C 71.917969 131.0625 73.03125 131.445312 74.191406 131.503906 C 77.296875 131.648438 79.957031 129.492188 82.679688 127.996094 C 85.695312 126.335938 89.09375 125.398438 91.980469 123.519531 C 93.371094 122.609375 94.667969 121.46875 96.125 120.703125 C 96.144531 120.898438 96.160156 121.097656 96.164062 121.296875 C 96.195312 123.527344 96.1875 125.863281 96.144531 128.171875 Z M 78.519531 143.507812 C 75.320312 144.421875 71.945312 143.484375 68.792969 142.382812 C 62.773438 140.285156 56.921875 137.585938 51.328125 134.328125 C 51.328125 136.558594 51.34375 138.902344 51.382812 141.289062 C 56.109375 142.9375 60.78125 144.796875 65.378906 146.855469 C 69.601562 148.753906 74.164062 150.863281 78.554688 149.535156 C 80.285156 149.015625 81.855469 147.992188 83.398438 146.976562 C 84.820312 146.046875 86.238281 145.113281 87.660156 144.179688 C 90.300781 142.441406 92.96875 140.695312 95.796875 139.421875 C 95.875 137.574219 95.953125 135.511719 96.015625 133.335938 C 91.675781 135.988281 87.339844 138.636719 83 141.289062 C 81.5625 142.167969 80.105469 143.054688 78.519531 143.507812 Z M 78.519531 143.507812 " fill-opacity="1" fill-rule="nonzero"/><g clip-path="url(#1d30133c42)"><path fill="#56091f" d="M 96.382812 133.019531 C 96.371094 134.097656 96.328125 135.351562 96.269531 136.789062 L 96.175781 139.011719 L 96.0625 141.238281 C 96.019531 141.984375 95.992188 142.710938 95.9375 143.476562 C 95.867188 144.265625 95.648438 145.035156 95.304688 145.746094 C 94.957031 146.453125 94.480469 147.101562 93.90625 147.636719 C 93.621094 147.910156 93.292969 148.148438 92.980469 148.359375 C 92.667969 148.566406 92.359375 148.777344 92.042969 148.976562 C 90.789062 149.785156 89.511719 150.550781 88.222656 151.296875 C 85.644531 152.785156 83.023438 154.191406 80.378906 155.554688 L 78.394531 156.570312 L 77.894531 156.820312 C 77.722656 156.902344 77.542969 156.988281 77.363281 157.058594 C 76.996094 157.207031 76.617188 157.320312 76.234375 157.394531 C 75.464844 157.550781 74.664062 157.566406 73.890625 157.433594 C 73.507812 157.375 73.109375 157.261719 72.765625 157.144531 C 72.410156 157.027344 72.050781 156.917969 71.703125 156.792969 C 68.875 155.839844 66.117188 154.714844 63.382812 153.539062 C 60.648438 152.359375 57.949219 151.113281 55.269531 149.820312 L 54.769531 149.574219 C 54.597656 149.484375 54.421875 149.402344 54.257812 149.292969 C 53.921875 149.097656 53.617188 148.855469 53.320312 148.601562 C 52.746094 148.078125 52.253906 147.457031 51.90625 146.765625 C 51.542969 146.074219 51.324219 145.316406 51.234375 144.546875 C 51.214844 144.355469 51.207031 144.15625 51.195312 143.96875 L 51.160156 142.292969 C 51.144531 141.550781 51.121094 140.804688 51.117188 140.0625 L 51.105469 137.832031 C 51.101562 136.347656 51.074219 134.859375 51.09375 133.371094 L 51.148438 128.914062 L 51.261719 124.457031 L 51.320312 122.230469 C 51.328125 121.472656 51.476562 120.703125 51.75 119.988281 C 52.03125 119.277344 52.429688 118.613281 52.945312 118.046875 C 53.203125 117.765625 53.484375 117.503906 53.789062 117.269531 L 54.683594 116.601562 C 57.101562 114.859375 59.664062 113.339844 62.253906 111.886719 C 64.855469 110.449219 67.496094 109.089844 70.171875 107.800781 C 71.535156 107.152344 73.136719 107.023438 74.582031 107.453125 C 75.992188 107.9375 77.375 108.46875 78.75 109.023438 C 81.503906 110.125 84.210938 111.351562 86.863281 112.675781 C 88.191406 113.339844 89.503906 114.03125 90.800781 114.746094 C 91.445312 115.105469 92.09375 115.472656 92.730469 115.847656 C 93.050781 116.035156 93.378906 116.214844 93.671875 116.441406 C 93.96875 116.664062 94.253906 116.90625 94.507812 117.179688 C 95.535156 118.253906 96.132812 119.71875 96.167969 121.203125 C 96.171875 122.6875 96.15625 124.164062 96.152344 125.648438 C 96.132812 129.015625 95.921875 129.015625 95.921875 125.644531 C 95.917969 124.171875 95.917969 122.695312 95.914062 121.214844 C 95.875 119.796875 95.300781 118.398438 94.3125 117.371094 C 94.070312 117.113281 93.800781 116.882812 93.515625 116.671875 C 93.234375 116.457031 92.921875 116.289062 92.601562 116.097656 C 91.960938 115.726562 91.316406 115.367188 90.667969 115.011719 C 89.375 114.300781 88.0625 113.621094 86.738281 112.964844 C 84.089844 111.660156 81.386719 110.453125 78.632812 109.367188 C 77.949219 109.089844 77.257812 108.828125 76.5625 108.566406 C 76.21875 108.4375 75.871094 108.316406 75.523438 108.1875 C 75.175781 108.066406 74.816406 107.925781 74.488281 107.828125 C 73.136719 107.429688 71.636719 107.550781 70.363281 108.164062 C 67.710938 109.460938 65.074219 110.832031 62.492188 112.28125 C 59.914062 113.742188 57.375 115.273438 54.988281 117.007812 L 54.109375 117.675781 C 53.828125 117.894531 53.574219 118.132812 53.339844 118.394531 C 52.871094 118.917969 52.503906 119.527344 52.25 120.183594 C 52.003906 120.84375 51.871094 121.53125 51.867188 122.253906 L 51.820312 124.480469 L 51.726562 128.9375 L 51.699219 133.390625 C 51.6875 134.875 51.71875 136.363281 51.726562 137.847656 L 51.75 140.074219 C 51.757812 140.820312 51.785156 141.558594 51.804688 142.304688 L 51.832031 143.417969 L 51.847656 143.972656 C 51.859375 144.152344 51.863281 144.324219 51.886719 144.5 C 51.96875 145.191406 52.175781 145.871094 52.503906 146.488281 C 52.824219 147.109375 53.273438 147.65625 53.789062 148.125 C 54.058594 148.347656 54.332031 148.566406 54.636719 148.738281 C 54.78125 148.832031 54.941406 148.902344 55.09375 148.988281 L 55.597656 149.226562 C 58.273438 150.503906 60.976562 151.738281 63.699219 152.90625 C 66.425781 154.066406 69.179688 155.171875 71.980469 156.109375 C 72.328125 156.230469 72.679688 156.335938 73.03125 156.449219 L 73.292969 156.53125 L 73.542969 156.601562 C 73.710938 156.644531 73.882812 156.679688 74.054688 156.707031 C 74.738281 156.820312 75.445312 156.800781 76.121094 156.65625 C 76.464844 156.582031 76.792969 156.480469 77.117188 156.347656 C 77.28125 156.28125 77.429688 156.210938 77.59375 156.128906 L 78.089844 155.875 L 80.070312 154.863281 C 82.699219 153.5 85.308594 152.09375 87.863281 150.613281 C 89.140625 149.871094 90.40625 149.109375 91.644531 148.308594 L 92.566406 147.703125 C 92.863281 147.5 93.140625 147.300781 93.390625 147.054688 C 93.894531 146.578125 94.3125 146.011719 94.613281 145.386719 C 94.914062 144.765625 95.105469 144.085938 95.164062 143.394531 C 95.214844 142.679688 95.246094 141.921875 95.289062 141.191406 L 95.402344 138.976562 L 95.496094 136.761719 C 95.550781 135.328125 95.625 134.078125 95.675781 133.003906 C 95.726562 131.933594 95.78125 131.035156 95.835938 130.320312 C 95.945312 128.890625 96.058594 128.175781 96.15625 128.179688 C 96.253906 128.183594 96.332031 128.902344 96.367188 130.335938 C 96.382812 131.046875 96.386719 131.945312 96.382812 133.019531 Z M 96.382812 133.019531 " fill-opacity="1" fill-rule="nonzero"/></g><path fill="#db5275" d="M 86.847656 110.316406 C 86.847656 110.332031 86.847656 110.347656 86.847656 110.363281 C 86.847656 110.367188 86.847656 110.367188 86.847656 110.371094 C 86.847656 110.375 86.847656 110.386719 86.847656 110.394531 C 86.847656 110.394531 86.847656 110.402344 86.847656 110.402344 C 86.839844 111.425781 86.28125 112.3125 85.449219 112.785156 C 85.929688 113.609375 85.972656 114.652344 85.472656 115.542969 C 84.980469 116.421875 84.074219 116.925781 83.132812 116.945312 C 83.171875 117.878906 82.738281 118.808594 81.902344 119.363281 C 81.078125 119.910156 80.0625 119.957031 79.222656 119.566406 C 78.851562 120.410156 78.070312 121.054688 77.089844 121.195312 C 76.945312 121.21875 76.808594 121.226562 76.667969 121.226562 C 75.851562 121.222656 75.101562 120.855469 74.59375 120.257812 C 73.90625 120.867188 72.929688 121.125 71.984375 120.847656 C 71.03125 120.570312 70.34375 119.824219 70.09375 118.933594 C 69.207031 119.199219 68.203125 119.007812 67.460938 118.347656 C 67.460938 118.347656 67.460938 118.347656 67.460938 118.34375 C 66.710938 117.671875 66.417969 116.683594 66.597656 115.761719 C 65.664062 115.59375 64.84375 114.953125 64.488281 114.003906 C 64.132812 113.046875 64.34375 112.015625 64.949219 111.28125 C 64.210938 110.6875 63.796875 109.738281 63.941406 108.734375 C 64.074219 107.777344 64.6875 107.003906 65.503906 106.621094 C 65.105469 105.828125 65.097656 104.859375 65.5625 104.03125 C 66.03125 103.203125 66.855469 102.707031 67.734375 102.632812 C 67.636719 101.746094 67.96875 100.824219 68.703125 100.207031 C 69.464844 99.5625 70.476562 99.40625 71.355469 99.703125 C 71.648438 98.789062 72.40625 98.050781 73.414062 97.839844 C 74.453125 97.621094 75.476562 98.011719 76.109375 98.777344 C 76.863281 98.144531 77.929688 97.933594 78.910156 98.324219 C 79.84375 98.695312 80.460938 99.523438 80.609375 100.445312 C 81.507812 100.285156 82.464844 100.566406 83.128906 101.285156 C 83.777344 101.976562 83.996094 102.921875 83.796875 103.78125 C 84.660156 103.957031 85.425781 104.535156 85.792969 105.410156 C 86.164062 106.277344 86.054688 107.234375 85.582031 107.972656 C 86.347656 108.46875 86.855469 109.335938 86.847656 110.316406 Z M 86.847656 110.316406 " fill-opacity="1" fill-rule="nonzero"/><path fill="#56091f" d="M 63.828125 98.632812 C 62.433594 98.789062 61.058594 98.417969 59.855469 97.832031 C 59.25 97.535156 58.671875 97.179688 58.132812 96.804688 C 57.59375 96.425781 57.078125 96.039062 56.550781 95.683594 C 56.023438 95.332031 55.480469 95.019531 54.917969 94.796875 C 54.363281 94.574219 53.726562 94.480469 53.0625 94.238281 C 52.730469 94.117188 52.398438 93.945312 52.109375 93.734375 C 51.820312 93.523438 51.5625 93.28125 51.332031 93.015625 C 50.875 92.480469 50.527344 91.878906 50.269531 91.246094 C 49.742188 89.988281 49.542969 88.609375 49.648438 87.257812 C 49.757812 85.910156 50.171875 84.578125 50.894531 83.421875 C 51.617188 82.265625 52.628906 81.308594 53.789062 80.621094 C 55.082031 79.863281 56.21875 79.660156 56.949219 79.621094 C 57.320312 79.609375 57.597656 79.625 57.773438 79.667969 C 57.957031 79.707031 58.050781 79.753906 58.050781 79.800781 C 58.054688 79.847656 57.96875 79.898438 57.792969 79.953125 C 57.617188 80.003906 57.359375 80.070312 57.027344 80.148438 C 56.363281 80.328125 55.363281 80.605469 54.191406 81.296875 C 53.128906 81.925781 52.207031 82.800781 51.554688 83.84375 C 50.902344 84.886719 50.519531 86.101562 50.421875 87.335938 C 50.324219 88.570312 50.507812 89.828125 50.984375 90.96875 C 51.449219 92.101562 52.222656 93.152344 53.335938 93.542969 C 53.894531 93.753906 54.554688 93.855469 55.203125 94.117188 C 55.839844 94.371094 56.425781 94.71875 56.96875 95.089844 C 58.0625 95.839844 59.039062 96.664062 60.175781 97.210938 C 61.296875 97.761719 62.542969 98.101562 63.765625 97.964844 C 64.992188 97.839844 66.125 97.207031 67.273438 96.609375 C 67.855469 96.308594 68.449219 96.011719 69.078125 95.792969 C 69.710938 95.566406 70.371094 95.441406 71.015625 95.335938 C 72.300781 95.128906 73.597656 95.027344 74.753906 94.53125 C 75.90625 94.042969 76.855469 93.128906 77.46875 92.027344 C 78.085938 90.925781 78.398438 89.644531 78.34375 88.378906 C 78.289062 87.109375 77.894531 85.859375 77.265625 84.746094 C 76.636719 83.628906 75.785156 82.640625 74.792969 81.824219 C 73.800781 81.007812 72.671875 80.359375 71.488281 79.851562 C 70.304688 79.34375 69.066406 78.96875 67.804688 78.6875 C 64.964844 79.007812 62.128906 79.324219 59.296875 79.640625 C 57.636719 79.832031 57.621094 79.617188 59.28125 79.410156 C 62.101562 79.066406 64.925781 78.722656 67.777344 78.375 L 67.820312 78.367188 L 67.863281 78.378906 C 69.140625 78.652344 70.40625 79.015625 71.621094 79.523438 C 72.835938 80.027344 74 80.679688 75.035156 81.515625 C 76.074219 82.347656 76.972656 83.363281 77.640625 84.523438 C 78.308594 85.683594 78.746094 86.996094 78.820312 88.351562 C 78.890625 89.710938 78.574219 91.082031 77.921875 92.277344 C 77.277344 93.472656 76.246094 94.496094 74.976562 95.046875 C 73.703125 95.601562 72.359375 95.714844 71.105469 95.933594 C 70.476562 96.042969 69.855469 96.167969 69.277344 96.382812 C 68.695312 96.589844 68.132812 96.875 67.5625 97.179688 C 66.992188 97.480469 66.414062 97.800781 65.800781 98.070312 C 65.1875 98.335938 64.523438 98.554688 63.828125 98.632812 Z M 86.867188 108.988281 C 86.667969 108.5625 86.359375 108.183594 85.992188 107.890625 C 86.402344 107.09375 86.445312 106.117188 86.089844 105.289062 C 85.746094 104.464844 85.015625 103.8125 84.15625 103.554688 C 84.273438 102.648438 83.96875 101.699219 83.332031 101.046875 C 82.707031 100.375 81.761719 100.03125 80.847656 100.109375 C 80.734375 99.6875 80.535156 99.285156 80.253906 98.945312 C 79.914062 98.527344 79.457031 98.207031 78.957031 98.019531 C 78.453125 97.832031 77.894531 97.78125 77.367188 97.875 C 76.925781 97.953125 76.511719 98.128906 76.144531 98.386719 C 75.824219 98.066406 75.4375 97.816406 75.011719 97.664062 C 74.5 97.480469 73.933594 97.441406 73.402344 97.550781 C 72.871094 97.65625 72.367188 97.90625 71.964844 98.269531 C 71.625 98.570312 71.363281 98.953125 71.1875 99.371094 C 70.285156 99.152344 69.285156 99.371094 68.574219 99.96875 C 67.847656 100.550781 67.433594 101.488281 67.46875 102.414062 C 66.582031 102.566406 65.777344 103.128906 65.351562 103.917969 C 64.902344 104.707031 64.863281 105.691406 65.210938 106.519531 C 64.394531 106.980469 63.816406 107.839844 63.71875 108.769531 C 63.601562 109.710938 63.984375 110.675781 64.679688 111.300781 C 64.277344 111.863281 64.078125 112.5625 64.132812 113.246094 C 64.1875 113.808594 64.367188 114.042969 64.394531 114.03125 C 64.449219 114.011719 64.359375 113.753906 64.316406 113.234375 C 64.269531 112.53125 64.503906 111.816406 64.957031 111.28125 L 64.960938 111.273438 L 64.957031 111.265625 C 64.226562 110.683594 63.835938 109.714844 63.964844 108.800781 C 64.074219 107.878906 64.6875 107.046875 65.527344 106.667969 L 65.578125 106.648438 L 65.554688 106.59375 C 65.160156 105.804688 65.191406 104.828125 65.632812 104.074219 C 66.0625 103.308594 66.878906 102.792969 67.746094 102.734375 L 67.855469 102.730469 L 67.839844 102.621094 C 67.742188 101.730469 68.132812 100.820312 68.828125 100.277344 C 69.515625 99.71875 70.484375 99.5625 71.308594 99.851562 L 71.457031 99.90625 L 71.507812 99.75 C 71.792969 98.863281 72.585938 98.167969 73.492188 98.011719 C 74.398438 97.832031 75.378906 98.195312 75.945312 98.910156 L 76.078125 99.074219 L 76.246094 98.933594 C 76.9375 98.359375 77.933594 98.195312 78.761719 98.523438 C 79.597656 98.832031 80.222656 99.613281 80.351562 100.484375 L 80.390625 100.75 L 80.65625 100.703125 C 81.46875 100.554688 82.34375 100.839844 82.898438 101.449219 C 83.46875 102.042969 83.699219 102.921875 83.507812 103.714844 L 83.4375 104.007812 L 83.738281 104.066406 C 84.523438 104.226562 85.207031 104.789062 85.511719 105.527344 C 85.828125 106.257812 85.75 107.136719 85.316406 107.804688 L 85.148438 108.066406 L 85.410156 108.238281 C 85.792969 108.488281 86.101562 108.84375 86.296875 109.253906 C 86.492188 109.671875 86.558594 110.121094 86.519531 110.59375 C 86.441406 111.386719 86.085938 111.910156 85.832031 112.230469 C 85.570312 112.554688 85.402344 112.707031 85.445312 112.78125 C 85.453125 112.796875 85.480469 112.808594 85.519531 112.808594 C 85.535156 112.890625 85.585938 113.03125 85.664062 113.246094 C 85.960938 114.070312 85.828125 115.023438 85.320312 115.726562 C 84.832031 116.445312 83.984375 116.882812 83.128906 116.882812 L 83.070312 116.882812 L 83.074219 116.941406 C 83.105469 117.867188 82.625 118.78125 81.855469 119.269531 C 81.097656 119.773438 80.082031 119.832031 79.277344 119.4375 L 79.148438 119.375 L 79.089844 119.507812 C 78.726562 120.320312 77.933594 120.90625 77.066406 121.011719 C 76.203125 121.132812 75.300781 120.773438 74.757812 120.109375 L 74.617188 119.9375 L 74.445312 120.089844 C 74.402344 120.128906 74.355469 120.160156 74.308594 120.195312 C 74.296875 120.1875 74.289062 120.179688 74.277344 120.171875 C 74.363281 120.082031 74.445312 119.988281 74.519531 119.894531 C 75.457031 118.671875 75.3125 116.992188 74.199219 116.136719 C 73.28125 115.433594 71.984375 115.519531 71.035156 116.261719 C 71.019531 116.207031 71.003906 116.152344 70.988281 116.101562 C 70.457031 114.65625 68.964844 113.875 67.648438 114.355469 C 67.121094 114.550781 66.703125 114.921875 66.425781 115.390625 C 66.179688 115.320312 65.945312 115.214844 65.730469 115.074219 C 65.300781 114.789062 65.046875 114.484375 64.863281 114.28125 C 64.6875 114.078125 64.570312 113.964844 64.496094 113.992188 C 64.425781 114.019531 64.390625 114.191406 64.492188 114.492188 C 64.59375 114.789062 64.84375 115.230469 65.386719 115.59375 C 65.628906 115.753906 65.890625 115.875 66.167969 115.960938 C 65.988281 116.542969 65.992188 117.203125 66.226562 117.84375 C 66.246094 117.894531 66.265625 117.945312 66.289062 117.996094 C 65.085938 118.042969 64.039062 118.808594 63.792969 119.941406 C 63.492188 121.3125 64.46875 122.6875 65.96875 123.019531 C 66.085938 123.042969 66.207031 123.0625 66.332031 123.078125 C 66.074219 124.203125 66.503906 125.363281 67.476562 125.917969 C 68.691406 126.613281 70.296875 126.09375 71.058594 124.753906 C 71.140625 124.609375 71.214844 124.453125 71.28125 124.285156 C 71.4375 124.371094 71.59375 124.445312 71.75 124.503906 C 73.195312 125.03125 74.757812 124.394531 75.238281 123.078125 C 75.492188 122.382812 75.390625 121.644531 75.03125 121.019531 C 75.652344 121.414062 76.410156 121.589844 77.136719 121.472656 C 78.074219 121.34375 78.910156 120.730469 79.351562 119.902344 C 80.242188 120.21875 81.277344 120.097656 82.050781 119.558594 C 82.847656 119.03125 83.339844 118.101562 83.359375 117.152344 C 84.226562 117.0625 85.042969 116.585938 85.519531 115.859375 C 86.050781 115.085938 86.167969 114.054688 85.839844 113.183594 C 85.761719 112.988281 85.683594 112.863281 85.621094 112.796875 C 85.742188 112.769531 85.914062 112.695312 86.125 112.539062 C 86.320312 112.398438 86.542969 112.183594 86.738281 111.867188 C 86.933594 111.558594 87.097656 111.140625 87.144531 110.644531 C 87.191406 110.101562 87.117188 109.503906 86.867188 108.988281 Z M 80.339844 112.214844 C 80.691406 111.980469 81 111.675781 81.246094 111.3125 C 81.488281 110.949219 81.664062 110.523438 81.722656 110.070312 C 81.78125 109.617188 81.710938 109.140625 81.523438 108.722656 C 81.335938 108.304688 81.023438 107.945312 80.644531 107.710938 C 80.554688 107.652344 80.476562 107.621094 80.425781 107.597656 C 80.378906 107.578125 80.359375 107.558594 80.359375 107.558594 C 80.359375 107.558594 80.378906 107.578125 80.40625 107.621094 C 80.4375 107.664062 80.476562 107.734375 80.535156 107.820312 C 80.765625 108.175781 80.9375 108.542969 81.058594 108.914062 C 81.175781 109.285156 81.242188 109.667969 81.242188 110.046875 C 81.234375 110.804688 80.953125 111.617188 80.328125 112.203125 C 80.246094 112.289062 80.238281 112.277344 80.339844 112.214844 Z M 79.375 116.359375 C 78.808594 116.808594 78.050781 117.113281 77.234375 117.019531 C 77.117188 117.011719 77.121094 117 77.230469 117.035156 C 77.617188 117.152344 78.035156 117.191406 78.449219 117.148438 C 78.867188 117.105469 79.285156 116.976562 79.660156 116.746094 C 80.03125 116.515625 80.347656 116.1875 80.558594 115.804688 C 80.765625 115.421875 80.871094 114.984375 80.851562 114.558594 C 80.847656 114.453125 80.832031 114.375 80.824219 114.328125 C 80.816406 114.273438 80.820312 114.25 80.820312 114.25 C 80.828125 114.25 80.789062 114.347656 80.699219 114.527344 C 80.53125 114.902344 80.34375 115.238281 80.125 115.546875 C 79.90625 115.855469 79.660156 116.128906 79.375 116.359375 Z M 77.714844 102.933594 C 77.699219 102.886719 77.683594 102.835938 77.660156 102.773438 C 77.460938 102.28125 77.058594 101.859375 76.570312 101.601562 C 76.082031 101.339844 75.5 101.238281 74.945312 101.320312 C 74.390625 101.402344 73.882812 101.648438 73.46875 101.988281 C 73.058594 102.332031 72.738281 102.769531 72.539062 103.238281 C 72.484375 103.371094 72.472656 103.367188 72.550781 103.242188 C 72.808594 102.8125 73.183594 102.453125 73.617188 102.203125 C 74.046875 101.957031 74.53125 101.816406 75.003906 101.796875 C 75.472656 101.773438 75.933594 101.878906 76.359375 102.058594 C 76.789062 102.242188 77.1875 102.496094 77.53125 102.855469 C 77.613281 102.945312 77.679688 103.011719 77.714844 103.0625 C 77.753906 103.109375 77.769531 103.136719 77.769531 103.136719 C 77.769531 103.136719 77.757812 103.109375 77.742188 103.050781 C 77.730469 103.011719 77.722656 102.972656 77.714844 102.933594 Z M 72.035156 107.347656 C 71.789062 107.71875 71.648438 108.160156 71.628906 108.609375 C 71.605469 109.050781 71.695312 109.492188 71.867188 109.886719 C 72.035156 110.28125 72.277344 110.632812 72.570312 110.921875 C 72.65625 111.003906 72.644531 111.007812 72.582031 110.914062 C 72.347656 110.585938 72.191406 110.203125 72.113281 109.8125 C 72.039062 109.417969 72.039062 109.023438 72.105469 108.648438 C 72.171875 108.273438 72.300781 107.921875 72.472656 107.59375 C 72.644531 107.265625 72.847656 106.953125 73.117188 106.652344 C 73.183594 106.582031 73.230469 106.519531 73.265625 106.484375 C 73.304688 106.449219 73.324219 106.4375 73.324219 106.4375 C 73.324219 106.4375 73.300781 106.449219 73.25 106.457031 C 73.203125 106.46875 73.125 106.484375 73.027344 106.523438 C 72.628906 106.679688 72.28125 106.976562 72.035156 107.347656 Z M 67.65625 107.269531 C 67.859375 106.957031 68.097656 106.667969 68.40625 106.410156 C 68.484375 106.347656 68.539062 106.296875 68.582031 106.265625 C 68.625 106.238281 68.644531 106.226562 68.644531 106.226562 C 68.644531 106.226562 68.625 106.234375 68.574219 106.238281 C 68.519531 106.242188 68.441406 106.246094 68.339844 106.269531 C 67.917969 106.367188 67.527344 106.632812 67.246094 106.984375 C 66.964844 107.332031 66.78125 107.769531 66.734375 108.21875 C 66.683594 108.667969 66.746094 109.117188 66.894531 109.519531 C 67.039062 109.925781 67.261719 110.292969 67.53125 110.605469 C 67.609375 110.691406 67.597656 110.699219 67.542969 110.601562 C 67.335938 110.25 67.195312 109.859375 67.144531 109.457031 C 67.089844 109.0625 67.113281 108.660156 67.207031 108.289062 C 67.296875 107.921875 67.457031 107.578125 67.65625 107.269531 Z M 82.53125 105.164062 C 82.882812 105.65625 83.15625 106.246094 83.246094 106.917969 C 83.265625 107.015625 83.25 107.015625 83.261719 106.917969 C 83.285156 106.585938 83.285156 106.25 83.238281 105.910156 C 83.191406 105.566406 83.097656 105.222656 82.933594 104.90625 C 82.769531 104.585938 82.539062 104.296875 82.25 104.082031 C 81.960938 103.871094 81.613281 103.730469 81.257812 103.699219 C 81.171875 103.691406 81.105469 103.699219 81.0625 103.703125 C 81.019531 103.707031 81 103.699219 81 103.699219 C 81.003906 103.691406 81.074219 103.742188 81.203125 103.84375 C 81.742188 104.253906 82.175781 104.671875 82.53125 105.164062 Z M 70.792969 102.050781 C 70.753906 102.046875 70.695312 102.035156 70.613281 102.042969 C 70.28125 102.054688 69.953125 102.175781 69.671875 102.375 C 69.394531 102.574219 69.167969 102.851562 69.027344 103.167969 C 68.738281 103.804688 68.804688 104.550781 69.125 105.089844 C 69.171875 105.167969 69.160156 105.167969 69.140625 105.085938 C 69.046875 104.792969 69.042969 104.476562 69.105469 104.183594 C 69.167969 103.890625 69.296875 103.617188 69.457031 103.382812 C 69.613281 103.144531 69.804688 102.945312 70.003906 102.753906 C 70.203125 102.5625 70.417969 102.378906 70.664062 102.1875 C 70.78125 102.089844 70.851562 102.042969 70.851562 102.050781 C 70.851562 102.050781 70.832031 102.054688 70.792969 102.050781 Z M 70.851562 113.566406 C 70.726562 113.429688 70.667969 113.351562 70.675781 113.351562 C 70.675781 113.351562 70.683594 113.371094 70.6875 113.417969 C 70.691406 113.464844 70.691406 113.539062 70.710938 113.632812 C 70.789062 114.019531 70.984375 114.386719 71.257812 114.6875 C 71.53125 114.988281 71.890625 115.21875 72.28125 115.351562 C 73.066406 115.613281 73.941406 115.460938 74.566406 115.03125 C 74.652344 114.96875 74.660156 114.976562 74.5625 115.019531 C 74.21875 115.167969 73.84375 115.222656 73.476562 115.191406 C 73.113281 115.164062 72.761719 115.054688 72.449219 114.902344 C 72.136719 114.746094 71.859375 114.546875 71.597656 114.320312 C 71.339844 114.097656 71.09375 113.851562 70.851562 113.566406 Z M 70.851562 113.566406 " fill-opacity="1" fill-rule="nonzero"/><path fill="#db5275" d="M 73.046875 82.160156 L 72.988281 82.710938 C 72.988281 82.734375 72.984375 82.757812 72.980469 82.78125 C 72.980469 82.808594 72.976562 82.832031 72.972656 82.855469 L 72.972656 82.878906 C 72.503906 86.820312 68.53125 89.625 64.042969 89.160156 C 59.554688 88.695312 56.242188 85.132812 56.59375 81.179688 L 56.589844 81.179688 L 56.664062 80.460938 C 56.984375 77.378906 59.710938 75.140625 62.753906 75.457031 C 63.203125 75.503906 63.625 75.628906 64.007812 75.816406 C 64.875 76.238281 65.875 76.34375 66.808594 76.105469 C 67.222656 76 67.664062 75.964844 68.109375 76.011719 C 71.15625 76.332031 73.363281 79.082031 73.046875 82.160156 Z M 73.046875 82.160156 " fill-opacity="1" fill-rule="nonzero"/><g clip-path="url(#7ce0bbd0d0)"><path fill="#56091f" d="M 72.964844 82.96875 L 72.980469 82.980469 L 72.941406 82.988281 Z M 73.050781 82.886719 L 72.945312 82.953125 L 72.960938 82.96875 L 73.019531 82.929688 C 73.03125 82.910156 73.042969 82.894531 73.050781 82.886719 Z M 72.980469 82.980469 L 72.996094 82.996094 L 73 82.992188 C 73 82.988281 73 82.980469 73.003906 82.980469 Z M 68.230469 65.480469 C 69.339844 63.175781 70.8125 61.042969 72.671875 59.273438 C 73.300781 58.675781 74.945312 57.652344 74.023438 56.625 C 73.578125 56.128906 72.988281 56.421875 72.535156 56.738281 C 72.039062 57.089844 71.609375 57.523438 71.230469 57.992188 C 69.882812 59.664062 68.921875 61.621094 68.113281 63.59375 C 67.238281 65.71875 66.550781 67.917969 65.988281 70.140625 C 65.519531 72.003906 65.136719 73.894531 64.863281 75.796875 C 64.640625 75.742188 64.421875 75.664062 64.214844 75.566406 C 63.796875 75.359375 63.308594 75.203125 62.824219 75.15625 C 62.582031 75.140625 62.347656 75.121094 62.109375 75.125 C 61.871094 75.140625 61.628906 75.136719 61.394531 75.183594 C 60.449219 75.316406 59.535156 75.679688 58.769531 76.253906 C 58.671875 76.324219 58.578125 76.394531 58.484375 76.46875 L 58.21875 76.710938 C 58.035156 76.863281 57.890625 77.054688 57.726562 77.226562 C 57.429688 77.601562 57.15625 77.992188 56.953125 78.425781 C 56.902344 78.535156 56.847656 78.640625 56.800781 78.75 L 56.679688 79.085938 C 56.585938 79.308594 56.550781 79.546875 56.484375 79.773438 C 56.4375 80.007812 56.402344 80.246094 56.371094 80.476562 L 56.304688 81.152344 L 56.265625 81.503906 L 56.285156 81.503906 C 56.253906 82.40625 56.40625 83.316406 56.726562 84.160156 C 57.089844 85.113281 57.652344 85.976562 58.351562 86.707031 C 59.746094 88.175781 61.664062 89.082031 63.640625 89.351562 C 65.617188 89.628906 67.695312 89.292969 69.4375 88.292969 C 70.304688 87.796875 71.085938 87.148438 71.707031 86.363281 C 72.328125 85.582031 72.785156 84.664062 73.015625 83.6875 C 73.085938 83.332031 73.105469 83.085938 73.097656 82.96875 L 73.105469 82.96875 L 73.09375 82.925781 C 73.09375 82.921875 73.09375 82.917969 73.09375 82.914062 L 73.085938 82.894531 C 73.078125 82.867188 73.070312 82.863281 73.054688 82.890625 L 73.035156 82.925781 L 73.027344 82.933594 C 73.019531 82.945312 73.011719 82.960938 73.007812 82.980469 L 73 82.996094 C 72.957031 83.117188 72.902344 83.332031 72.839844 83.648438 C 72.605469 84.59375 72.148438 85.480469 71.535156 86.230469 C 70.921875 86.984375 70.152344 87.605469 69.304688 88.074219 C 67.605469 89.023438 65.589844 89.316406 63.683594 89.019531 C 61.78125 88.734375 59.957031 87.835938 58.652344 86.421875 C 58 85.71875 57.480469 84.894531 57.15625 84.003906 C 56.828125 83.109375 56.703125 82.144531 56.796875 81.203125 L 56.804688 81.101562 L 56.871094 80.53125 C 56.90625 80.3125 56.933594 80.097656 56.980469 79.886719 C 57.042969 79.675781 57.078125 79.460938 57.167969 79.257812 L 57.28125 78.957031 C 57.324219 78.855469 57.378906 78.757812 57.425781 78.660156 C 57.609375 78.269531 57.867188 77.914062 58.136719 77.578125 C 58.429688 77.257812 58.734375 76.945312 59.09375 76.703125 C 59.789062 76.191406 60.621094 75.867188 61.472656 75.753906 C 61.683594 75.714844 61.902344 75.722656 62.117188 75.710938 C 62.328125 75.703125 62.542969 75.730469 62.757812 75.742188 C 63.179688 75.789062 63.570312 75.910156 63.960938 76.109375 C 64.226562 76.234375 64.503906 76.328125 64.789062 76.402344 C 64.753906 76.675781 64.71875 76.949219 64.6875 77.222656 C 64.632812 77.722656 65.417969 77.722656 65.472656 77.222656 C 65.5 76.988281 65.53125 76.753906 65.5625 76.519531 C 65.976562 76.546875 66.390625 76.515625 66.792969 76.425781 C 67.226562 76.316406 67.625 76.28125 68.046875 76.320312 C 68.253906 76.351562 68.46875 76.382812 68.675781 76.421875 C 68.878906 76.484375 69.09375 76.519531 69.289062 76.605469 C 70.902344 77.167969 72.179688 78.585938 72.59375 80.242188 C 72.808594 81.074219 72.808594 81.722656 72.835938 82.164062 C 72.847656 82.625 72.902344 82.855469 72.980469 82.863281 C 73.058594 82.875 73.15625 82.652344 73.261719 82.207031 C 73.355469 81.753906 73.441406 81.015625 73.199219 80.082031 C 72.742188 78.238281 71.3125 76.652344 69.503906 76.023438 C 69.285156 75.929688 69.046875 75.886719 68.816406 75.820312 C 68.585938 75.769531 68.347656 75.742188 68.113281 75.707031 C 67.628906 75.65625 67.117188 75.710938 66.667969 75.828125 C 66.332031 75.90625 65.988281 75.933594 65.640625 75.921875 C 66.132812 72.386719 67.011719 68.875 68.21875 65.527344 C 68.214844 65.507812 68.222656 65.496094 68.230469 65.480469 Z M 62.351562 104.632812 C 59.597656 103.175781 56.828125 101.714844 54.054688 100.253906 C 51.292969 98.78125 48.546875 97.285156 45.855469 95.691406 C 45.53125 95.5 45.289062 95.34375 45.128906 95.246094 C 44.96875 95.148438 44.882812 95.101562 44.882812 95.101562 C 44.882812 95.101562 44.96875 95.140625 45.144531 95.210938 C 45.324219 95.28125 45.59375 95.371094 45.945312 95.511719 C 48.859375 96.679688 51.640625 98.140625 54.34375 99.726562 C 57.050781 101.3125 59.691406 103.003906 62.363281 104.617188 C 62.742188 104.847656 62.75 104.835938 62.351562 104.632812 Z M 62.351562 104.632812 " fill-opacity="1" fill-rule="nonzero"/></g><path fill="#f9aabb" d="M 24.785156 105.425781 C 25.871094 104.890625 26.953125 104.378906 27.988281 103.90625 C 28.378906 103.726562 28.765625 103.550781 29.144531 103.378906 C 29.542969 103.367188 29.945312 103.359375 30.347656 103.351562 C 32.417969 103.308594 34.484375 103.320312 36.550781 103.386719 C 39.101562 103.46875 41.582031 103.707031 44.042969 104.140625 C 45.089844 104.65625 46.085938 105.175781 47.035156 105.683594 C 43.476562 105.710938 39.941406 105.613281 36.382812 105.53125 C 34.308594 105.484375 32.230469 105.492188 30.160156 105.554688 C 28.34375 105.613281 26.566406 105.75 24.785156 105.425781 Z M 56 111.046875 C 55.84375 110.941406 55.679688 110.835938 55.511719 110.722656 C 53.058594 110.015625 50.441406 109.679688 47.953125 109.339844 C 44.539062 108.878906 41.105469 108.660156 37.667969 108.511719 C 34.402344 108.371094 31.136719 108.351562 27.871094 108.367188 C 25.523438 108.378906 22.957031 108.171875 20.558594 108.53125 C 20.050781 109.191406 19.636719 109.921875 19.332031 110.699219 C 22.035156 111.25 24.996094 110.859375 27.707031 110.835938 C 30.980469 110.8125 34.257812 110.835938 37.53125 110.917969 C 40.796875 111 44.050781 111.195312 47.308594 111.398438 C 50.59375 111.605469 53.914062 112.171875 57.203125 112.164062 C 57.214844 112.164062 57.226562 112.164062 57.242188 112.160156 C 57.15625 112.0625 57.070312 111.964844 56.980469 111.875 C 56.6875 111.566406 56.359375 111.289062 56 111.046875 Z M 53.058594 115.671875 C 49.046875 114.703125 44.910156 114.394531 40.796875 114.1875 C 38.726562 114.082031 36.660156 114.042969 34.585938 114.046875 C 32.734375 114.050781 30.628906 113.886719 28.992188 114.886719 C 28.824219 114.988281 28.835938 115.242188 29.003906 115.332031 C 30.632812 116.203125 32.632812 115.996094 34.417969 116 C 36.492188 116 38.5625 116.042969 40.632812 116.082031 C 44.757812 116.160156 48.878906 116.441406 53 116.320312 C 53.375 116.308594 53.414062 115.757812 53.058594 115.671875 Z M 54.847656 85.125 C 55.144531 85.480469 55.5 85.777344 55.898438 86.003906 C 56.101562 86.121094 56.3125 86.21875 56.539062 86.277344 C 56.734375 86.324219 56.988281 86.390625 57.1875 86.339844 C 57.292969 86.3125 57.277344 86.175781 57.199219 86.128906 C 57.035156 86.027344 56.8125 85.996094 56.632812 85.917969 C 56.445312 85.832031 56.253906 85.753906 56.074219 85.652344 C 55.714844 85.441406 55.390625 85.15625 55.121094 84.835938 C 54.84375 84.503906 54.621094 84.121094 54.464844 83.710938 C 54.300781 83.289062 54.230469 82.839844 54.058594 82.421875 C 54.035156 82.359375 53.941406 82.359375 53.925781 82.429688 C 53.832031 82.910156 53.964844 83.40625 54.132812 83.859375 C 54.300781 84.3125 54.539062 84.75 54.847656 85.125 Z M 55.484375 89.746094 C 57.128906 90.066406 58.863281 89.792969 60.371094 89.066406 C 60.542969 88.984375 60.4375 88.707031 60.261719 88.785156 C 58.792969 89.445312 57.152344 89.625 55.574219 89.308594 C 54.839844 89.160156 54.132812 88.898438 53.472656 88.542969 C 52.835938 88.199219 52.257812 87.753906 51.632812 87.390625 C 51.574219 87.355469 51.515625 87.429688 51.546875 87.484375 C 52.339844 88.773438 54.058594 89.46875 55.484375 89.746094 Z M 63.894531 90.347656 C 64.015625 90.199219 63.796875 90.039062 63.667969 90.164062 C 62.601562 91.1875 61.242188 91.921875 59.816406 92.304688 C 59.003906 92.519531 58.164062 92.644531 57.320312 92.679688 C 56.480469 92.710938 55.636719 92.683594 54.796875 92.734375 C 54.683594 92.742188 54.679688 92.890625 54.777344 92.921875 C 56.4375 93.476562 58.402344 93.320312 60.058594 92.816406 C 61.542969 92.355469 62.898438 91.554688 63.894531 90.347656 Z M 76.226562 90.460938 C 76.121094 89.808594 75.945312 89.175781 75.695312 88.566406 C 75.199219 87.355469 74.457031 86.292969 73.46875 85.4375 C 73.28125 85.277344 73.03125 85.546875 73.207031 85.71875 C 74.066406 86.582031 74.773438 87.640625 75.21875 88.773438 C 75.433594 89.324219 75.601562 89.902344 75.703125 90.484375 C 75.800781 91.058594 75.769531 91.703125 75.976562 92.25 C 76.003906 92.328125 76.121094 92.347656 76.160156 92.265625 C 76.414062 91.730469 76.320312 91.03125 76.226562 90.460938 Z M 70.851562 87.78125 C 70.785156 87.703125 70.65625 87.800781 70.691406 87.886719 C 71.105469 88.929688 71.496094 89.980469 71.574219 91.113281 C 71.609375 91.671875 71.582031 92.230469 71.484375 92.785156 C 71.394531 93.304688 71.175781 93.835938 71.167969 94.367188 C 71.164062 94.46875 71.296875 94.496094 71.359375 94.433594 C 71.753906 94.039062 71.894531 93.371094 71.980469 92.835938 C 72.078125 92.242188 72.105469 91.628906 72.058594 91.03125 C 71.964844 89.867188 71.632812 88.675781 70.851562 87.78125 Z M 67.480469 89.679688 C 67.308594 90.007812 67.234375 90.371094 67.125 90.726562 C 67.003906 91.101562 66.855469 91.46875 66.683594 91.824219 C 66.339844 92.523438 65.890625 93.164062 65.375 93.746094 C 64.863281 94.324219 64.269531 94.824219 63.613281 95.238281 C 63.289062 95.441406 62.957031 95.621094 62.609375 95.792969 C 62.347656 95.921875 61.902344 96.09375 61.820312 96.40625 C 61.804688 96.464844 61.835938 96.539062 61.882812 96.574219 C 62.160156 96.789062 62.675781 96.585938 62.960938 96.460938 C 63.339844 96.289062 63.710938 96.085938 64.054688 95.851562 C 64.730469 95.390625 65.339844 94.832031 65.863281 94.203125 C 66.382812 93.578125 66.808594 92.871094 67.128906 92.125 C 67.433594 91.425781 67.820312 90.484375 67.660156 89.710938 C 67.636719 89.625 67.527344 89.59375 67.480469 89.679688 Z M 71.578125 80.664062 C 71.488281 79.976562 71.292969 79.28125 70.957031 78.632812 C 70.785156 78.3125 70.582031 78.003906 70.332031 77.726562 C 70.085938 77.449219 69.777344 77.179688 69.375 77.03125 C 69.171875 76.960938 69.027344 77.136719 68.996094 77.328125 C 68.964844 77.523438 68.988281 77.722656 69.101562 77.765625 C 69.59375 77.964844 70.070312 78.472656 70.464844 78.976562 C 70.851562 79.492188 71.164062 80.078125 71.351562 80.710938 C 71.378906 80.804688 71.589844 80.761719 71.578125 80.664062 Z M 71.578125 80.664062 " fill-opacity="1" fill-rule="nonzero"/><path fill="#dd7b4a" d="M 87.71875 115.136719 C 87.9375 117.050781 86.289062 118.433594 84.832031 119.382812 C 84.09375 119.859375 83.320312 118.699219 84.066406 118.265625 C 85.445312 117.46875 86.460938 116.488281 87.128906 115.027344 C 87.257812 114.738281 87.683594 114.839844 87.71875 115.136719 Z M 85.40625 121.558594 C 84.011719 121.652344 82.691406 121.730469 81.433594 121.011719 C 80.640625 120.5625 79.964844 121.882812 80.789062 122.273438 C 82.292969 122.976562 84.328125 123.140625 85.503906 121.757812 C 85.570312 121.679688 85.507812 121.554688 85.40625 121.558594 Z M 77.414062 122.070312 C 77.289062 121.964844 77.074219 122.082031 77.101562 122.246094 C 77.289062 123.40625 77.03125 124.535156 76.402344 125.511719 C 75.90625 126.277344 77.203125 126.898438 77.6875 126.128906 C 78.515625 124.8125 78.699219 123.128906 77.414062 122.070312 Z M 92.117188 118.488281 C 90.695312 117.957031 88.984375 118.976562 88.117188 120.121094 C 87.640625 120.75 88.566406 121.570312 89.035156 120.933594 C 89.71875 120.007812 90.921875 119.058594 92.0625 118.804688 C 92.203125 118.773438 92.289062 118.550781 92.117188 118.488281 Z M 64.285156 116.914062 C 63.757812 116.765625 63.296875 116.941406 62.773438 117.027344 C 62.164062 117.125 61.554688 117.085938 60.949219 116.964844 C 60.238281 116.820312 60.042969 117.90625 60.742188 118.066406 C 61.800781 118.308594 63.941406 118.402344 64.394531 117.125 C 64.429688 117.027344 64.382812 116.941406 64.285156 116.914062 Z M 62.132812 115.917969 C 62.375 115.503906 62.492188 115.003906 62.714844 114.570312 C 62.964844 114.078125 63.203125 113.621094 63.617188 113.246094 C 63.816406 113.066406 63.617188 112.777344 63.378906 112.90625 C 62.386719 113.441406 61.15625 114.3125 61.074219 115.566406 C 61.035156 116.195312 61.800781 116.496094 62.132812 115.917969 Z M 59.535156 120.769531 C 58.554688 120.648438 57.390625 119.5625 57.179688 118.597656 C 57.015625 117.851562 55.828125 118.214844 56.035156 118.972656 C 56.464844 120.542969 57.945312 121.355469 59.507812 121.230469 C 59.765625 121.214844 59.804688 120.800781 59.535156 120.769531 Z M 63.171875 122.226562 C 62.828125 122.035156 62.578125 121.574219 62.394531 121.242188 C 62.203125 120.890625 61.964844 120.496094 61.832031 120.113281 C 61.722656 119.785156 61.234375 119.851562 61.171875 120.175781 C 61.050781 120.835938 61.03125 121.375 61.320312 122.007812 C 61.589844 122.609375 62.019531 123.144531 62.582031 123.484375 C 63.34375 123.945312 63.957031 122.664062 63.171875 122.226562 Z M 71.675781 125.75 C 70.835938 125.492188 70.542969 126.945312 71.441406 127.128906 C 71.925781 127.230469 72.398438 127.273438 72.863281 127.464844 C 73.3125 127.65625 73.691406 127.953125 74.085938 128.234375 C 74.277344 128.371094 74.628906 128.199219 74.503906 127.941406 C 73.9375 126.746094 72.914062 126.125 71.675781 125.75 Z M 74.820312 122.167969 C 74.640625 122.921875 74.046875 123.59375 73.28125 123.78125 C 72.570312 123.960938 71.71875 123.777344 71.097656 123.378906 C 70.738281 123.949219 70.132812 124.382812 69.523438 124.628906 C 68.890625 124.886719 67.945312 125.011719 67.394531 124.503906 C 66.820312 123.980469 66.917969 123.023438 67.128906 122.296875 C 66.257812 122.378906 65.382812 121.96875 64.960938 121.167969 C 64.535156 120.351562 64.582031 119.171875 65.488281 118.726562 C 65.574219 118.683594 65.632812 118.820312 65.5625 118.867188 C 65.253906 119.078125 65.132812 119.601562 65.09375 119.957031 C 65.054688 120.347656 65.148438 120.753906 65.347656 121.089844 C 65.761719 121.785156 66.597656 122.074219 67.367188 121.902344 C 67.511719 121.871094 67.585938 122.042969 67.542969 122.152344 C 67.335938 122.722656 67.136719 123.628906 67.539062 124.152344 C 67.945312 124.6875 68.871094 124.53125 69.40625 124.316406 C 69.988281 124.085938 70.601562 123.652344 70.898438 123.085938 C 70.949219 122.992188 71.0625 122.964844 71.148438 123.03125 C 72.3125 123.902344 74.246094 123.703125 74.671875 122.140625 C 74.699219 122.050781 74.84375 122.074219 74.820312 122.167969 Z M 74.820312 122.167969 " fill-opacity="1" fill-rule="nonzero"/><path fill="#faefd6" d="M 98.035156 79.382812 C 91.023438 79.382812 89.519531 80.886719 89.519531 87.902344 C 89.519531 80.886719 88.015625 79.382812 81.003906 79.382812 C 88.015625 79.382812 89.519531 77.878906 89.519531 70.863281 C 89.515625 77.878906 91.019531 79.382812 98.035156 79.382812 Z M 34.542969 88.332031 C 34.542969 93.003906 33.542969 94.003906 28.871094 94.003906 C 33.542969 94.003906 34.542969 95.003906 34.542969 99.675781 C 34.542969 95.003906 35.542969 94.003906 40.210938 94.003906 C 35.542969 94.003906 34.542969 93.003906 34.542969 88.332031 Z M 66.714844 97.65625 C 66.714844 101.265625 65.945312 102.039062 62.332031 102.039062 C 65.945312 102.039062 66.714844 102.8125 66.714844 106.421875 C 66.714844 102.8125 67.488281 102.039062 71.097656 102.039062 C 67.488281 102.042969 66.714844 101.265625 66.714844 97.65625 Z M 104.335938 138.984375 C 104.335938 142.597656 103.5625 143.371094 99.953125 143.371094 C 103.5625 143.371094 104.335938 144.144531 104.335938 147.753906 C 104.335938 144.144531 105.109375 143.371094 108.71875 143.371094 C 105.109375 143.371094 104.335938 142.597656 104.335938 138.984375 Z M 47.035156 69.597656 C 47.035156 73.207031 46.265625 73.980469 42.65625 73.980469 C 46.265625 73.980469 47.035156 74.753906 47.035156 78.367188 C 47.035156 74.753906 47.808594 73.980469 51.417969 73.980469 C 47.8125 73.980469 47.035156 73.207031 47.035156 69.597656 Z M 47.035156 69.597656 " fill-opacity="1" fill-rule="nonzero"/><path fill="#56091f" d="M 51.511719 73.824219 C 50.421875 73.820312 48.921875 73.878906 48.089844 73.027344 C 47.25 72.167969 47.289062 70.679688 47.285156 69.574219 C 47.285156 69.34375 46.785156 69.433594 46.785156 69.625 C 46.785156 70.703125 46.839844 72.191406 46.039062 73.042969 C 45.257812 73.882812 43.792969 73.820312 42.746094 73.824219 C 42.640625 73.824219 42.464844 73.855469 42.417969 73.96875 C 42.378906 74.070312 42.453125 74.140625 42.5625 74.140625 C 43.652344 74.144531 45.152344 74.085938 45.984375 74.9375 C 46.824219 75.796875 46.785156 77.285156 46.785156 78.394531 C 46.785156 78.480469 46.859375 78.519531 46.945312 78.527344 C 46.96875 78.53125 46.992188 78.527344 47.015625 78.527344 C 47.023438 78.527344 47.027344 78.527344 47.035156 78.527344 C 47.160156 78.507812 47.285156 78.4375 47.285156 78.34375 C 47.289062 77.261719 47.234375 75.773438 48.03125 74.925781 C 48.816406 74.085938 50.28125 74.144531 51.328125 74.140625 C 51.429688 74.140625 51.609375 74.113281 51.652344 74 C 51.695312 73.894531 51.621094 73.824219 51.511719 73.824219 Z M 48.273438 74.332031 C 47.640625 74.660156 47.261719 75.214844 47.054688 75.863281 C 46.988281 75.640625 46.902344 75.421875 46.792969 75.21875 C 46.390625 74.46875 45.628906 74.121094 44.820312 73.972656 C 45.160156 73.898438 45.488281 73.792969 45.796875 73.632812 C 46.429688 73.300781 46.808594 72.75 47.015625 72.101562 C 47.082031 72.324219 47.167969 72.542969 47.277344 72.746094 C 47.679688 73.492188 48.441406 73.84375 49.25 73.992188 C 48.914062 74.066406 48.582031 74.171875 48.273438 74.332031 Z M 108.8125 143.214844 C 107.71875 143.210938 106.222656 143.265625 105.386719 142.417969 C 104.550781 141.558594 104.589844 140.066406 104.585938 138.960938 C 104.585938 138.730469 104.085938 138.824219 104.085938 139.011719 C 104.082031 140.09375 104.136719 141.578125 103.339844 142.429688 C 102.554688 143.269531 101.09375 143.210938 100.042969 143.214844 C 99.941406 143.214844 99.761719 143.242188 99.71875 143.355469 C 99.679688 143.457031 99.753906 143.53125 99.859375 143.53125 C 100.953125 143.53125 102.449219 143.476562 103.285156 144.328125 C 104.121094 145.1875 104.082031 146.675781 104.085938 147.78125 C 104.085938 147.867188 104.15625 147.910156 104.246094 147.917969 C 104.269531 147.917969 104.292969 147.917969 104.316406 147.914062 C 104.324219 147.914062 104.328125 147.914062 104.335938 147.914062 C 104.460938 147.898438 104.585938 147.828125 104.585938 147.730469 C 104.589844 146.652344 104.535156 145.164062 105.332031 144.3125 C 106.117188 143.472656 107.582031 143.53125 108.628906 143.53125 C 108.730469 143.53125 108.910156 143.5 108.953125 143.386719 C 108.992188 143.285156 108.917969 143.214844 108.8125 143.214844 Z M 105.578125 143.722656 C 104.941406 144.050781 104.5625 144.605469 104.355469 145.253906 C 104.289062 145.03125 104.207031 144.8125 104.097656 144.609375 C 103.691406 143.859375 102.929688 143.511719 102.125 143.363281 C 102.125 143.363281 102.121094 143.363281 102.121094 143.363281 C 102.460938 143.289062 102.792969 143.183594 103.097656 143.023438 C 103.734375 142.695312 104.109375 142.140625 104.320312 141.492188 C 104.386719 141.714844 104.46875 141.933594 104.578125 142.136719 C 104.984375 142.882812 105.742188 143.234375 106.550781 143.382812 C 106.550781 143.382812 106.554688 143.382812 106.554688 143.382812 C 106.210938 143.457031 105.882812 143.5625 105.578125 143.722656 Z M 71.191406 101.882812 C 70.101562 101.878906 68.601562 101.9375 67.769531 101.085938 C 66.929688 100.226562 66.96875 98.738281 66.964844 97.628906 C 66.964844 97.398438 66.464844 97.492188 66.464844 97.679688 C 66.464844 98.761719 66.515625 100.246094 65.71875 101.097656 C 64.9375 101.9375 63.472656 101.878906 62.425781 101.882812 C 62.320312 101.882812 62.140625 101.910156 62.097656 102.023438 C 62.058594 102.128906 62.132812 102.199219 62.242188 102.199219 C 63.332031 102.199219 64.832031 102.144531 65.664062 102.996094 C 66.503906 103.855469 66.464844 105.34375 66.464844 106.449219 C 66.464844 106.535156 66.535156 106.578125 66.625 106.585938 C 66.648438 106.589844 66.671875 106.585938 66.695312 106.582031 C 66.703125 106.582031 66.707031 106.582031 66.714844 106.582031 C 66.839844 106.566406 66.964844 106.496094 66.964844 106.398438 C 66.96875 105.320312 66.914062 103.832031 67.710938 102.980469 C 68.496094 102.140625 69.960938 102.199219 71.007812 102.199219 C 71.109375 102.199219 71.289062 102.167969 71.332031 102.054688 C 71.371094 101.953125 71.296875 101.882812 71.191406 101.882812 Z M 67.953125 102.390625 C 67.320312 102.722656 66.941406 103.273438 66.734375 103.921875 C 66.667969 103.699219 66.582031 103.480469 66.472656 103.277344 C 66.070312 102.53125 65.308594 102.179688 64.5 102.03125 C 64.839844 101.957031 65.167969 101.851562 65.476562 101.691406 C 66.109375 101.363281 66.488281 100.808594 66.695312 100.160156 C 66.761719 100.382812 66.847656 100.601562 66.957031 100.804688 C 67.359375 101.554688 68.121094 101.902344 68.929688 102.050781 C 68.589844 102.125 68.261719 102.230469 67.953125 102.390625 Z M 40.304688 93.847656 C 39.054688 93.84375 37.605469 93.867188 36.46875 93.261719 C 35.550781 92.773438 35.148438 91.847656 34.96875 90.863281 C 34.816406 90.023438 34.792969 89.160156 34.792969 88.304688 C 34.792969 88.074219 34.292969 88.167969 34.292969 88.359375 C 34.289062 89.609375 34.308594 91.050781 33.730469 92.195312 C 33.273438 93.105469 32.410156 93.507812 31.441406 93.679688 C 30.628906 93.824219 29.792969 93.84375 28.964844 93.847656 C 28.863281 93.847656 28.683594 93.875 28.640625 93.988281 C 28.601562 94.089844 28.675781 94.164062 28.78125 94.164062 C 30.03125 94.164062 31.480469 94.140625 32.621094 94.746094 C 33.535156 95.234375 33.9375 96.164062 34.117188 97.144531 C 34.273438 97.984375 34.292969 98.847656 34.292969 99.703125 C 34.292969 99.789062 34.367188 99.832031 34.453125 99.839844 C 34.601562 99.851562 34.792969 99.769531 34.792969 99.652344 C 34.796875 98.398438 34.777344 96.960938 35.355469 95.8125 C 35.816406 94.902344 36.679688 94.5 37.644531 94.328125 C 38.457031 94.183594 39.292969 94.164062 40.121094 94.164062 C 40.222656 94.164062 40.402344 94.132812 40.449219 94.019531 C 40.488281 93.914062 40.414062 93.847656 40.304688 93.847656 Z M 36.171875 94.496094 C 35.285156 94.960938 34.800781 95.769531 34.5625 96.695312 C 34.472656 96.324219 34.34375 95.964844 34.164062 95.632812 C 33.640625 94.667969 32.660156 94.222656 31.621094 94.03125 C 31.558594 94.019531 31.492188 94.015625 31.429688 94.003906 C 31.949219 93.90625 32.457031 93.757812 32.917969 93.511719 C 33.804688 93.046875 34.289062 92.238281 34.527344 91.3125 C 34.617188 91.683594 34.746094 92.039062 34.925781 92.375 C 35.445312 93.339844 36.429688 93.785156 37.46875 93.972656 C 37.53125 93.984375 37.597656 93.992188 37.660156 94.003906 C 37.136719 94.097656 36.632812 94.25 36.171875 94.496094 Z M 98.125 79.226562 C 96.964844 79.226562 95.796875 79.195312 94.644531 79.027344 C 93.835938 78.910156 93.015625 78.714844 92.289062 78.320312 C 90.894531 77.570312 90.289062 76.140625 90.023438 74.640625 C 89.800781 73.386719 89.769531 72.105469 89.765625 70.835938 C 89.765625 70.605469 89.265625 70.699219 89.265625 70.886719 C 89.265625 72.027344 89.238281 73.175781 89.078125 74.304688 C 88.964844 75.128906 88.777344 75.960938 88.398438 76.703125 C 87.691406 78.085938 86.347656 78.703125 84.875 78.96875 C 83.632812 79.191406 82.355469 79.21875 81.097656 79.222656 C 80.992188 79.222656 80.8125 79.253906 80.769531 79.363281 C 80.730469 79.46875 80.804688 79.539062 80.914062 79.539062 C 82.070312 79.539062 83.242188 79.570312 84.390625 79.738281 C 85.203125 79.855469 86.023438 80.050781 86.746094 80.441406 C 88.144531 81.195312 88.75 82.625 89.015625 84.121094 C 89.234375 85.375 89.265625 86.65625 89.269531 87.929688 C 89.269531 88.015625 89.339844 88.054688 89.429688 88.0625 C 89.449219 88.066406 89.46875 88.0625 89.492188 88.0625 C 89.503906 88.0625 89.511719 88.0625 89.519531 88.0625 C 89.644531 88.042969 89.769531 87.972656 89.769531 87.875 C 89.769531 86.734375 89.800781 85.589844 89.957031 84.457031 C 90.074219 83.636719 90.257812 82.804688 90.636719 82.0625 C 91.347656 80.679688 92.6875 80.058594 94.160156 79.796875 C 95.40625 79.574219 96.683594 79.542969 97.941406 79.542969 C 98.042969 79.542969 98.222656 79.511719 98.265625 79.398438 C 98.304688 79.292969 98.234375 79.226562 98.125 79.226562 Z M 91.992188 80.1875 C 90.535156 80.96875 89.839844 82.390625 89.542969 83.964844 C 89.535156 84.003906 89.53125 84.042969 89.523438 84.082031 C 89.394531 83.308594 89.191406 82.546875 88.816406 81.859375 C 88.046875 80.433594 86.589844 79.78125 85.054688 79.5 C 84.808594 79.457031 84.5625 79.417969 84.316406 79.386719 C 85.273438 79.257812 86.210938 79.019531 87.046875 78.574219 C 88.503906 77.792969 89.195312 76.371094 89.492188 74.796875 C 89.5 74.757812 89.503906 74.71875 89.511719 74.679688 C 89.640625 75.453125 89.847656 76.214844 90.21875 76.902344 C 90.992188 78.328125 92.449219 78.980469 93.984375 79.261719 C 94.226562 79.304688 94.476562 79.34375 94.722656 79.375 C 93.761719 79.503906 92.828125 79.742188 91.992188 80.1875 Z M 91.992188 80.1875 " fill-opacity="1" fill-rule="nonzero"/><g fill="#000000" fill-opacity="1"><g transform="translate(44.549574, 40.404728)"><g><path d="M 16.359375 -8.3125 C 16.359375 -12.160156 14.761719 -14.945312 10.953125 -15.128906 C 6.796875 -15.128906 4.238281 -11.9375 4.195312 -7.433594 C 4.195312 -7.1875 4.402344 -7 4.625 -7 C 4.871094 -7 5.058594 -7.1875 5.058594 -7.433594 C 5.097656 -11.363281 7.226562 -14.269531 10.953125 -14.269531 C 14.207031 -14.105469 15.5 -11.691406 15.5 -8.3125 C 15.5 -4.605469 13.613281 0.53125 10.050781 0.53125 C 8.761719 0.53125 7.511719 -0.0625 7.511719 -1.289062 C 7.511719 -2.066406 8.085938 -2.683594 8.761719 -2.683594 C 9.292969 -2.683594 9.726562 -2.191406 9.949219 -1.617188 C 10.011719 -1.433594 10.175781 -1.332031 10.359375 -1.332031 C 10.644531 -1.332031 10.832031 -1.636719 10.75 -1.902344 C 10.421875 -2.867188 9.726562 -3.542969 8.761719 -3.542969 C 7.636719 -3.542969 6.652344 -2.621094 6.652344 -1.289062 C 6.652344 0.367188 8.105469 1.390625 10.050781 1.390625 C 14.125 1.390625 16.359375 -3.992188 16.359375 -8.3125 Z M 10.257812 -11.914062 C 10.480469 -12.40625 11.035156 -12.9375 11.507812 -13.019531 C 11.667969 -13.0625 11.855469 -13.207031 11.855469 -13.511719 C 11.8125 -13.777344 11.628906 -13.941406 11.34375 -13.878906 C 10.542969 -13.675781 9.886719 -13.101562 9.480469 -12.324219 C 8.90625 -11.199219 8.433594 -9.683594 7.964844 -8.105469 C 7 -4.976562 5.835938 -0.839844 2.96875 -0.839844 C 1.820312 -0.839844 0.859375 -1.515625 0.859375 -2.785156 C 0.859375 -3.972656 1.84375 -5.242188 2.96875 -5.242188 C 3.089844 -5.242188 3.195312 -5.21875 3.296875 -5.199219 C 3.582031 -5.140625 3.847656 -5.34375 3.847656 -5.628906 C 3.847656 -5.8125 3.726562 -5.976562 3.542969 -6.039062 C 3.335938 -6.101562 3.152344 -6.121094 2.949219 -6.121094 C 1.390625 -6.121094 0 -4.523438 0 -2.742188 C 0 -1.066406 1.308594 0.0195312 2.988281 0.0195312 C 6.386719 0.0195312 7.65625 -4.175781 8.78125 -7.863281 C 9.253906 -9.375 9.703125 -10.851562 10.257812 -11.914062 Z M 10.257812 -11.914062 "/></g></g></g><g fill="#000000" fill-opacity="1"><g transform="translate(61.595886, 40.404728)"><g><path d="M 9.152344 -4.320312 C 9.273438 -4.605469 9.050781 -4.914062 8.742188 -4.914062 C 8.578125 -4.914062 8.414062 -4.8125 8.351562 -4.648438 C 7.636719 -2.949219 6.917969 -2.171875 6.058594 -2.171875 C 5.589844 -2.171875 5.242188 -2.3125 5.015625 -2.601562 C 5.957031 -4.195312 6.613281 -6.203125 6.613281 -7.492188 C 6.613281 -8.722656 5.917969 -9.644531 4.566406 -9.683594 C 3.542969 -9.683594 2.539062 -8.96875 1.679688 -7.535156 C 1.003906 -6.429688 -0.0625 -4.441406 -0.0625 -2.066406 C -0.0625 -0.878906 0.390625 0 1.71875 0 C 2.703125 0 3.746094 -0.839844 4.503906 -1.863281 C 4.953125 -1.496094 5.488281 -1.308594 6.058594 -1.308594 C 7.289062 -1.308594 8.25 -2.253906 9.152344 -4.320312 Z M 4.402344 -4.914062 C 4.195312 -4.914062 4.011719 -4.789062 3.972656 -4.585938 C 3.828125 -4.074219 3.789062 -3.171875 4.011719 -2.640625 C 3.335938 -1.679688 2.476562 -0.859375 1.71875 -0.859375 C 1.066406 -0.859375 0.820312 -1.371094 0.820312 -2.109375 C 0.820312 -4.21875 1.902344 -6.203125 2.4375 -7.082031 C 3.03125 -8.105469 3.765625 -8.824219 4.546875 -8.824219 C 5.242188 -8.824219 5.753906 -8.375 5.753906 -7.511719 C 5.753906 -6.570312 5.363281 -5.160156 4.730469 -3.890625 C 4.75 -4.035156 4.75 -4.195312 4.8125 -4.359375 C 4.894531 -4.648438 4.6875 -4.914062 4.402344 -4.914062 Z M 4.402344 -4.914062 "/></g></g></g><g fill="#000000" fill-opacity="1"><g transform="translate(69.597218, 40.404728)"><g><path d="M 7.410156 -4.871094 C 7.1875 -4.953125 6.941406 -4.851562 6.839844 -4.648438 C 5.8125 -2.292969 4.546875 -0.859375 2.558594 -0.859375 C 1.578125 -0.859375 0.921875 -1.636719 0.921875 -2.785156 C 0.921875 -5.242188 3.113281 -8.824219 4.707031 -8.824219 C 5.324219 -8.824219 5.589844 -8.476562 5.589844 -7.757812 C 5.589844 -6.941406 5.097656 -6.59375 5.097656 -6.304688 C 5.097656 -6.039062 5.261719 -5.894531 5.527344 -5.894531 C 6 -5.894531 6.449219 -6.839844 6.449219 -7.757812 C 6.449219 -8.886719 5.875 -9.683594 4.707031 -9.683594 C 2.621094 -9.683594 0.0625 -6 0.0625 -2.804688 C 0.0625 -1.125 1.042969 0 2.539062 0 C 4.914062 0 6.386719 -1.515625 7.636719 -4.300781 C 7.65625 -4.359375 7.675781 -4.402344 7.675781 -4.464844 C 7.675781 -4.625 7.574219 -4.789062 7.410156 -4.871094 Z M 7.410156 -4.871094 "/></g></g></g><g fill="#000000" fill-opacity="1"><g transform="translate(76.084235, 40.404728)"><g><path d="M 7.410156 -4.871094 C 7.1875 -4.953125 6.941406 -4.851562 6.839844 -4.648438 C 5.691406 -2.007812 4.382812 -0.820312 2.703125 -0.859375 C 1.472656 -0.902344 0.820312 -1.617188 0.859375 -2.785156 C 0.878906 -3.214844 0.941406 -3.601562 1.085938 -4.136719 C 3.359375 -4.6875 6.40625 -6 6.40625 -8.167969 C 6.40625 -9.152344 5.691406 -9.683594 4.667969 -9.683594 C 2.253906 -9.683594 0.121094 -5.425781 0 -2.804688 C -0.0390625 -1.125 0.984375 0 2.683594 0 C 4.75 0 6.304688 -1.351562 7.636719 -4.300781 C 7.65625 -4.359375 7.675781 -4.402344 7.675781 -4.464844 C 7.675781 -4.625 7.574219 -4.789062 7.410156 -4.871094 Z M 1.414062 -5.117188 C 2.066406 -6.695312 3.253906 -8.824219 4.667969 -8.824219 C 5.117188 -8.824219 5.546875 -8.722656 5.546875 -8.167969 C 5.546875 -6.652344 3.113281 -5.652344 1.414062 -5.117188 Z M 1.414062 -5.117188 "/></g></g></g><g fill="#000000" fill-opacity="1"><g transform="translate(82.571253, 40.404728)"><g><path d="M 6.757812 -3.625 C 6.734375 -5.015625 6.183594 -5.734375 5.117188 -7.699219 C 5.753906 -8.414062 6.265625 -9.316406 6.265625 -10.132812 C 6.222656 -10.726562 5.875 -11.199219 5.28125 -11.199219 C 4.441406 -11.199219 3.789062 -10.296875 3.789062 -9.234375 C 3.789062 -8.761719 3.910156 -8.3125 4.09375 -7.882812 C 3.847656 -7.636719 3.644531 -7.410156 3.398438 -7.125 C 3.335938 -7.042969 3.296875 -6.941406 3.296875 -6.859375 C 3.296875 -6.734375 3.335938 -6.59375 3.441406 -6.511719 C 3.519531 -6.429688 3.644531 -6.40625 3.746094 -6.40625 C 3.871094 -6.40625 3.992188 -6.46875 4.074219 -6.570312 C 4.195312 -6.734375 4.339844 -6.898438 4.484375 -7.042969 C 5.570312 -5.140625 5.875 -4.546875 5.894531 -3.644531 C 5.855469 -1.945312 4.667969 -0.859375 3.007812 -0.859375 C 1.820312 -0.859375 0.777344 -1.738281 0.777344 -2.988281 C 0.859375 -4.238281 1.597656 -5.179688 2.722656 -5.179688 C 3.253906 -5.179688 3.765625 -4.667969 3.808594 -3.972656 C 3.808594 -3.726562 3.992188 -3.542969 4.238281 -3.542969 C 4.484375 -3.542969 4.667969 -3.726562 4.667969 -3.972656 C 4.625 -5.097656 3.765625 -6.039062 2.703125 -6.039062 C 1.066406 -6.039062 0.0390625 -4.832031 -0.0820312 -2.988281 C -0.0820312 -1.332031 1.308594 0 3.007812 0 C 5.078125 0 6.714844 -1.414062 6.757812 -3.625 Z M 4.75 -8.597656 C 4.6875 -8.824219 4.648438 -9.027344 4.648438 -9.253906 C 4.648438 -9.539062 4.707031 -9.910156 4.953125 -10.15625 C 5.160156 -10.359375 5.382812 -10.421875 5.382812 -10.132812 C 5.382812 -9.683594 5.078125 -9.050781 4.75 -8.597656 Z M 4.75 -8.597656 "/></g></g></g></svg>