<svg xmlns="http://www.w3.org/2000/svg" xmlns:xlink="http://www.w3.org/1999/xlink" width="179" zoomAndPan="magnify" viewBox="0 0 134.25 186.749995" height="249" preserveAspectRatio="xMidYMid meet" version="1.0"><defs><g/><clipPath id="b4991cad86"><path d="M 0 0.394531 L 133.503906 0.394531 L 133.503906 186.105469 L 0 186.105469 Z M 0 0.394531 " clip-rule="nonzero"/></clipPath><clipPath id="842aab0441"><path d="M 0 0.394531 L 6.839844 0.394531 L 6.839844 186.105469 L 0 186.105469 Z M 0 0.394531 " clip-rule="nonzero"/></clipPath><clipPath id="12e7369825"><path d="M 29 67.054688 L 109 67.054688 L 109 151 L 29 151 Z M 29 67.054688 " clip-rule="nonzero"/></clipPath><clipPath id="996aeb88f3"><path d="M 18.734375 119 L 114.832031 119 L 114.832031 165.503906 L 18.734375 165.503906 Z M 18.734375 119 " clip-rule="nonzero"/></clipPath><clipPath id="097f01f2af"><path d="M 101 123 L 114.890625 123 L 114.890625 131 L 101 131 Z M 101 123 " clip-rule="nonzero"/></clipPath></defs><g clip-path="url(#b4991cad86)"><path fill="#ffffff" d="M 0 0.394531 L 133.503906 0.394531 L 133.503906 186.105469 L 0 186.105469 Z M 0 0.394531 " fill-opacity="1" fill-rule="nonzero"/><path fill="#ffffff" d="M 0 0.394531 L 133.503906 0.394531 L 133.503906 186.105469 L 0 186.105469 Z M 0 0.394531 " fill-opacity="1" fill-rule="nonzero"/></g><g clip-path="url(#842aab0441)"><path fill="#33b4ff" d="M 6.839844 218.523438 L 6.839844 -5.011719 L -13.273438 8.484375 L -33.433594 -5.011719 L -33.433594 218.523438 L -13.273438 205.027344 Z M 6.839844 218.523438 " fill-opacity="1" fill-rule="nonzero"/></g><g clip-path="url(#12e7369825)"><path fill="#00adef" d="M 108.550781 108.609375 C 108.550781 131.5625 90.859375 150.167969 69.035156 150.167969 C 47.210938 150.167969 29.519531 131.5625 29.519531 108.609375 C 29.519531 85.660156 47.210938 67.054688 69.035156 67.054688 C 90.859375 67.054688 108.550781 85.660156 108.550781 108.609375 " fill-opacity="1" fill-rule="nonzero"/></g><g clip-path="url(#996aeb88f3)"><path fill="#e4aa65" d="M 114.832031 165.507812 L 114.832031 127.042969 C 102.082031 122.082031 85.40625 119.078125 67.152344 119.078125 C 48.542969 119.078125 31.574219 122.203125 18.734375 127.335938 L 18.734375 165.507812 L 114.832031 165.507812 " fill-opacity="1" fill-rule="nonzero"/></g><path fill="#b5d9e8" d="M 75.492188 100.855469 C 75.464844 100.789062 75.433594 100.722656 75.410156 100.652344 C 73.816406 96.511719 71.4375 86.542969 76.691406 83.953125 C 70.457031 77.179688 51.917969 74.632812 46.34375 83.539062 C 50.300781 85.101562 55.605469 88.804688 58.445312 91.894531 C 61.769531 95.507812 60.640625 98.496094 58.238281 101.199219 C 63.742188 99.632812 69.851562 99.390625 75.492188 100.855469 " fill-opacity="1" fill-rule="nonzero"/><path fill="#ffffff" d="M 82.011719 111.886719 C 79.910156 108.097656 77.117188 104.953125 75.492188 100.855469 C 69.851562 99.390625 63.742188 99.632812 58.238281 101.199219 C 57.175781 102.390625 55.867188 103.527344 54.585938 104.640625 C 49.949219 108.648438 46.285156 115.386719 46.34375 121.703125 C 46.390625 126.742188 48.976562 129.734375 52.71875 132.460938 C 55.554688 134.527344 56.695312 135.363281 56.371094 139.160156 L 53.324219 138.589844 C 53.707031 139.34375 54.277344 139.21875 54.304688 140.269531 C 62.660156 142.777344 69.105469 142.738281 76.585938 140.042969 C 75.136719 137.484375 74.484375 134.511719 76.90625 132.90625 C 77.382812 132.585938 81.613281 127.695312 83.03125 124.140625 C 84.546875 120.335938 83.9375 115.371094 82.011719 111.886719 " fill-opacity="1" fill-rule="nonzero"/><path fill="#c9dbe2" d="M 49.710938 123.753906 C 49.734375 124.132812 49.785156 124.507812 49.855469 124.875 C 49.796875 124.5 49.75 124.128906 49.710938 123.753906 Z M 79.367188 123.53125 C 79.253906 124.132812 79.105469 124.730469 78.914062 125.316406 C 77.171875 130.785156 73.316406 133.109375 73.105469 133.238281 C 71.585938 133.796875 70.183594 134.042969 68.964844 134.042969 C 68.433594 134.042969 67.9375 133.996094 67.480469 133.910156 C 67.882812 134.164062 68.257812 134.425781 68.613281 134.699219 C 73.554688 133.882812 77.628906 131.292969 79.597656 127.855469 C 79.621094 127.308594 79.621094 126.773438 79.605469 126.257812 C 79.570312 125.335938 79.484375 124.414062 79.367188 123.53125 Z M 53.070312 123.160156 C 53.480469 125.972656 54.59375 128.632812 56.515625 130.121094 C 59.664062 130.640625 62.476562 131.457031 64.808594 132.492188 C 63.953125 131.441406 63.972656 129.964844 65.230469 128.449219 C 60.148438 128.242188 55.710938 126.1875 53.070312 123.160156 " fill-opacity="1" fill-rule="nonzero"/><path fill="#ae612c" d="M 70.539062 145.4375 C 70.539062 150.761719 60.421875 155.109375 47.226562 155.109375 C 34.03125 155.109375 24.070312 150.621094 24.070312 145.296875 C 24.070312 139.96875 34.03125 135.820312 47.226562 135.820312 C 60.421875 135.820312 70.539062 140.109375 70.539062 145.4375 " fill-opacity="1" fill-rule="nonzero"/><path fill="#ae612c" d="M 77.382812 141.40625 C 77.382812 144.5 73.015625 147.023438 67.320312 147.023438 C 61.628906 147.023438 57.328125 144.417969 57.328125 141.324219 C 57.328125 138.230469 61.628906 135.820312 67.320312 135.820312 C 73.015625 135.820312 77.382812 138.3125 77.382812 141.40625 " fill-opacity="1" fill-rule="nonzero"/><path fill="#ae612c" d="M 105.230469 140.613281 C 105.230469 143.707031 99.027344 146.230469 90.941406 146.230469 C 82.851562 146.230469 76.746094 143.625 76.746094 140.53125 C 76.746094 137.4375 82.851562 135.027344 90.941406 135.027344 C 99.027344 135.027344 105.230469 137.519531 105.230469 140.613281 " fill-opacity="1" fill-rule="nonzero"/><path fill="#ae612c" d="M 107.777344 154.25 C 107.777344 157.34375 100.328125 159.867188 90.613281 159.867188 C 80.894531 159.867188 73.5625 157.261719 73.5625 154.167969 C 73.5625 151.074219 80.894531 148.664062 90.613281 148.664062 C 100.328125 148.664062 107.777344 151.15625 107.777344 154.25 " fill-opacity="1" fill-rule="nonzero"/><path fill="#b5d9e8" d="M 74.347656 96.210938 C 66.929688 93.046875 75.613281 84.320312 80.464844 84.113281 C 86.0625 83.871094 92.933594 88.03125 90.683594 94.222656 C 88.925781 99.050781 83.863281 101.460938 83.148438 106.890625 C 82.726562 110.101562 88.191406 121.8125 89.535156 115.265625 C 91.746094 116.933594 92.402344 120.28125 89.152344 120.980469 C 86.191406 121.613281 82.5 117.234375 81.339844 115.011719 C 79.238281 110.996094 79.832031 105.914062 81.257812 101.777344 C 82.269531 98.835938 85.707031 95.527344 85.917969 92.460938 C 86.226562 88 83.035156 88.132812 80.875 90.6875 C 79.105469 92.78125 78.25 97.875 74.347656 96.210938 " fill-opacity="1" fill-rule="nonzero"/><path fill="#86b5c8" d="M 59.65625 87.5625 C 59.476562 88.078125 59.246094 88.5625 59.015625 89.046875 C 61.648438 91.925781 64.035156 95.871094 60.902344 98.800781 C 60.367188 99.515625 59.800781 100.222656 59.226562 100.933594 C 60.28125 100.667969 61.359375 100.445312 62.449219 100.28125 C 62.597656 100.0625 62.746094 99.84375 62.894531 99.621094 C 63.4375 98.714844 64.105469 97.714844 64.28125 96.34375 C 64.433594 95.046875 64.097656 93.839844 63.636719 92.796875 C 62.667969 90.703125 61.265625 89.070312 59.65625 87.5625 " fill-opacity="1" fill-rule="nonzero"/><path fill="#bdd3dc" d="M 49.855469 124.875 C 50.109375 126.476562 50.570312 128.074219 51.339844 129.5625 C 51.636719 129.578125 51.933594 129.597656 52.230469 129.617188 C 51.019531 128.214844 50.191406 126.605469 49.855469 124.875 Z M 62.449219 100.28125 C 61.359375 100.445312 60.28125 100.667969 59.226562 100.933594 C 57.238281 103.375 55.09375 105.832031 53.382812 108.664062 C 51.113281 112.285156 49.683594 116.597656 49.597656 120.996094 C 49.585938 121.894531 49.617188 122.820312 49.710938 123.753906 C 49.699219 123.554688 49.691406 123.355469 49.691406 123.152344 C 49.691406 121.636719 50.074219 120.1875 50.761719 118.851562 C 51.152344 120.417969 51.949219 121.878906 53.070312 123.160156 C 52.960938 122.402344 52.898438 121.628906 52.890625 120.871094 C 52.828125 117.023438 53.890625 113.203125 55.855469 109.773438 C 56.996094 107.699219 58.414062 105.789062 59.875 103.828125 C 58.835938 103.988281 57.859375 104.21875 56.972656 104.503906 C 57.660156 103.367188 59.234375 102.441406 61.261719 101.957031 C 61.660156 101.40625 62.058594 100.847656 62.449219 100.28125 " fill-opacity="1" fill-rule="nonzero"/><path fill="#96b6c4" d="M 50.761719 118.851562 C 50.074219 120.1875 49.691406 121.636719 49.691406 123.152344 C 49.691406 123.355469 49.699219 123.554688 49.710938 123.753906 C 49.75 124.128906 49.796875 124.5 49.855469 124.875 C 50.191406 126.605469 51.019531 128.214844 52.230469 129.617188 C 53.714844 129.726562 55.148438 129.898438 56.515625 130.121094 C 54.59375 128.632812 53.480469 125.972656 53.070312 123.160156 C 51.949219 121.878906 51.152344 120.417969 50.761719 118.851562 " fill-opacity="1" fill-rule="nonzero"/><path fill="#ffffff" d="M 105.390625 147.492188 C 105.390625 151.476562 98.613281 157 89.410156 157 C 80.207031 157 73.199219 150.5 72.765625 146.542969 C 71.769531 137.386719 105.390625 136.460938 105.390625 147.492188 " fill-opacity="1" fill-rule="nonzero"/><path fill="#ffffff" d="M 71.972656 140.359375 C 71.972656 146.386719 61.714844 151.304688 48.339844 151.304688 C 34.960938 151.304688 24.867188 146.226562 24.867188 140.199219 C 24.867188 134.171875 34.960938 129.476562 48.339844 129.476562 C 61.714844 129.476562 71.972656 134.332031 71.972656 140.359375 " fill-opacity="1" fill-rule="nonzero"/><path fill="#b0bcc2" d="M 48.734375 138.179688 C 55.886719 138.179688 58.101562 138.25 67.03125 141.945312 C 68.925781 139.167969 58.644531 134.492188 49.304688 134.492188 C 39.953125 134.492188 31.757812 137.707031 31.757812 140.726562 C 31.757812 140.785156 31.761719 140.847656 31.769531 140.90625 C 35.457031 139.261719 41.675781 138.179688 48.734375 138.179688 " fill-opacity="1" fill-rule="nonzero"/><path fill="#8ca7b3" d="M 102.203125 134.519531 C 94.632812 137.496094 86.167969 138.316406 78.523438 135.464844 C 78.09375 137.429688 77.699219 138.78125 77.699219 138.78125 C 77.699219 138.78125 81.507812 141.628906 90.457031 142.386719 C 99.410156 143.144531 103.597656 139.730469 103.027344 138.589844 C 102.703125 137.941406 102.4375 136.679688 102.203125 134.519531 " fill-opacity="1" fill-rule="nonzero"/><path fill="#c4ecfb" d="M 102.203125 134.519531 C 101.984375 132.527344 101.835938 130.402344 101.695312 127.964844 C 101.3125 121.511719 103.597656 117.148438 103.597656 117.148438 C 103.597656 117.148438 103.980469 114.113281 94.457031 111.644531 C 84.9375 109.179688 77.507812 115.820312 77.507812 115.820312 C 77.507812 115.820312 79.414062 120.945312 79.605469 126.257812 C 79.710938 129.269531 79.085938 132.890625 78.523438 135.464844 C 86.167969 138.316406 94.632812 137.496094 102.203125 134.519531 " fill-opacity="1" fill-rule="nonzero"/><path fill="#fcc907" d="M 36.566406 145.042969 C 36.960938 139.703125 34.371094 131.527344 30.730469 127.585938 C 37.066406 123.632812 45.398438 123.542969 51.742188 119.824219 C 55.15625 124.277344 58.117188 128.019531 63.21875 131.003906 C 62.234375 134.785156 61.253906 140.691406 61.675781 144.625 C 53.320312 146.414062 43.988281 141.960938 36.183594 145.234375 L 36.566406 145.042969 " fill-opacity="1" fill-rule="nonzero"/><path fill="#6999c8" d="M 81.214844 113.425781 C 82.214844 115.894531 82.832031 118.605469 82.792969 121.410156 C 82.796875 124.375 81.792969 127.421875 79.875 129.789062 L 80 131.332031 C 82.503906 128.625 83.785156 124.921875 83.703125 121.464844 C 83.691406 118.480469 82.980469 115.664062 81.886719 113.121094 L 81.214844 113.425781 " fill-opacity="1" fill-rule="nonzero"/><path fill="#ae612c" d="M 58.445312 161.449219 C 58.445312 161.449219 68.308594 155.738281 75.789062 155.582031 C 83.269531 155.421875 78.972656 157.484375 78.972656 157.484375 C 78.972656 157.484375 72.128906 157.359375 58.445312 161.449219 " fill-opacity="1" fill-rule="nonzero"/><path fill="#ffffff" d="M 79.824219 135.261719 C 79.824219 135.261719 81.0625 127.238281 80.972656 125.914062 C 80.886719 124.59375 81.0625 125.652344 81.0625 125.652344 C 81.0625 125.652344 80.265625 124.945312 86.8125 123.800781 C 93.359375 122.652344 96.722656 124.0625 98.402344 124.417969 C 100.085938 124.769531 100.792969 125.5625 101.144531 126.710938 C 101.5 127.855469 101.324219 129.882812 101.324219 129.882812 L 101.5 134.644531 C 101.5 134.644531 101.414062 135.613281 99.996094 136.320312 C 98.582031 137.023438 88.050781 138.082031 83.804688 137.023438 C 79.558594 135.964844 79.734375 135.703125 79.734375 135.703125 L 79.824219 135.261719 " fill-opacity="1" fill-rule="nonzero"/><path fill="#e5eff3" d="M 85.078125 129.203125 C 85 131.445312 84.585938 133.808594 83.488281 135.757812 C 83.316406 136.0625 87.511719 137.472656 91.128906 137.226562 C 94.609375 136.988281 97.515625 135.097656 97.480469 135.046875 C 97.214844 134.640625 96.839844 132.320312 96.734375 129.492188 C 92.996094 130.683594 88.863281 130.265625 85.078125 129.203125 " fill-opacity="1" fill-rule="nonzero"/><path fill="#a7a5a6" d="M 99.796875 148.15625 C 99.796875 148.15625 101.082031 145.671875 100.867188 145.03125 C 100.652344 144.394531 101.363281 144.890625 101.363281 144.890625 C 101.363281 144.890625 103.289062 145.8125 102.789062 146.878906 C 102.289062 147.941406 101.792969 148.652344 100.652344 149.21875 C 99.511719 149.789062 99.511719 149.789062 99.511719 149.789062 L 99.796875 148.15625 " fill-opacity="1" fill-rule="nonzero"/><path fill="#faba14" d="M 62.835938 131.824219 L 56.109375 133.054688 L 55.730469 133.15625 L 57.132812 145.375 L 62.480469 144.339844 L 62.835938 131.824219 " fill-opacity="1" fill-rule="nonzero"/><path fill="#f8a517" d="M 53.457031 133.761719 C 53.457031 133.761719 51.597656 133.234375 51.15625 132.878906 C 50.714844 132.527344 45.757812 129.707031 41.335938 128.558594 C 36.910156 127.414062 31.78125 128.03125 31.78125 128.03125 C 31.78125 128.03125 30.097656 127.679688 30.894531 128.472656 C 31.691406 129.265625 35.582031 138.347656 35.582031 138.347656 L 37.085938 145.578125 L 39.125 146.632812 C 39.125 146.632812 47.972656 145.136719 50.269531 145.136719 C 52.570312 145.136719 56.554688 145.488281 56.554688 145.488281 L 57.132812 145.375 L 55.730469 133.15625 L 53.457031 133.761719 " fill-opacity="1" fill-rule="nonzero"/><path fill="#c55c13" d="M 40.199219 132.054688 C 40.199219 133.027344 39.285156 133.816406 38.164062 133.816406 C 37.039062 133.816406 36.128906 133.027344 36.128906 132.054688 C 36.128906 131.078125 37.039062 130.289062 38.164062 130.289062 C 39.285156 130.289062 40.199219 131.078125 40.199219 132.054688 " fill-opacity="1" fill-rule="nonzero"/><path fill="#c55c13" d="M 49.058594 135.699219 C 49.058594 136.71875 48.027344 137.550781 46.757812 137.550781 C 45.488281 137.550781 44.457031 136.71875 44.457031 135.699219 C 44.457031 134.675781 45.488281 133.847656 46.757812 133.847656 C 48.027344 133.847656 49.058594 134.675781 49.058594 135.699219 " fill-opacity="1" fill-rule="nonzero"/><path fill="#c55c13" d="M 53.648438 139.941406 C 53.648438 140.914062 52.636719 141.703125 51.390625 141.703125 C 50.144531 141.703125 49.132812 140.914062 49.132812 139.941406 C 49.132812 138.96875 50.144531 138.175781 51.390625 138.175781 C 52.636719 138.175781 53.648438 138.96875 53.648438 139.941406 " fill-opacity="1" fill-rule="nonzero"/><path fill="#c55c13" d="M 46.351562 140.960938 C 46.351562 141.910156 45.304688 142.683594 44.007812 142.683594 C 42.710938 142.683594 41.664062 141.910156 41.664062 140.960938 C 41.664062 140.011719 42.710938 139.242188 44.007812 139.242188 C 45.304688 139.242188 46.351562 140.011719 46.351562 140.960938 " fill-opacity="1" fill-rule="nonzero"/><path fill="#c55c13" d="M 41.929688 137.257812 C 41.929688 138.160156 41.175781 138.890625 40.246094 138.890625 C 39.320312 138.890625 38.566406 138.160156 38.566406 137.257812 C 38.566406 136.359375 39.320312 135.628906 40.246094 135.628906 C 41.175781 135.628906 41.929688 136.359375 41.929688 137.257812 " fill-opacity="1" fill-rule="nonzero"/><path fill="#ffffff" d="M 101.617188 138.652344 C 97.871094 140.929688 94.121094 140.769531 90.414062 140.703125 C 86.71875 140.503906 83.101562 139.820312 79.554688 138.949219 L 79.960938 138.265625 C 83.476562 138.929688 87.039062 139.375 90.578125 139.359375 C 93.988281 139.335938 97.914062 138.886719 100.328125 137.199219 L 101.617188 138.652344 " fill-opacity="1" fill-rule="nonzero"/><path fill="#ffffff" d="M 77.503906 150.285156 C 73.796875 140.417969 81.53125 142.632812 81.632812 142.761719 C 80.066406 138.855469 84.628906 137.566406 86.800781 139.519531 C 85.835938 136.796875 87.902344 136.441406 88.148438 137.613281 C 86.53125 133.035156 94.664062 136.699219 93.914062 132.15625 C 95.59375 133.625 95.484375 136.683594 93.382812 137.789062 C 97.144531 138.984375 101.609375 143.296875 98.828125 147.449219 C 96 151.667969 88.433594 149.652344 84.316406 149.46875 C 81.894531 149.359375 79.527344 149.433594 77.128906 149.789062 L 77.503906 150.285156 " fill-opacity="1" fill-rule="nonzero"/><path fill="#bbbaba" d="M 83.046875 142.441406 C 82.84375 142.507812 85.464844 144.707031 89.042969 145.304688 C 90.765625 145.671875 92.574219 145.792969 94.066406 145.511719 C 95.574219 145.347656 96.777344 144.066406 96.730469 143.941406 C 97.148438 143.164062 96.445312 142.460938 95.667969 142.546875 C 94.867188 142.625 94.214844 142.617188 94.222656 142.554688 C 94.234375 142.492188 94.335938 142.75 93.324219 143.210938 C 92.371094 143.617188 90.753906 143.886719 89.148438 143.878906 C 85.816406 144.027344 82.898438 142.550781 83.046875 142.441406 " fill-opacity="1" fill-rule="nonzero"/><path fill="#bbbaba" d="M 93.089844 138.84375 C 93.183594 138.835938 91.578125 140.855469 89.511719 140.628906 C 87.269531 140.445312 87.605469 138.582031 87.628906 138.667969 C 87.617188 138.511719 87.128906 138.375 86.550781 138.359375 C 85.96875 138.347656 85.511719 138.601562 85.542969 138.933594 C 85.566406 138.929688 85.578125 139.667969 86.257812 140.5625 C 86.953125 141.488281 88.441406 141.945312 89.632812 141.671875 C 92.207031 141.207031 93.148438 138.773438 93.089844 138.84375 " fill-opacity="1" fill-rule="nonzero"/><path fill="#bbbaba" d="M 80.886719 146.925781 C 80.902344 146.902344 81.367188 147.886719 82.78125 148.960938 C 84.164062 150.050781 86.398438 151.125 88.84375 151.699219 C 91.28125 152.273438 93.933594 152.410156 96.128906 151.640625 C 98.449219 150.980469 99.585938 148.660156 99.511719 148.660156 C 99.828125 147.640625 98.785156 146.882812 97.589844 146.949219 C 96.367188 147.011719 95.375 147.191406 95.34375 147.265625 C 95.265625 147.257812 95.546875 147.597656 94.476562 148.332031 C 93.425781 149.035156 91.230469 149.546875 89.035156 149.519531 C 86.828125 149.515625 84.597656 149.039062 83.113281 148.363281 C 81.597656 147.710938 80.898438 146.90625 80.886719 146.925781 " fill-opacity="1" fill-rule="nonzero"/><path fill="#bbbaba" d="M 94.742188 134.3125 C 94.863281 134.847656 95.003906 135.546875 94.695312 136.300781 C 94.425781 137.058594 93.613281 137.726562 92.714844 137.886719 C 90.929688 138.179688 89.347656 137.449219 88.6875 136.515625 C 89.679688 136.960938 91.136719 137.175781 92.519531 136.953125 C 93.921875 136.734375 94.503906 135.429688 94.742188 134.3125 " fill-opacity="1" fill-rule="nonzero"/><path fill="#bbbaba" d="M 90.105469 123.941406 C 88.125 123.941406 86.289062 124.15625 84.765625 124.523438 C 84.78125 124.910156 84.792969 125.316406 84.804688 125.734375 C 86.113281 125.605469 87.5 125.535156 88.9375 125.535156 C 93.222656 125.535156 97.054688 126.144531 99.632812 127.101562 C 99.257812 125.332031 95.136719 123.941406 90.105469 123.941406 " fill-opacity="1" fill-rule="nonzero"/><path fill="#90abb8" d="M 81.679688 114.675781 C 81.039062 114.976562 80.539062 115.320312 80.207031 115.691406 C 80.234375 115.683594 80.261719 115.675781 80.292969 115.671875 C 80.597656 115.367188 81.089844 115.082031 81.730469 114.824219 C 81.714844 114.773438 81.699219 114.726562 81.679688 114.675781 Z M 89.308594 113.316406 C 86.582031 113.316406 84.125 113.722656 82.386719 114.378906 C 82.410156 114.441406 82.429688 114.503906 82.453125 114.570312 C 84.410156 113.953125 87.328125 113.558594 90.589844 113.558594 C 91.617188 113.558594 92.605469 113.597656 93.546875 113.671875 C 92.269531 113.445312 90.828125 113.316406 89.308594 113.316406 " fill-opacity="1" fill-rule="nonzero"/><path fill="#4d6f92" d="M 82.386719 114.378906 C 82.136719 114.472656 81.898438 114.570312 81.679688 114.675781 C 81.699219 114.726562 81.714844 114.773438 81.730469 114.824219 C 81.953125 114.738281 82.195312 114.648438 82.453125 114.570312 C 82.429688 114.503906 82.410156 114.441406 82.386719 114.378906 " fill-opacity="1" fill-rule="nonzero"/><path fill="#c0ced4" d="M 64.53125 101.582031 C 63.367188 101.582031 62.257812 101.714844 61.261719 101.957031 C 60.800781 102.585938 60.335938 103.210938 59.875 103.828125 C 61.035156 103.644531 62.277344 103.546875 63.566406 103.546875 C 66.414062 103.546875 69.023438 104.027344 71.046875 104.820312 C 70.863281 104.214844 70.675781 103.609375 70.492188 103.011719 C 69.039062 102.132812 66.90625 101.582031 64.53125 101.582031 " fill-opacity="1" fill-rule="nonzero"/><path fill="#8fabb8" d="M 61.261719 101.957031 C 59.234375 102.441406 57.660156 103.367188 56.972656 104.503906 C 57.859375 104.21875 58.835938 103.988281 59.875 103.828125 C 60.335938 103.210938 60.800781 102.585938 61.261719 101.957031 " fill-opacity="1" fill-rule="nonzero"/><path fill="#854f26" d="M 63.53125 148.789062 C 59.46875 150.359375 54.203125 151.304688 48.339844 151.304688 C 48.277344 151.304688 48.210938 151.304688 48.148438 151.304688 C 48.320312 151.320312 48.492188 151.332031 48.664062 151.34375 C 49.695312 151.414062 50.703125 151.449219 51.683594 151.449219 C 57.042969 151.449219 61.5 150.417969 63.53125 148.789062 " fill-opacity="1" fill-rule="nonzero"/><path fill="#c0ced4" d="M 34.023438 146.453125 C 35.84375 148.773438 41.402344 150.757812 48.148438 151.304688 C 48.210938 151.304688 48.277344 151.304688 48.339844 151.304688 C 54.203125 151.304688 59.46875 150.359375 63.53125 148.789062 C 64.097656 148.332031 64.476562 147.828125 64.632812 147.289062 C 61.355469 148.242188 56.921875 148.792969 51.917969 148.792969 C 50.3125 148.792969 48.644531 148.734375 46.9375 148.617188 C 42.113281 148.285156 37.667969 147.507812 34.023438 146.453125 " fill-opacity="1" fill-rule="nonzero"/><path fill="#c0ced4" d="M 103.285156 149.605469 C 99.953125 151.335938 94.984375 152.464844 89.417969 152.515625 C 89.289062 152.515625 89.164062 152.515625 89.035156 152.515625 C 85.351562 152.515625 81.933594 152.039062 79.085938 151.222656 C 80.691406 153.625 85.289062 155.339844 90.722656 155.339844 C 90.800781 155.339844 90.875 155.339844 90.953125 155.339844 C 97.496094 155.28125 102.832031 152.753906 103.285156 149.605469 " fill-opacity="1" fill-rule="nonzero"/><path fill="#a7a5a6" d="M 77.644531 149.929688 C 75.890625 150.527344 74.226562 152.699219 72.835938 153.859375 C 70 156.230469 66.785156 158.046875 63.398438 159.582031 C 61.089844 160.628906 56.910156 162.78125 54.511719 160.996094 C 52.324219 159.371094 54.675781 157.242188 56.304688 156.378906 C 61.40625 153.671875 67.617188 155.203125 71.566406 150.441406 C 73.4375 148.1875 76.699219 144.796875 79.964844 145.75 C 81.390625 146.164062 84.007812 147.636719 83.128906 149.148438 C 82.175781 150.792969 79.113281 149.429688 77.644531 149.929688 " fill-opacity="1" fill-rule="nonzero"/><path fill="#ffffff" d="M 79.496094 147.695312 C 79.496094 147.242188 78.765625 146.878906 77.859375 146.878906 C 76.953125 146.878906 76.21875 147.242188 76.21875 147.695312 C 76.21875 148.144531 76.953125 148.507812 77.859375 148.507812 C 78.765625 148.507812 79.496094 148.144531 79.496094 147.695312 " fill-opacity="1" fill-rule="nonzero"/><path fill="#ffffff" d="M 61.5625 159.441406 C 66.738281 157.367188 72.164062 155.027344 75.980469 150.667969 C 73.144531 153.410156 69.648438 155.183594 66.074219 156.492188 C 64.28125 157.136719 62.449219 157.757812 60.644531 158.273438 C 59.738281 158.507812 58.824219 158.703125 57.941406 158.757812 C 57.152344 158.941406 56.011719 158.386719 56.269531 158.539062 C 55.96875 158.328125 56.351562 158.9375 56.769531 159.046875 C 57.207031 159.246094 57.734375 159.351562 58.265625 159.425781 C 59.34375 159.5625 60.457031 159.523438 61.5625 159.441406 " fill-opacity="1" fill-rule="nonzero"/><path fill="#ffffff" d="M 80.878906 104.464844 C 81.867188 101.679688 83.707031 99.378906 85.496094 97.253906 C 87.402344 95.304688 88.378906 92.472656 87.390625 89.992188 C 86.238281 87.605469 82.839844 86.996094 80.304688 87.441406 C 77.511719 88.195312 76.640625 91.550781 76.746094 94.214844 C 76.546875 91.578125 77.214844 88.09375 80.210938 87.117188 C 81.625 86.71875 83.089844 86.863281 84.484375 87.179688 C 85.875 87.503906 87.300781 88.304688 87.996094 89.691406 C 89.316406 92.46875 88.15625 95.804688 86.292969 97.878906 C 84.574219 100.085938 82.953125 102.332031 82.160156 104.890625 L 80.878906 104.464844 " fill-opacity="1" fill-rule="nonzero"/><path fill="#488ab8" d="M 74.054688 95.816406 C 73.34375 93.382812 73.527344 90.886719 74.773438 88.753906 C 75.964844 86.652344 78.273438 85.28125 80.523438 85.089844 C 82.761719 84.789062 85.164062 85.425781 86.765625 86.996094 C 88.367188 88.59375 88.839844 90.882812 88.679688 92.945312 C 88.621094 90.863281 87.878906 88.742188 86.3125 87.496094 C 84.753906 86.265625 82.621094 85.957031 80.753906 86.417969 C 76.714844 87.113281 75.085938 91.671875 76.570312 94.832031 L 74.054688 95.816406 " fill-opacity="1" fill-rule="nonzero"/><path fill="#488ab8" d="M 70.972656 79.175781 C 69.007812 82.269531 63.453125 84.296875 57.09375 83.9375 C 56.058594 83.878906 55.054688 83.757812 54.09375 83.589844 C 55.683594 84.429688 57.621094 85.15625 59.777344 85.664062 C 66.238281 87.183594 72.21875 86.1875 73.136719 83.433594 C 73.589844 82.082031 72.730469 80.554688 70.972656 79.175781 " fill-opacity="1" fill-rule="nonzero"/><path fill="#ffffff" d="M 49.003906 81.578125 C 51.597656 79.011719 55.203125 78.222656 58.382812 78.296875 C 61.621094 78.359375 64.710938 79.125 67.675781 80.101562 C 64.601562 79.554688 61.460938 79.261719 58.453125 79.640625 C 55.464844 80 52.621094 81.203125 51.015625 83.378906 L 49.003906 81.578125 " fill-opacity="1" fill-rule="nonzero"/><path fill="#0095d1" d="M 69.613281 99.9375 C 70.5625 99.992188 71.507812 100.089844 72.445312 100.234375 C 71.507812 100.089844 70.5625 99.992188 69.613281 99.9375 " fill-opacity="1" fill-rule="nonzero"/><path fill="#86b5c8" d="M 70.640625 88.4375 C 70.613281 88.4375 69.070312 90.554688 68.925781 94.484375 C 68.796875 96.121094 69.109375 97.96875 69.613281 99.9375 C 70.5625 99.992188 71.507812 100.089844 72.445312 100.234375 C 71.335938 98.0625 70.476562 96.101562 70.265625 94.359375 C 69.660156 90.902344 70.601562 88.542969 70.640625 88.441406 L 70.640625 88.4375 " fill-opacity="1" fill-rule="nonzero"/><path fill="#bdd3dc" d="M 69.613281 99.9375 C 69.871094 100.933594 70.171875 101.964844 70.492188 103.011719 C 71.597656 103.679688 72.3125 104.53125 72.449219 105.472656 C 72.019531 105.238281 71.554688 105.019531 71.046875 104.820312 C 71.515625 106.34375 71.976562 107.890625 72.339844 109.429688 C 73.78125 114.773438 73.796875 120.273438 72.085938 122.835938 C 71.304688 124.136719 68.742188 125.828125 68.734375 125.839844 C 67.105469 126.675781 65.960938 127.570312 65.230469 128.449219 C 65.511719 128.460938 65.796875 128.464844 66.082031 128.464844 C 71.644531 128.464844 76.523438 126.257812 79.285156 122.9375 C 78.6875 118.996094 77.507812 115.820312 77.507812 115.820312 C 77.507812 115.820312 77.996094 115.382812 78.882812 114.777344 C 78.277344 112.355469 77.367188 110.007812 76.359375 107.886719 C 75.089844 105.097656 73.628906 102.542969 72.445312 100.234375 C 71.507812 100.089844 70.5625 99.992188 69.613281 99.9375 " fill-opacity="1" fill-rule="nonzero"/><path fill="#96b6c4" d="M 79.285156 122.9375 C 76.523438 126.257812 71.644531 128.464844 66.082031 128.464844 C 65.796875 128.464844 65.511719 128.460938 65.230469 128.449219 C 63.972656 129.964844 63.953125 131.441406 64.808594 132.492188 C 65.789062 132.929688 66.679688 133.402344 67.480469 133.910156 C 67.9375 133.996094 68.433594 134.042969 68.964844 134.042969 C 70.183594 134.042969 71.585938 133.796875 73.105469 133.238281 C 73.316406 133.109375 77.171875 130.785156 78.914062 125.316406 C 79.105469 124.730469 79.253906 124.132812 79.367188 123.53125 C 79.34375 123.332031 79.3125 123.132812 79.285156 122.9375 " fill-opacity="1" fill-rule="nonzero"/><path fill="#bdd3dc" d="M 64.808594 132.492188 C 65.363281 133.175781 66.285156 133.679688 67.480469 133.910156 C 66.679688 133.402344 65.789062 132.929688 64.808594 132.492188 " fill-opacity="1" fill-rule="nonzero"/><path fill="#92c5d9" d="M 78.882812 114.777344 C 77.996094 115.382812 77.507812 115.820312 77.507812 115.820312 C 77.507812 115.820312 78.6875 118.996094 79.285156 122.9375 C 79.3125 123.132812 79.34375 123.332031 79.367188 123.53125 C 79.625 122.152344 79.691406 120.730469 79.605469 119.304688 C 79.554688 119.128906 79.503906 118.960938 79.449219 118.792969 C 79.160156 117.90625 79.203125 117.539062 79.421875 117.484375 C 79.289062 116.578125 79.109375 115.671875 78.882812 114.777344 " fill-opacity="1" fill-rule="nonzero"/><path fill="#8fabb8" d="M 70.492188 103.011719 C 70.675781 103.609375 70.863281 104.214844 71.046875 104.820312 C 71.554688 105.019531 72.019531 105.238281 72.449219 105.472656 C 72.3125 104.53125 71.597656 103.679688 70.492188 103.011719 " fill-opacity="1" fill-rule="nonzero"/><path fill="#8ca7b3" d="M 70.222656 135.917969 L 75.3125 134.175781 L 75.472656 139.089844 L 71.972656 140.042969 L 70.222656 135.917969 " fill-opacity="1" fill-rule="nonzero"/><path fill="#ffffff" d="M 61.675781 104.378906 C 61.617188 104.355469 64.511719 101.636719 65.914062 97.757812 C 66.636719 95.847656 66.835938 93.667969 66.570312 92.015625 C 66.328125 90.359375 65.742188 89.269531 65.730469 89.242188 C 65.4375 88.75 64.59375 88.753906 64.015625 89.296875 C 63.4375 89.839844 63.09375 90.417969 63.285156 90.734375 C 63.328125 90.628906 65.300781 93.671875 64.515625 97.429688 C 63.9375 101.101562 61.621094 104.386719 61.675781 104.378906 " fill-opacity="1" fill-rule="nonzero"/><path fill="#7ac3e0" d="M 81.90625 115.375 C 81.34375 115.460938 80.804688 115.5625 80.292969 115.671875 C 80.054688 115.90625 79.925781 116.15625 79.925781 116.414062 C 79.925781 117.132812 80.925781 117.792969 82.574219 118.296875 C 82.421875 117.300781 82.195312 116.324219 81.90625 115.375 Z M 93.546875 113.671875 C 96.492188 114.191406 98.578125 115.242188 98.835938 116.476562 C 96.257812 115.519531 92.425781 114.910156 88.144531 114.910156 C 86.207031 114.910156 84.363281 115.035156 82.6875 115.257812 C 83.027344 116.316406 83.292969 117.410156 83.46875 118.539062 C 85.355469 118.992188 87.851562 119.269531 90.589844 119.269531 C 96.480469 119.269531 101.253906 117.988281 101.253906 116.414062 C 101.253906 115.113281 97.996094 114.011719 93.546875 113.671875 " fill-opacity="1" fill-rule="nonzero"/><path fill="#4484b4" d="M 82.6875 115.257812 C 82.421875 115.296875 82.160156 115.332031 81.90625 115.375 C 82.195312 116.324219 82.421875 117.300781 82.574219 118.296875 C 82.855469 118.378906 83.152344 118.460938 83.46875 118.539062 C 83.292969 117.410156 83.027344 116.316406 82.6875 115.257812 " fill-opacity="1" fill-rule="nonzero"/><path fill="#5a8ea5" d="M 81.730469 114.824219 C 81.089844 115.082031 80.597656 115.367188 80.292969 115.671875 C 80.804688 115.5625 81.34375 115.460938 81.90625 115.375 C 81.847656 115.191406 81.789062 115.007812 81.730469 114.824219 Z M 90.589844 113.558594 C 87.328125 113.558594 84.410156 113.953125 82.453125 114.570312 C 82.535156 114.796875 82.613281 115.027344 82.6875 115.257812 C 84.363281 115.035156 86.207031 114.910156 88.144531 114.910156 C 92.425781 114.910156 96.257812 115.519531 98.835938 116.476562 C 98.578125 115.242188 96.492188 114.191406 93.546875 113.671875 C 92.605469 113.597656 91.617188 113.558594 90.589844 113.558594 " fill-opacity="1" fill-rule="nonzero"/><path fill="#326085" d="M 82.453125 114.570312 C 82.195312 114.648438 81.953125 114.738281 81.730469 114.824219 C 81.789062 115.007812 81.847656 115.191406 81.90625 115.375 C 82.160156 115.332031 82.421875 115.296875 82.6875 115.257812 C 82.613281 115.027344 82.535156 114.796875 82.453125 114.570312 " fill-opacity="1" fill-rule="nonzero"/><path fill="#a58f5e" d="M 79.347656 135.757812 C 79.890625 135.9375 80.4375 136.105469 80.988281 136.25 L 80.984375 136.25 C 80.4375 136.105469 79.890625 135.9375 79.347656 135.757812 " fill-opacity="1" fill-rule="nonzero"/><path fill="#658d9f" d="M 79.347656 135.757812 C 79.292969 136.058594 79.242188 136.3125 79.203125 136.507812 C 79.160156 136.742188 79.132812 136.871094 79.132812 136.871094 L 83.589844 137.820312 C 83.726562 137.617188 83.851562 137.363281 83.964844 137.0625 C 83.910156 137.050781 83.855469 137.039062 83.804688 137.023438 C 82.484375 136.695312 81.589844 136.441406 80.988281 136.25 C 80.4375 136.105469 79.890625 135.9375 79.347656 135.757812 " fill-opacity="1" fill-rule="nonzero"/><path fill="#8bc6dd" d="M 80.472656 130.796875 C 80.320312 130.980469 80.164062 131.160156 80 131.332031 L 80 131.304688 C 79.792969 133.160156 79.535156 134.738281 79.347656 135.757812 C 79.890625 135.9375 80.4375 136.105469 80.984375 136.25 C 79.652344 135.828125 79.734375 135.703125 79.734375 135.703125 L 79.824219 135.261719 C 79.824219 135.261719 80.160156 133.074219 80.472656 130.796875 Z M 83.652344 120.140625 C 83.683594 120.578125 83.699219 121.019531 83.703125 121.464844 C 83.722656 122.464844 83.632812 123.488281 83.433594 124.5 C 83.8125 124.402344 84.25 124.300781 84.753906 124.195312 C 84.664062 121.964844 84.542969 120.378906 84.542969 120.378906 Z M 79.484375 117.476562 C 79.460938 117.476562 79.441406 117.476562 79.421875 117.484375 C 79.507812 118.089844 79.570312 118.695312 79.605469 119.304688 C 80.441406 122.277344 80.441406 126.078125 80.179688 129.394531 C 80.386719 129.117188 80.578125 128.835938 80.761719 128.546875 C 80.90625 127.328125 81 126.316406 80.972656 125.914062 C 80.9375 125.40625 80.945312 125.25 80.964844 125.25 C 80.984375 125.25 81.015625 125.40625 81.039062 125.523438 C 81.082031 125.386719 81.332031 125.140625 82.359375 124.804688 C 82.648438 123.691406 82.796875 122.542969 82.792969 121.410156 C 82.800781 120.902344 82.785156 120.398438 82.753906 119.902344 L 82.15625 119.742188 C 82.15625 119.742188 80.179688 117.476562 79.484375 117.476562 " fill-opacity="1" fill-rule="nonzero"/><path fill="#4c83b1" d="M 80.761719 128.546875 C 80.578125 128.835938 80.386719 129.117188 80.179688 129.394531 C 80.128906 130.054688 80.066406 130.695312 80 131.304688 L 80 131.332031 C 80.164062 131.160156 80.320312 130.980469 80.472656 130.796875 C 80.574219 130.03125 80.675781 129.253906 80.761719 128.546875 Z M 82.753906 119.902344 C 82.785156 120.398438 82.800781 120.902344 82.792969 121.410156 C 82.796875 122.542969 82.648438 123.691406 82.359375 124.804688 C 82.652344 124.710938 83.003906 124.609375 83.433594 124.5 C 83.632812 123.488281 83.722656 122.464844 83.703125 121.464844 C 83.699219 121.019531 83.683594 120.578125 83.652344 120.140625 L 82.753906 119.902344 " fill-opacity="1" fill-rule="nonzero"/><path fill="#b5d3df" d="M 84.753906 124.195312 C 84.25 124.300781 83.8125 124.402344 83.433594 124.5 C 83.003906 124.609375 82.652344 124.710938 82.359375 124.804688 C 81.332031 125.140625 81.082031 125.386719 81.039062 125.523438 C 81.015625 125.40625 80.984375 125.25 80.964844 125.25 C 80.945312 125.25 80.9375 125.40625 80.972656 125.914062 C 81 126.316406 80.90625 127.328125 80.761719 128.546875 C 80.675781 129.253906 80.574219 130.03125 80.472656 130.796875 C 80.160156 133.074219 79.824219 135.261719 79.824219 135.261719 L 79.734375 135.703125 C 79.734375 135.703125 79.652344 135.828125 80.984375 136.25 L 80.988281 136.25 C 81.589844 136.441406 82.484375 136.695312 83.804688 137.023438 C 83.855469 137.039062 83.910156 137.050781 83.964844 137.0625 C 84.058594 136.804688 84.148438 136.515625 84.222656 136.199219 C 83.71875 136.007812 83.441406 135.839844 83.488281 135.757812 C 84.09375 134.679688 84.488281 133.480469 84.738281 132.242188 C 84.867188 130.128906 84.859375 127.78125 84.804688 125.734375 C 83.4375 125.867188 82.15625 126.0625 81 126.3125 C 81.664062 125.578125 83.007812 124.949219 84.765625 124.523438 C 84.761719 124.414062 84.757812 124.304688 84.753906 124.195312 " fill-opacity="1" fill-rule="nonzero"/><path fill="#a3c7d5" d="M 84.738281 132.242188 C 84.488281 133.480469 84.09375 134.679688 83.488281 135.757812 C 83.441406 135.839844 83.71875 136.007812 84.222656 136.199219 C 84.488281 135.128906 84.648438 133.746094 84.738281 132.242188 " fill-opacity="1" fill-rule="nonzero"/><path fill="#869aa4" d="M 84.765625 124.523438 C 83.007812 124.949219 81.664062 125.578125 81 126.3125 C 82.15625 126.0625 83.4375 125.867188 84.804688 125.734375 C 84.792969 125.316406 84.78125 124.910156 84.765625 124.523438 " fill-opacity="1" fill-rule="nonzero"/><path fill="#68a6c0" d="M 79.421875 117.484375 C 79.203125 117.539062 79.160156 117.90625 79.449219 118.792969 C 79.503906 118.960938 79.554688 119.128906 79.605469 119.304688 C 79.570312 118.695312 79.507812 118.089844 79.421875 117.484375 " fill-opacity="1" fill-rule="nonzero"/><path fill="#90999e" d="M 40.144531 146.066406 C 40.144531 146.066406 47.304688 144.324219 51.441406 145.273438 C 55.578125 146.226562 57.808594 146.542969 57.808594 146.542969 C 57.808594 146.542969 57.808594 147.175781 56.214844 147.175781 C 54.625 147.175781 41.574219 147.335938 40.144531 146.066406 " fill-opacity="1" fill-rule="nonzero"/><path fill="#231f20" d="M 47.253906 121.050781 C 47.269531 117.945312 47.914062 114.914062 49.167969 112.386719 C 50.722656 109.230469 53.195312 106.800781 55.515625 104.59375 C 57.859375 102.539062 60.429688 100.386719 61.5 97.398438 C 62.679688 94.25 61.117188 91.316406 59.871094 89.765625 C 57.28125 86.425781 54.964844 85.425781 54.917969 85.273438 C 51.195312 82.828125 47.160156 83.054688 47.230469 83.941406 C 47.257812 84.679688 50.140625 85.578125 53.394531 87.703125 C 53.40625 87.808594 55.484375 88.691406 57.683594 91.417969 C 58.734375 92.746094 59.75 94.519531 59.046875 96.523438 C 58.394531 98.601562 56.367188 100.601562 53.886719 102.804688 C 51.574219 105.105469 48.929688 107.746094 47.21875 111.363281 C 45.65625 114.660156 45.0625 118.421875 45.292969 122.269531 C 45.933594 121.835938 46.585938 121.433594 47.253906 121.050781 " fill-opacity="1" fill-rule="nonzero"/><path fill="#231f20" d="M 77.566406 131.972656 C 76.042969 133.105469 74.320312 133.933594 72.5 134.488281 C 72.574219 134.605469 72.636719 134.730469 72.679688 134.867188 L 72.878906 135.5 C 72.894531 135.566406 72.90625 135.632812 72.917969 135.699219 C 74.828125 135.074219 76.636719 134.164062 78.226562 132.933594 C 78.875 132.453125 79.464844 131.917969 80 131.332031 L 79.875 129.789062 C 79.210938 130.605469 78.441406 131.34375 77.566406 131.972656 " fill-opacity="1" fill-rule="nonzero"/><path fill="#231f20" d="M 80.335938 110.085938 C 79.417969 108.441406 78.121094 106.996094 77.21875 105.671875 C 76.300781 104.277344 75.59375 102.796875 75.050781 101.332031 C 72.824219 95.457031 73.390625 89.769531 75.566406 86.945312 C 77.648438 84.199219 79.898438 83.792969 79.972656 83.683594 C 79.898438 83.792969 77.644531 84.132812 75.46875 86.867188 C 73.199219 89.679688 72.488281 95.441406 74.621094 101.460938 C 75.140625 102.964844 75.828125 104.484375 76.734375 105.949219 C 77.667969 107.378906 78.871094 108.757812 79.742188 110.386719 C 80.289062 111.347656 80.789062 112.363281 81.214844 113.425781 L 81.886719 113.121094 C 81.429688 112.058594 80.90625 111.042969 80.335938 110.085938 " fill-opacity="1" fill-rule="nonzero"/><path fill="#231f20" d="M 50.230469 81.074219 C 50.214844 80.980469 54.933594 86.113281 61.785156 87.96875 C 65.144531 88.945312 68.933594 88.644531 71.519531 87.53125 C 74.117188 86.453125 75.511719 85.085938 75.5625 85.078125 C 76.21875 84.46875 76.195312 83.5 75.605469 82.992188 C 74.996094 82.46875 74.125 82.507812 73.589844 83 C 73.550781 83 72.515625 84.246094 70.472656 85.351562 C 68.457031 86.480469 65.277344 87.125 62.070312 86.566406 C 55.542969 85.5625 50.175781 80.992188 50.230469 81.074219 " fill-opacity="1" fill-rule="nonzero"/><path fill="#ffffff" d="M 50.558594 80.6875 C 52.34375 82.417969 55.007812 84.609375 58.546875 85.878906 C 62.097656 87.179688 65.695312 86.785156 68.011719 85.878906 C 65.5625 86.394531 62.175781 86.507812 58.765625 85.265625 C 55.359375 84.046875 52.609375 82.113281 50.558594 80.6875 " fill-opacity="1" fill-rule="nonzero"/><path fill="#231f20" d="M 48.8125 83.09375 C 48.859375 83.121094 48.585938 82.457031 49.128906 81.523438 C 49.707031 80.628906 50.949219 80.132812 52.347656 79.855469 C 55.183594 79.324219 59.003906 79.4375 62.75 79.671875 C 66.542969 79.921875 70.15625 80.769531 72.417969 82.230469 C 74.71875 83.628906 76.050781 84.984375 76.109375 84.992188 C 76.796875 85.527344 77.757812 85.496094 78.269531 84.890625 C 78.78125 84.289062 78.617188 83.316406 77.875 82.734375 C 77.816406 82.734375 76.292969 81.429688 73.523438 80.085938 C 70.742188 78.652344 66.605469 78.125 62.796875 78.242188 C 58.910156 78.363281 55.144531 78.605469 52.238281 79.421875 C 50.828125 79.839844 49.566406 80.46875 49.023438 81.460938 C 48.527344 82.484375 48.863281 83.117188 48.8125 83.09375 " fill-opacity="1" fill-rule="nonzero"/><path fill="#231f20" d="M 83.914062 106.929688 C 84.496094 104.554688 86.78125 102.199219 89.050781 99.320312 C 90.152344 97.863281 91.3125 96.113281 91.632812 93.945312 C 91.957031 91.777344 91.21875 89.59375 90.140625 87.910156 C 87.804688 84.222656 83.1875 82.835938 79.464844 83.625 C 75.609375 84.359375 72.804688 87.453125 72.390625 90.628906 C 72.269531 93.882812 74.214844 96.179688 76.242188 96.679688 C 76.792969 96.789062 77.464844 96.542969 77.742188 96.136719 C 78.042969 95.753906 78.109375 95.410156 78.160156 95.152344 C 78.25 94.632812 78.207031 94.382812 78.222656 94.378906 C 78.207031 94.382812 78.238281 94.632812 78.128906 95.144531 C 78.136719 95.535156 77.511719 96.832031 76.265625 96.558594 C 74.351562 96.035156 72.578125 93.667969 72.835938 90.6875 C 73.34375 87.777344 76.085938 85.011719 79.613281 84.519531 C 83.046875 83.925781 87.113281 85.472656 88.890625 88.617188 C 89.796875 90.195312 90.273438 91.992188 89.953125 93.652344 C 89.644531 95.320312 88.625 96.769531 87.527344 98.085938 C 85.320312 100.699219 82.621094 103.046875 81.597656 106.21875 C 81.121094 107.644531 80.941406 109.386719 81.355469 110.734375 C 81.621094 111.714844 82.039062 112.503906 82.457031 113.148438 L 84.960938 111.980469 C 84.039062 110.804688 83.203125 109.265625 83.914062 106.929688 " fill-opacity="1" fill-rule="nonzero"/><path fill="#231f20" d="M 75.976562 96.273438 C 75.984375 96.277344 76.003906 96.296875 76.03125 96.328125 C 76 96.289062 75.980469 96.273438 75.976562 96.273438 " fill-opacity="1" fill-rule="nonzero"/><path fill="#231f20" d="M 75.972656 96.285156 L 75.976562 96.273438 L 75.972656 96.285156 " fill-opacity="1" fill-rule="nonzero"/><path fill="#231f20" d="M 86.515625 90.292969 C 86.0625 89.125 84.878906 88.628906 84.015625 88.46875 C 83.289062 88.21875 81.753906 88.324219 81.175781 89.191406 C 80.53125 89.910156 80.273438 90.660156 80 91.351562 C 79.105469 94.007812 78.644531 96.699219 77.664062 97.128906 C 76.9375 97.269531 76.238281 96.535156 76.03125 96.328125 C 76.222656 96.539062 76.847656 97.316406 77.703125 97.246094 C 78.867188 96.792969 79.402344 94.066406 80.417969 91.519531 C 80.703125 90.867188 81.003906 90.160156 81.570312 89.578125 C 82.105469 88.902344 83.105469 88.878906 83.859375 89.117188 C 84.632812 89.300781 85.5 89.726562 85.78125 90.5625 C 86.0625 91.367188 85.871094 92.261719 85.585938 93.074219 C 84.382812 96.445312 81.367188 98.902344 79.871094 102.613281 C 78.074219 107.089844 79.53125 110.3125 80.667969 113.671875 C 81.257812 113.425781 81.886719 113.207031 82.519531 113.050781 C 81.328125 110.007812 80.457031 106.265625 81.242188 103.054688 C 82.503906 100.09375 85.347656 96.941406 86.445312 93.367188 C 86.710938 92.460938 86.9375 91.40625 86.515625 90.292969 " fill-opacity="1" fill-rule="nonzero"/><path fill="#231f20" d="M 71.386719 101.167969 C 71.402344 101.152344 71.238281 101.242188 71.1875 101.332031 C 71.207031 101.335938 71.148438 101.292969 71.0625 101.25 C 70.882812 101.15625 70.515625 101.039062 70.035156 100.933594 C 69.066406 100.726562 67.621094 100.542969 65.871094 100.460938 C 64.121094 100.382812 62.066406 100.371094 59.867188 100.65625 C 58.773438 100.808594 57.632812 101.003906 56.527344 101.5 C 55.460938 101.984375 54.300781 103.117188 54.585938 104.671875 C 55.058594 106.136719 56.351562 106.761719 57.417969 107.28125 C 58.539062 107.785156 59.6875 108.105469 60.804688 108.351562 C 63.046875 108.839844 65.191406 108.984375 67.0625 108.933594 C 68.941406 108.863281 70.550781 108.582031 71.75 108.054688 C 72.964844 107.554688 73.660156 106.644531 73.671875 106.59375 C 74.28125 105.765625 74.082031 104.671875 73.742188 104.226562 C 73.335938 103.789062 72.914062 103.695312 72.558594 103.867188 C 72.203125 104.035156 71.921875 104.375 71.75 104.632812 C 71.480469 104.894531 71.378906 104.902344 71.28125 105.003906 C 71.269531 105 71.246094 105.195312 70.550781 105.589844 C 69.863281 105.972656 68.535156 106.34375 66.886719 106.523438 C 65.230469 106.699219 63.230469 106.714844 61.148438 106.425781 C 59.230469 106.1875 56.503906 105.449219 55.964844 104.28125 C 55.792969 103.886719 56.25 102.917969 57.058594 102.539062 C 57.917969 102.0625 58.996094 101.765625 60.023438 101.546875 C 62.105469 101.109375 64.136719 100.964844 65.867188 100.90625 C 67.597656 100.855469 69.042969 100.925781 70.015625 101.054688 C 70.496094 101.117188 70.863281 101.207031 71.050781 101.28125 C 71.136719 101.308594 71.195312 101.347656 71.179688 101.335938 C 71.242188 101.234375 71.402344 101.15625 71.386719 101.167969 " fill-opacity="1" fill-rule="nonzero"/><path fill="#231f20" d="M 46.542969 120.003906 C 41.613281 120.5625 37.054688 121.414062 33.191406 122.511719 C 24.808594 124.78125 19.777344 127.773438 19.761719 127.691406 C 19.777344 127.773438 24.898438 124.945312 33.289062 122.949219 C 37.140625 121.980469 41.664062 121.28125 46.535156 120.875 C 46.523438 120.585938 46.523438 120.289062 46.542969 120.003906 " fill-opacity="1" fill-rule="nonzero"/><g clip-path="url(#097f01f2af)"><path fill="#231f20" d="M 110.503906 126.996094 C 110.40625 126.964844 107.109375 125.339844 101.625 123.785156 C 101.734375 124.667969 101.675781 125.664062 101.480469 126.453125 C 106.347656 128.042969 109.167969 129.550781 109.28125 129.585938 C 111.679688 130.691406 113.8125 131.316406 114.261719 130.621094 C 114.675781 129.992188 113.078125 128.1875 110.503906 126.996094 " fill-opacity="1" fill-rule="nonzero"/></g><path fill="#231f20" d="M 63.871094 131.035156 L 63.808594 130.972656 L 63.6875 130.84375 L 63.441406 130.589844 C 62.785156 129.914062 62.097656 129.273438 61.398438 128.644531 C 60 127.382812 58.546875 126.179688 57.152344 124.953125 C 55.164062 123.199219 53.292969 121.355469 51.769531 119.179688 C 51.84375 119.195312 51.019531 119.003906 50.59375 118.886719 L 50.453125 118.96875 C 49.699219 119.417969 48.933594 119.824219 48.15625 120.199219 C 45.046875 121.675781 41.898438 122.65625 39.25 123.667969 C 33.867188 125.546875 30.722656 127.929688 30.742188 127.917969 C 30.726562 127.925781 33.960938 125.703125 39.390625 124.09375 C 42.074219 123.210938 45.253906 122.386719 48.519531 121.027344 C 49.332031 120.683594 50.148438 120.304688 50.953125 119.875 L 50.96875 119.863281 L 51.132812 120.125 C 51.257812 120.320312 51.371094 120.523438 51.507812 120.707031 C 51.773438 121.085938 52.035156 121.472656 52.332031 121.835938 C 53.476562 123.3125 54.808594 124.671875 56.164062 125.988281 C 57.519531 127.304688 58.90625 128.570312 60.210938 129.863281 C 60.644531 130.289062 61.0625 130.714844 61.46875 131.148438 C 61.289062 131.164062 61.109375 131.179688 60.929688 131.195312 C 59.136719 131.363281 57.417969 131.601562 55.777344 131.929688 C 55.054688 132.074219 52.953125 132.65625 52.953125 132.65625 C 52.75 130.824219 53.203125 135.160156 53.164062 134.714844 L 53.261719 134.75 C 53.261719 134.75 56.15625 134.445312 55.777344 140.679688 C 55.683594 142.242188 55.558594 143.164062 55.5625 143.21875 C 55.382812 144.886719 55.625 146.296875 56.371094 146.5625 C 57.121094 146.832031 58.210938 145.441406 58.417969 143.539062 C 58.410156 143.484375 58.558594 142.460938 58.523438 140.667969 C 58.5 139.773438 58.433594 138.679688 58.128906 137.40625 C 57.863281 136.386719 57.472656 135.128906 56.480469 134.023438 C 57.9375 133.667969 59.507812 133.371094 61.132812 133.140625 C 61.5625 133.085938 61.996094 133.015625 62.425781 132.976562 L 63.078125 132.910156 L 63.117188 132.90625 L 63.136719 132.902344 C 64.628906 129.195312 63.542969 131.867188 63.871094 131.035156 " fill-opacity="1" fill-rule="nonzero"/><path fill="#231f20" d="M 62.65625 131.570312 C 62.25 133.945312 60.902344 136.929688 61.222656 140.714844 C 61.316406 141.640625 61.546875 142.535156 61.875 143.347656 L 61.996094 143.652344 L 62.023438 143.730469 L 62.027344 143.738281 L 62.027344 143.742188 C 61.300781 144.410156 63.023438 142.839844 62.84375 143 L 62.832031 142.996094 L 62.757812 142.976562 L 62.59375 142.949219 C 62.304688 142.9375 62.300781 142.980469 62.230469 142.992188 C 61.960938 143.074219 61.792969 143.15625 61.59375 143.242188 C 61.207031 143.414062 60.851562 143.59375 60.503906 143.777344 C 59.128906 144.515625 57.917969 145.253906 56.941406 145.992188 C 58.097656 145.613281 59.445312 145.171875 60.890625 144.648438 L 61.992188 144.269531 C 62.167969 144.210938 62.378906 144.144531 62.507812 144.121094 C 62.542969 144.046875 62.613281 144.25 62.464844 143.976562 C 62.453125 143.886719 62.464844 143.796875 62.496094 143.710938 L 62.550781 143.585938 L 62.558594 143.570312 C 62.441406 143.617188 63.640625 143.089844 63.132812 143.3125 L 63.132812 143.308594 L 63.128906 143.300781 L 63.105469 143.230469 L 63.019531 142.945312 C 62.777344 142.195312 62.605469 141.402344 62.519531 140.574219 C 62.203125 137.289062 63.042969 134.003906 62.65625 131.570312 " fill-opacity="1" fill-rule="nonzero"/><path fill="#231f20" d="M 39.230469 146.097656 C 39.222656 146.101562 43.546875 144.839844 47.871094 145.113281 C 52.191406 145.242188 56.265625 146.527344 56.320312 146.53125 C 56.8125 146.613281 57.335938 146.050781 57.488281 145.273438 C 57.644531 144.5 57.335938 143.800781 56.804688 143.710938 C 56.761719 143.703125 52.234375 143.082031 47.773438 143.683594 C 43.269531 144.152344 39.214844 146.113281 39.230469 146.097656 " fill-opacity="1" fill-rule="nonzero"/><path fill="#231f20" d="M 29.789062 127.519531 C 29.757812 127.535156 30.859375 128.25 31.742188 129.78125 C 32.664062 131.285156 33.273438 133.484375 33.703125 135.710938 C 34.558594 140.15625 34.722656 144.707031 34.761719 144.78125 C 34.855469 145.3125 35.566406 145.636719 36.347656 145.503906 C 37.128906 145.371094 37.683594 144.828125 37.589844 144.289062 C 37.558594 144.246094 36.667969 139.695312 35.078125 135.289062 C 34.289062 133.121094 33.296875 130.921875 32.105469 129.515625 C 30.945312 128.078125 29.757812 127.542969 29.789062 127.519531 " fill-opacity="1" fill-rule="nonzero"/><path fill="#231f20" d="M 62.503906 131.28125 C 62.496094 131.300781 63.574219 131.578125 65.347656 132.390625 C 66.996094 133.230469 69.878906 134.542969 71.136719 137.804688 C 71.675781 139.371094 71.601562 141.441406 70.316406 142.90625 C 69.046875 144.34375 67.167969 145.164062 65.226562 145.734375 C 61.285156 146.824219 56.890625 147.039062 52.546875 146.992188 C 43.851562 147.058594 35.164062 144.972656 29.664062 141.859375 C 28.351562 141.09375 27.292969 140.109375 27.085938 139.359375 C 26.867188 138.707031 27.261719 138.082031 27.820312 137.496094 C 28.96875 136.382812 30.039062 135.898438 30.054688 135.859375 C 31.703125 134.855469 32.988281 133.640625 32.664062 132.90625 C 32.355469 132.195312 30.480469 132.253906 28.550781 133.421875 C 28.511719 133.5 27.414062 133.964844 25.800781 135.636719 C 25.085938 136.398438 23.890625 138.113281 24.613281 140.191406 C 25.367188 142.078125 26.917969 143.066406 28.441406 143.941406 C 34.652344 147.148438 43.65625 148.816406 52.53125 148.421875 C 56.953125 148.292969 61.414062 147.902344 65.476562 146.605469 C 67.476562 145.925781 69.457031 144.996094 70.824219 143.339844 C 72.222656 141.621094 72.203125 139.292969 71.5625 137.664062 C 70.070312 134.21875 67.085938 133.074219 65.402344 132.28125 C 63.585938 131.535156 62.5 131.300781 62.503906 131.28125 " fill-opacity="1" fill-rule="nonzero"/><path fill="#231f20" d="M 27.898438 145.265625 C 32.097656 149.3125 39.871094 152.660156 48.628906 152.734375 C 57.3125 152.886719 65.414062 150.011719 69.414062 145.644531 C 64.429688 148.660156 56.890625 150.230469 48.667969 150.132812 C 40.417969 150.03125 33.0625 147.96875 27.898438 145.265625 " fill-opacity="1" fill-rule="nonzero"/><path fill="#231f20" d="M 102.320312 133.105469 C 101.976562 130.300781 102.21875 127.472656 102.636719 124.777344 C 102.859375 123.425781 103.125 122.105469 103.421875 120.816406 C 103.578125 120.171875 103.726562 119.539062 103.894531 118.910156 L 103.992188 118.546875 C 104.019531 118.058594 104.125 117.597656 104.320312 117.335938 L 104.332031 117.285156 L 104.347656 117.230469 C 104.042969 117.078125 104.253906 117.175781 104.402344 117.242188 C 104.402344 117.242188 104.40625 117.238281 104.40625 117.238281 C 104.214844 117.140625 103.722656 116.894531 102.636719 116.359375 L 102.617188 116.378906 L 102.546875 116.453125 C 102.472656 116.539062 102.394531 116.621094 102.316406 116.699219 C 102.285156 116.683594 102.257812 116.671875 102.222656 116.65625 L 102.21875 116.683594 L 102.179688 116.835938 C 100.726562 118.246094 98.6875 118.972656 96.816406 119.371094 C 92.648438 120.199219 88.96875 119.6875 86.566406 119.089844 C 84.136719 118.46875 82.90625 117.75 82.835938 117.722656 C 80.503906 116.671875 79 115.441406 78.285156 115.789062 C 77.503906 116.117188 78.621094 118.964844 81.566406 120.289062 C 81.640625 120.285156 87.859375 123.730469 97.3125 121.738281 C 98.628906 121.398438 100.066406 120.945312 101.425781 120.175781 C 101.414062 120.230469 101.402344 120.28125 101.390625 120.332031 C 101.128906 121.667969 100.886719 123.042969 100.703125 124.453125 C 100.347656 127.269531 100.171875 130.25 100.625 133.300781 C 100.867188 134.820312 101.300781 136.359375 102.054688 137.800781 L 102.179688 138.035156 C 102.109375 138.132812 102.023438 138.230469 101.921875 138.324219 C 101.515625 138.722656 100.941406 139.074219 100.335938 139.367188 C 99.664062 139.664062 98.96875 139.914062 98.261719 140.128906 C 98.34375 140.246094 98.417969 140.375 98.488281 140.523438 C 98.609375 140.785156 98.675781 141.09375 98.695312 141.417969 C 99.4375 141.210938 100.175781 140.96875 100.90625 140.683594 C 101.609375 140.371094 102.304688 139.992188 102.921875 139.445312 C 103.101562 139.28125 103.898438 138.042969 103.898438 138.042969 L 103.914062 138 C 103.695312 137.707031 103.585938 137.363281 103.585938 137.363281 C 103.585938 137.363281 102.496094 134.5 102.320312 133.105469 " fill-opacity="1" fill-rule="nonzero"/><path fill="#231f20" d="M 81.789062 139.996094 C 81.152344 139.832031 80.523438 139.648438 79.90625 139.449219 C 79.285156 139.253906 78.671875 139.035156 78.074219 138.808594 L 77.871094 138.730469 C 77.902344 138.640625 77.933594 138.554688 77.964844 138.476562 C 78.867188 136.070312 79.53125 133.695312 79.898438 131.464844 C 81.46875 122.710938 78.148438 117.074219 77.980469 116.742188 C 78.140625 117.078125 81.265625 122.800781 79.460938 131.371094 C 79.03125 133.558594 78.3125 135.867188 77.351562 138.214844 C 77.316406 138.304688 77.277344 138.394531 77.242188 138.480469 C 77.167969 138.207031 77.179688 138.296875 77.234375 138.5 C 77.152344 138.703125 77.070312 138.902344 77.003906 139.105469 C 77.074219 139.199219 77.535156 139.347656 77.785156 139.46875 C 78.382812 139.722656 79.003906 139.960938 79.632812 140.183594 C 80.289062 140.417969 80.957031 140.632812 81.640625 140.832031 C 81.660156 140.527344 81.707031 140.238281 81.789062 139.996094 " fill-opacity="1" fill-rule="nonzero"/><path fill="#231f20" d="M 78.890625 126.042969 C 78.867188 125.90625 81.441406 124.496094 85.480469 124.089844 C 87.492188 123.839844 89.855469 123.707031 92.367188 123.851562 C 94.808594 124.046875 97.714844 124.324219 99.664062 125.855469 C 100.835938 126.742188 99.953125 127.261719 98.742188 127.769531 C 97.585938 128.195312 96.324219 128.425781 95.109375 128.582031 C 92.664062 128.882812 90.335938 128.894531 88.378906 128.753906 C 86.425781 128.609375 84.824219 128.296875 83.871094 127.929688 C 82.910156 127.554688 82.648438 127.261719 82.679688 127.269531 C 82.492188 127.050781 82.378906 127.277344 82.132812 127.039062 C 81.90625 126.824219 81.679688 126.429688 81.316406 126.257812 C 80.984375 126.089844 80.492188 126.167969 80.117188 126.773438 C 79.652344 127.363281 79.96875 128.828125 80.789062 129.421875 C 80.828125 129.503906 81.691406 130.152344 83.027344 130.535156 C 84.367188 130.941406 86.167969 131.144531 88.289062 131.167969 C 90.40625 131.175781 92.839844 131.007812 95.421875 130.515625 C 96.714844 130.253906 98.042969 129.9375 99.402344 129.335938 C 100.070312 128.988281 100.804688 128.730469 101.460938 127.738281 C 101.824219 127.253906 101.8125 126.363281 101.53125 125.820312 C 101.238281 125.335938 100.914062 125.007812 100.585938 124.757812 C 97.816406 122.929688 94.964844 123.039062 92.398438 122.945312 C 89.8125 122.96875 87.429688 123.261719 85.414062 123.648438 C 81.355469 124.328125 78.855469 125.910156 78.890625 126.042969 " fill-opacity="1" fill-rule="nonzero"/><path fill="#231f20" d="M 76.394531 150.03125 C 76.28125 150.121094 84.957031 153.152344 94.25 152.601562 C 98.734375 152.21875 103.847656 151.539062 106.164062 147.339844 C 106.683594 146.058594 106.003906 144.648438 105.394531 144.023438 C 104.765625 143.324219 104.144531 142.921875 103.636719 142.625 C 102.609375 142.046875 101.980469 141.847656 101.945312 141.828125 C 100.78125 141.441406 99.710938 141.917969 99.582031 142.691406 C 99.453125 143.476562 100.132812 144.238281 101.03125 144.539062 C 101.050781 144.550781 101.578125 144.6875 102.347656 145.046875 C 103.125 145.394531 104.085938 146.152344 103.847656 146.632812 C 103.660156 147.445312 102.003906 148.851562 100.269531 149.566406 C 98.460938 150.371094 96.304688 150.886719 94.113281 151.179688 C 85.214844 152.429688 76.277344 150.136719 76.394531 150.03125 " fill-opacity="1" fill-rule="nonzero"/><path fill="#231f20" d="M 81.449219 141.191406 C 80.390625 141.167969 78.226562 141.289062 76.144531 142.199219 C 74.699219 142.796875 73.3125 143.59375 72.457031 144.625 C 71.605469 145.691406 71.582031 146.746094 71.582031 146.738281 C 71.554688 147.183594 71.929688 147.480469 72.3125 147.433594 C 72.71875 147.386719 72.992188 147.09375 73.015625 146.808594 C 73.019531 146.792969 72.945312 146.140625 73.449219 145.316406 C 73.960938 144.503906 75.167969 143.546875 76.457031 142.84375 C 78.320312 141.75 80.402344 141.378906 81.441406 141.273438 C 81.445312 141.246094 81.445312 141.21875 81.449219 141.191406 " fill-opacity="1" fill-rule="nonzero"/><path fill="#231f20" d="M 104.359375 150.355469 C 101.046875 153.054688 95.835938 154.464844 89.992188 154.371094 C 84.152344 154.273438 78.8125 153.164062 75.035156 151.304688 C 77.875 154.523438 83.617188 156.902344 89.972656 156.972656 C 96.335938 157.171875 102.347656 154.207031 104.359375 150.355469 " fill-opacity="1" fill-rule="nonzero"/><path fill="#231f20" d="M 100.0625 142.824219 C 99.726562 142.375 99.3125 141.953125 98.820312 141.597656 C 98.691406 141.488281 98.550781 141.398438 98.40625 141.316406 L 98.410156 141.296875 C 98.445312 139.609375 97.113281 138.230469 95.609375 137.777344 L 95.519531 137.757812 C 95.613281 137.621094 95.703125 137.476562 95.785156 137.335938 C 96.496094 135.957031 97.054688 134.089844 95.8125 132.359375 C 95.488281 131.976562 95.050781 131.648438 94.597656 131.507812 L 94.425781 131.441406 L 94.296875 131.394531 C 94.394531 131.3125 93.96875 131.648438 93.59375 131.953125 C 93.53125 132.457031 93.367188 132.886719 93.101562 133.027344 C 92.921875 133.226562 92.59375 133.375 92.117188 133.472656 C 91.476562 133.605469 90.734375 133.640625 89.964844 133.738281 C 89.292969 133.917969 88.179688 133.738281 87.5 135.125 C 87.371094 135.730469 87.5625 136.109375 87.71875 136.390625 C 87.039062 136.480469 86.332031 136.757812 85.875 137.476562 C 85.667969 137.824219 85.609375 138.234375 85.648438 138.597656 C 85.324219 138.519531 85 138.457031 84.671875 138.417969 C 83.34375 138.105469 81.453125 139.082031 81.371094 140.488281 C 81.207031 141.113281 81.257812 141.691406 81.300781 142.230469 C 81.308594 142.324219 81.324219 142.414062 81.339844 142.503906 L 81.214844 142.507812 C 80.273438 142.5625 79.449219 142.726562 78.800781 142.984375 C 77.46875 143.46875 76.96875 144.261719 76.957031 144.21875 C 76.96875 144.257812 77.5 143.492188 78.828125 143.074219 C 79.476562 142.847656 80.292969 142.722656 81.21875 142.707031 L 81.371094 142.710938 C 81.378906 142.742188 81.386719 142.777344 81.390625 142.808594 L 81.515625 142.808594 C 81.472656 142.496094 81.480469 142.179688 81.503906 141.859375 C 81.511719 141.78125 81.53125 141.664062 81.554688 141.539062 C 81.5625 141.222656 81.59375 140.902344 81.695312 140.574219 C 81.859375 139.320312 83.371094 138.625 84.605469 138.910156 C 84.964844 138.972656 85.324219 139.0625 85.675781 139.175781 C 85.828125 139.175781 85.976562 139.183594 86.125 139.191406 C 86.15625 138.992188 86.203125 138.792969 86.277344 138.609375 C 86.285156 138.59375 86.292969 138.574219 86.300781 138.554688 C 86.253906 138.289062 86.265625 138.027344 86.453125 137.839844 C 86.8125 137.273438 87.570312 137.09375 88.238281 137.125 L 88.492188 137.148438 C 88.578125 137.097656 88.5 137.21875 88.609375 137.140625 C 88.640625 136.960938 88.679688 136.792969 88.734375 136.648438 C 88.710938 136.566406 88.683594 136.492188 88.652344 136.417969 C 88.691406 136.375 88.707031 136.351562 88.6875 136.375 L 88.667969 136.371094 L 88.628906 136.371094 C 88.617188 136.335938 88.597656 136.300781 88.585938 136.269531 C 88.429688 135.949219 88.257812 135.617188 88.339844 135.378906 C 88.980469 134.421875 90.890625 134.808594 92.296875 134.53125 C 93.027344 134.4375 94.019531 134.089844 94.367188 133.144531 C 94.394531 133.035156 94.429688 132.921875 94.457031 132.8125 C 94.589844 132.90625 94.707031 133.019531 94.804688 133.144531 C 95.496094 134.058594 95.144531 135.574219 94.523438 136.578125 C 94.292969 136.953125 94.003906 137.285156 93.695312 137.515625 C 93.679688 137.390625 93.667969 137.28125 93.691406 137.515625 C 93.574219 137.601562 93.457031 137.671875 93.339844 137.726562 L 93.261719 137.765625 L 93.25 137.773438 C 93.304688 138.347656 93.121094 136.488281 93.367188 139.066406 L 93.398438 139.074219 L 93.46875 139.085938 L 93.742188 139.144531 C 93.777344 139.148438 93.8125 139.152344 93.847656 139.160156 C 93.851562 139.179688 93.851562 139.199219 93.855469 139.21875 L 93.945312 139.171875 C 94.070312 139.1875 94.195312 139.203125 94.316406 139.207031 C 94.726562 139.199219 94.738281 139.269531 95.074219 139.339844 C 96.066406 139.691406 96.660156 140.535156 96.597656 141.21875 L 96.539062 141.480469 L 96.527344 141.542969 L 96.523438 141.578125 L 96.523438 141.59375 C 96.71875 142.046875 96.074219 140.589844 96.964844 142.609375 L 96.976562 142.617188 L 97.121094 142.710938 C 97.304688 142.839844 97.511719 142.933594 97.660156 143.085938 C 97.996094 143.351562 98.261719 143.648438 98.460938 143.941406 C 98.867188 144.539062 98.980469 145.121094 98.914062 145.558594 C 98.820312 146.445312 98.3125 146.9375 98.316406 146.953125 C 97.734375 147.808594 97.046875 148.421875 97.125 149.027344 C 97.144531 149.632812 98.945312 149.753906 100.050781 148.21875 C 100.027344 148.171875 100.824219 147.480469 100.972656 145.683594 C 101.046875 144.804688 100.738281 143.722656 100.0625 142.824219 " fill-opacity="1" fill-rule="nonzero"/><path fill="#231f20" d="M 31.464844 128.226562 C 31.460938 128.046875 36.863281 127.546875 41.71875 129.328125 C 46.707031 130.769531 50.714844 133.757812 50.671875 133.820312 C 51.105469 134.136719 51.871094 133.890625 52.371094 133.277344 C 52.875 132.667969 52.824219 131.839844 52.261719 131.4375 C 52.222656 131.300781 47.300781 128.664062 42.027344 127.929688 C 36.773438 126.804688 31.410156 128.058594 31.464844 128.226562 " fill-opacity="1" fill-rule="nonzero"/><path fill="#231f20" d="M 78.140625 115.03125 C 78.140625 115.042969 79.46875 114.105469 81.65625 113.492188 C 83.832031 112.84375 86.820312 112.449219 89.777344 112.519531 C 92.734375 112.578125 95.644531 113.132812 97.582031 113.941406 C 99.558594 114.730469 100.40625 115.679688 100.441406 115.675781 C 100.867188 116.015625 101.632812 115.933594 102.265625 115.441406 C 102.882812 114.960938 102.910156 113.984375 102.21875 113.429688 C 102.191406 113.417969 100.703125 112.25 98.3125 111.640625 C 95.9375 110.980469 92.78125 110.789062 89.707031 111.089844 C 86.628906 111.382812 83.632812 112.152344 81.5 113.074219 C 79.351562 113.960938 78.140625 115.042969 78.140625 115.03125 " fill-opacity="1" fill-rule="nonzero"/><path fill="#ffffff" d="M 102.5 117.125 C 102.5 117.113281 101.191406 117.988281 99.003906 118.542969 C 96.832031 119.136719 93.835938 119.460938 90.867188 119.320312 C 87.898438 119.1875 84.96875 118.570312 82.972656 117.691406 C 80.945312 116.839844 79.992188 115.789062 79.953125 115.78125 C 79.488281 115.359375 78.933594 115.136719 78.597656 115.367188 C 78.277344 115.582031 78.402344 116.304688 78.992188 116.847656 C 79.023438 116.855469 80.285156 118.039062 82.527344 118.8125 C 84.742188 119.632812 87.8125 120.082031 90.851562 120.035156 C 93.894531 120 96.90625 119.488281 99.066406 118.757812 C 101.246094 118.0625 102.5 117.109375 102.5 117.125 " fill-opacity="1" fill-rule="nonzero"/><path fill="#231f20" d="M 77.984375 133.21875 C 78.007812 133.269531 77.292969 133.09375 76.417969 133.730469 C 75.53125 134.324219 74.757812 135.855469 74.855469 137.515625 C 74.890625 138.34375 75.132812 139.207031 75.632812 139.9375 L 75.726562 140.074219 L 75.75 140.109375 L 75.761719 140.125 L 75.765625 140.132812 C 75.714844 140.433594 76.21875 137.5625 76.003906 138.777344 L 76 138.777344 L 75.9375 138.792969 L 75.699219 138.847656 L 75.238281 138.957031 C 74.941406 139.035156 74.644531 139.058594 74.386719 139.105469 C 73.328125 139.261719 72.613281 139.257812 72.59375 139.261719 C 72.273438 139.324219 72.113281 140.007812 72.234375 140.785156 C 72.355469 141.566406 72.769531 142.140625 73.15625 142.066406 C 73.175781 142.0625 73.992188 141.867188 75.136719 141.402344 C 75.421875 141.273438 75.738281 141.167969 76.050781 141 L 76.535156 140.753906 L 76.785156 140.625 L 76.855469 140.589844 L 76.859375 140.585938 C 76.789062 140.992188 77.480469 137.058594 77.1875 138.722656 L 77.101562 138.636719 C 76.746094 138.328125 76.433594 137.824219 76.261719 137.246094 C 75.890625 136.074219 76.160156 134.710938 76.742188 134.042969 C 77.296875 133.320312 78.011719 133.253906 77.984375 133.21875 " fill-opacity="1" fill-rule="nonzero"/><path fill="#231f20" d="M 86.230469 137.191406 C 82.179688 136.675781 78.902344 135.511719 78.9375 135.503906 C 78.90625 135.507812 82.09375 136.898438 86.171875 137.691406 C 86.179688 137.523438 86.199219 137.355469 86.230469 137.191406 " fill-opacity="1" fill-rule="nonzero"/><path fill="#231f20" d="M 100.933594 135.175781 C 100.703125 134.847656 100.109375 134.859375 99.582031 135.160156 C 99.613281 135.226562 98.21875 135.992188 96.074219 136.621094 C 96.101562 137.058594 96.0625 137.511719 95.949219 137.871094 C 96.28125 137.808594 96.605469 137.734375 96.910156 137.65625 C 98.964844 137.140625 100.246094 136.414062 100.285156 136.40625 C 100.878906 136.070312 101.15625 135.496094 100.933594 135.175781 " fill-opacity="1" fill-rule="nonzero"/><path fill="#231f20" d="M 83.21875 149.515625 C 83.238281 149.515625 82.054688 149.933594 80.246094 149.808594 C 79.351562 149.800781 78.277344 149.734375 77.175781 150.140625 C 76.007812 150.484375 75.191406 151.582031 74 152.660156 C 71.582031 154.648438 68.375 156.359375 64.824219 157.855469 C 63.042969 158.582031 61.160156 159.261719 59.203125 159.699219 C 58.226562 159.910156 57.222656 160.074219 56.253906 160.035156 C 55.265625 160.03125 54.417969 159.519531 54.558594 158.847656 C 54.742188 158.421875 55.949219 157.941406 56.824219 157.710938 C 57.777344 157.4375 58.773438 157.238281 59.742188 157.109375 C 61.753906 156.929688 63.8125 156.5625 65.71875 156.054688 C 67.636719 155.535156 69.480469 154.902344 71.144531 153.957031 C 71.976562 153.5 72.761719 152.929688 73.445312 152.238281 C 73.792969 151.894531 74.101562 151.507812 74.355469 151.066406 L 74.457031 150.910156 L 74.480469 150.867188 L 74.492188 150.847656 C 70.5625 150.847656 73.40625 150.859375 72.53125 150.863281 L 72.5625 150.929688 L 72.691406 151.203125 L 72.9375 151.734375 L 73.0625 152 C 77.019531 149.773438 74.15625 151.375 75.039062 150.875 L 75.03125 150.863281 L 75 150.789062 L 74.960938 150.695312 L 74.785156 150.324219 C 74.765625 150.078125 74.628906 149.84375 74.683594 149.625 C 74.648438 149.183594 74.867188 148.820312 75.078125 148.488281 C 75.550781 147.875 76.496094 147.460938 77.109375 147.304688 C 78.335938 147.082031 79.0625 147.613281 79.121094 147.601562 C 80.5 148.234375 82.148438 148.921875 82.652344 148.269531 C 83.109375 147.699219 82.464844 146.046875 80.269531 144.980469 C 80.253906 145.054688 78.941406 144.097656 76.453125 144.648438 C 75.316406 145.007812 74.082031 145.527344 72.96875 146.96875 C 72.484375 147.6875 72.085938 148.648438 72.164062 149.671875 C 72.140625 150.191406 72.328125 150.660156 72.457031 151.15625 L 72.789062 151.816406 L 72.964844 152.148438 L 72.976562 152.167969 C 73.984375 151.609375 70.734375 153.453125 75.238281 150.917969 L 75.222656 150.882812 L 75.191406 150.820312 L 75.125 150.691406 L 74.851562 150.167969 L 74.714844 149.902344 L 74.679688 149.835938 L 74.664062 149.804688 C 73.640625 149.796875 76.941406 149.789062 72.367188 149.789062 L 72.359375 149.796875 L 72.300781 149.890625 C 72.164062 150.144531 71.996094 150.402344 71.761719 150.652344 C 71.316406 151.152344 70.722656 151.636719 70.03125 152.058594 C 68.664062 152.925781 66.976562 153.605469 65.199219 154.167969 C 63.386719 154.730469 61.546875 155.152344 59.515625 155.425781 C 58.445312 155.613281 57.421875 155.863281 56.382812 156.207031 C 55.859375 156.382812 55.34375 156.574219 54.808594 156.84375 C 54.308594 157.1875 53.65625 157.277344 53.171875 158.46875 C 52.992188 159.609375 53.480469 160.332031 54.21875 160.835938 C 54.925781 161.253906 55.59375 161.308594 56.183594 161.328125 C 57.378906 161.332031 58.429688 161.097656 59.460938 160.835938 C 61.503906 160.289062 63.390625 159.511719 65.175781 158.691406 C 68.730469 157.011719 71.886719 155.148438 74.289062 153 C 75.527344 151.78125 76.171875 150.777344 77.269531 150.386719 C 78.289062 149.953125 79.347656 149.960938 80.242188 149.933594 C 82.0625 149.976562 83.242188 149.515625 83.21875 149.515625 " fill-opacity="1" fill-rule="nonzero"/><path fill="#231f20" d="M 37.746094 130.980469 C 38.496094 130.699219 39.324219 130.90625 39.953125 131.441406 C 39.777344 131.179688 39.535156 130.882812 39.210938 130.605469 C 38.382812 129.929688 37.410156 129.898438 36.773438 130.441406 C 36.445312 130.6875 36.167969 131.15625 36.125 131.804688 C 36.082031 132.261719 36.207031 132.722656 36.363281 133.085938 C 36.390625 132.140625 36.902344 131.296875 37.746094 130.980469 " fill-opacity="1" fill-rule="nonzero"/><path fill="#231f20" d="M 40.285156 136.390625 C 40.953125 136.28125 41.605469 136.59375 42.039062 137.152344 C 41.9375 136.902344 41.785156 136.609375 41.5625 136.324219 C 40.988281 135.613281 40.183594 135.425781 39.5625 135.769531 C 39.253906 135.917969 38.941406 136.269531 38.796875 136.804688 C 38.6875 137.179688 38.714844 137.585938 38.785156 137.917969 C 38.964844 137.128906 39.53125 136.511719 40.285156 136.390625 " fill-opacity="1" fill-rule="nonzero"/><path fill="#231f20" d="M 46.703125 134.699219 C 47.617188 134.554688 48.484375 134.8125 49.03125 135.320312 C 48.910156 135.085938 48.726562 134.816406 48.441406 134.554688 C 47.707031 133.90625 46.628906 133.777344 45.765625 134.152344 C 45.332031 134.316406 44.886719 134.671875 44.65625 135.195312 C 44.480469 135.5625 44.492188 135.957031 44.566406 136.269531 C 44.863281 135.5 45.671875 134.867188 46.703125 134.699219 " fill-opacity="1" fill-rule="nonzero"/><path fill="#231f20" d="M 43.921875 139.925781 C 44.839844 139.777344 45.703125 140.039062 46.253906 140.546875 C 46.132812 140.3125 45.945312 140.042969 45.660156 139.78125 C 44.929688 139.132812 43.851562 139.003906 42.988281 139.375 C 42.554688 139.542969 42.109375 139.894531 41.878906 140.421875 C 41.703125 140.789062 41.710938 141.179688 41.789062 141.496094 C 42.082031 140.722656 42.890625 140.09375 43.921875 139.925781 " fill-opacity="1" fill-rule="nonzero"/><path fill="#231f20" d="M 51.601562 139.109375 C 52.527344 139.179688 53.308594 139.628906 53.726562 140.253906 C 53.660156 139.996094 53.542969 139.691406 53.328125 139.371094 C 52.765625 138.574219 51.746094 138.195312 50.820312 138.359375 C 50.359375 138.417969 49.84375 138.660156 49.496094 139.121094 C 49.242188 139.4375 49.160156 139.820312 49.160156 140.144531 C 49.625 139.460938 50.558594 139.03125 51.601562 139.109375 " fill-opacity="1" fill-rule="nonzero"/><g fill="#000000" fill-opacity="1"><g transform="translate(40.902221, 32.946424)"><g><path d="M 8.863281 -13.410156 L 7.125 -13.144531 C 4.054688 -12.671875 0.738281 -12.160156 0.347656 -9.316406 C 0.328125 -9.214844 0.328125 -9.089844 0.328125 -8.988281 C 0.308594 -8.332031 0.472656 -7.699219 0.839844 -7.226562 C 1.207031 -6.714844 1.761719 -6.367188 2.476562 -6.265625 C 2.558594 -6.246094 2.660156 -6.246094 2.765625 -6.246094 C 3.007812 -6.246094 3.214844 -6.429688 3.214844 -6.652344 C 3.234375 -6.898438 3.050781 -7.105469 2.804688 -7.105469 L 2.601562 -7.125 C 2.128906 -7.1875 1.78125 -7.410156 1.535156 -7.738281 C 1.289062 -8.066406 1.167969 -8.496094 1.1875 -8.945312 C 1.1875 -9.027344 1.1875 -9.109375 1.207031 -9.191406 C 1.515625 -11.402344 4.523438 -11.875 7.269531 -12.304688 C 7.675781 -12.367188 8.105469 -12.425781 8.515625 -12.507812 C 8.085938 -11.34375 7.675781 -10.03125 7.328125 -8.886719 C 6.550781 -6.367188 6.246094 -5.464844 5.855469 -4.464844 C 5.609375 -3.871094 5.34375 -3.296875 5.035156 -2.785156 C 4.09375 -3.582031 3.132812 -4.113281 2.253906 -4.113281 C 1.066406 -4.113281 0.0820312 -3.296875 0 -1.863281 C 0 -0.65625 0.714844 0 2.128906 0.101562 C 3.214844 0.101562 4.300781 -0.429688 5.015625 -1.269531 C 5.078125 -1.332031 5.140625 -1.414062 5.199219 -1.496094 C 5.710938 -1.042969 6.222656 -0.511719 6.757812 0 C 8.539062 1.78125 10.5625 3.890625 12.734375 3.890625 C 13.960938 3.890625 15.3125 3.378906 15.824219 2.230469 C 15.847656 2.171875 15.867188 2.109375 15.867188 2.066406 C 15.867188 1.902344 15.722656 1.617188 15.4375 1.617188 C 15.273438 1.617188 15.109375 1.71875 15.046875 1.882812 C 14.71875 2.601562 13.777344 3.007812 12.753906 3.007812 C 10.890625 3.007812 9.070312 1.085938 7.371094 -0.613281 C 6.796875 -1.167969 6.246094 -1.71875 5.691406 -2.230469 C 6.058594 -2.804688 6.367188 -3.441406 6.652344 -4.136719 C 7.042969 -5.097656 7.492188 -6.46875 8.167969 -8.621094 C 8.558594 -9.949219 9.027344 -11.464844 9.519531 -12.691406 C 10.972656 -13.082031 12.449219 -13.859375 12.449219 -14.824219 C 12.449219 -15.476562 11.957031 -15.929688 11.238281 -15.929688 C 10.195312 -15.929688 9.316406 -14.597656 8.863281 -13.410156 Z M 9.929688 -13.71875 C 10.257812 -14.414062 10.789062 -15.109375 11.238281 -15.109375 C 11.402344 -15.109375 11.527344 -14.988281 11.527344 -14.824219 C 11.527344 -14.496094 10.789062 -13.902344 9.929688 -13.71875 Z M 4.359375 -1.820312 C 3.808594 -1.1875 2.949219 -0.757812 2.128906 -0.757812 C 1.433594 -0.757812 0.859375 -1.066406 0.859375 -1.863281 C 0.902344 -2.722656 1.515625 -3.253906 2.230469 -3.253906 C 2.925781 -3.253906 3.707031 -2.765625 4.566406 -2.066406 C 4.484375 -1.984375 4.421875 -1.902344 4.359375 -1.820312 Z M 4.359375 -1.820312 "/></g></g></g><g fill="#000000" fill-opacity="1"><g transform="translate(51.297808, 32.946424)"><g><path d="M 7.410156 -4.871094 C 7.1875 -4.953125 6.941406 -4.851562 6.839844 -4.648438 C 5.691406 -2.007812 4.382812 -0.820312 2.703125 -0.859375 C 1.472656 -0.902344 0.820312 -1.617188 0.859375 -2.785156 C 0.878906 -3.214844 0.941406 -3.601562 1.085938 -4.136719 C 3.359375 -4.6875 6.40625 -6 6.40625 -8.167969 C 6.40625 -9.152344 5.691406 -9.683594 4.667969 -9.683594 C 2.253906 -9.683594 0.121094 -5.425781 0 -2.804688 C -0.0390625 -1.125 0.984375 0 2.683594 0 C 4.75 0 6.304688 -1.351562 7.636719 -4.300781 C 7.65625 -4.359375 7.675781 -4.402344 7.675781 -4.464844 C 7.675781 -4.625 7.574219 -4.789062 7.410156 -4.871094 Z M 1.414062 -5.117188 C 2.066406 -6.695312 3.253906 -8.824219 4.667969 -8.824219 C 5.117188 -8.824219 5.546875 -8.722656 5.546875 -8.167969 C 5.546875 -6.652344 3.113281 -5.652344 1.414062 -5.117188 Z M 1.414062 -5.117188 "/></g></g></g><g fill="#000000" fill-opacity="1"><g transform="translate(57.784825, 32.946424)"><g><path d="M 3.335938 -10.726562 C 3.726562 -10.726562 4.035156 -11.035156 4.035156 -11.425781 C 4.035156 -11.8125 3.726562 -12.121094 3.335938 -12.121094 C 2.949219 -12.121094 2.621094 -11.8125 2.621094 -11.425781 C 2.621094 -11.035156 2.949219 -10.726562 3.335938 -10.726562 Z M 4.6875 -4.871094 C 4.625 -4.894531 4.585938 -4.914062 4.523438 -4.914062 C 4.359375 -4.914062 4.195312 -4.8125 4.113281 -4.648438 C 3.359375 -2.96875 2.414062 -0.859375 1.148438 -0.859375 C 0.714844 -0.859375 0.53125 -1.125 0.53125 -1.71875 C 0.53125 -2.601562 0.902344 -3.542969 2.886719 -9.132812 C 3.007812 -9.480469 2.742188 -9.683594 2.476562 -9.683594 C 2.3125 -9.683594 2.148438 -9.582031 2.089844 -9.398438 C 1.1875 -7.0625 -0.265625 -3.316406 -0.328125 -1.71875 C -0.367188 -0.777344 0.164062 0 1.148438 0 C 2.867188 0 3.929688 -2.089844 4.914062 -4.300781 C 4.933594 -4.359375 4.953125 -4.421875 4.953125 -4.484375 C 4.953125 -4.648438 4.851562 -4.8125 4.6875 -4.871094 Z M 4.6875 -4.871094 "/></g></g></g><g fill="#000000" fill-opacity="1"><g transform="translate(61.550159, 32.946424)"><g><path d="M 5.199219 -4.871094 C 5.140625 -4.894531 5.078125 -4.914062 5.015625 -4.914062 C 4.851562 -4.914062 4.6875 -4.8125 4.605469 -4.667969 C 3.644531 -2.558594 2.660156 -0.859375 1.1875 -0.859375 C 0.777344 -0.859375 0.53125 -1.167969 0.53125 -1.71875 C 0.53125 -2.3125 0.796875 -3.253906 1.636719 -5.628906 C 2.3125 -7.535156 2.660156 -8.476562 2.785156 -8.863281 L 4.464844 -8.863281 C 4.707031 -8.863281 4.894531 -9.050781 4.894531 -9.292969 C 4.894531 -9.519531 4.707031 -9.726562 4.464844 -9.726562 L 3.089844 -9.726562 C 3.234375 -10.113281 4.113281 -12.613281 4.054688 -12.488281 C 4.15625 -12.753906 3.953125 -13.0625 3.644531 -13.0625 C 3.460938 -13.0625 3.296875 -12.960938 3.234375 -12.773438 C 3.214844 -12.691406 2.210938 -9.804688 2.171875 -9.726562 L 0.59375 -9.726562 C 0.347656 -9.726562 0.164062 -9.519531 0.164062 -9.292969 C 0.164062 -9.050781 0.347656 -8.863281 0.59375 -8.863281 L 1.882812 -8.863281 L 0.839844 -5.9375 C 0.183594 -4.257812 -0.328125 -2.476562 -0.328125 -1.71875 C -0.328125 -0.738281 0.203125 0 1.1875 0 C 3.070312 0 4.21875 -1.738281 5.40625 -4.300781 C 5.425781 -4.359375 5.445312 -4.421875 5.445312 -4.484375 C 5.445312 -4.648438 5.34375 -4.789062 5.199219 -4.871094 Z M 5.199219 -4.871094 "/></g></g></g><g fill="#000000" fill-opacity="1"><g transform="translate(65.806619, 32.946424)"><g><path d="M 7.410156 -4.871094 C 7.1875 -4.953125 6.941406 -4.851562 6.839844 -4.648438 C 5.691406 -2.007812 4.382812 -0.820312 2.703125 -0.859375 C 1.472656 -0.902344 0.820312 -1.617188 0.859375 -2.785156 C 0.878906 -3.214844 0.941406 -3.601562 1.085938 -4.136719 C 3.359375 -4.6875 6.40625 -6 6.40625 -8.167969 C 6.40625 -9.152344 5.691406 -9.683594 4.667969 -9.683594 C 2.253906 -9.683594 0.121094 -5.425781 0 -2.804688 C -0.0390625 -1.125 0.984375 0 2.683594 0 C 4.75 0 6.304688 -1.351562 7.636719 -4.300781 C 7.65625 -4.359375 7.675781 -4.402344 7.675781 -4.464844 C 7.675781 -4.625 7.574219 -4.789062 7.410156 -4.871094 Z M 1.414062 -5.117188 C 2.066406 -6.695312 3.253906 -8.824219 4.667969 -8.824219 C 5.117188 -8.824219 5.546875 -8.722656 5.546875 -8.167969 C 5.546875 -6.652344 3.113281 -5.652344 1.414062 -5.117188 Z M 1.414062 -5.117188 "/></g></g></g><g fill="#000000" fill-opacity="1"><g transform="translate(72.293637, 32.946424)"><g><path d="M 6.757812 -3.625 C 6.734375 -5.015625 6.183594 -5.734375 5.117188 -7.699219 C 5.753906 -8.414062 6.265625 -9.316406 6.265625 -10.132812 C 6.222656 -10.726562 5.875 -11.199219 5.28125 -11.199219 C 4.441406 -11.199219 3.789062 -10.296875 3.789062 -9.234375 C 3.789062 -8.761719 3.910156 -8.3125 4.09375 -7.882812 C 3.847656 -7.636719 3.644531 -7.410156 3.398438 -7.125 C 3.335938 -7.042969 3.296875 -6.941406 3.296875 -6.859375 C 3.296875 -6.734375 3.335938 -6.59375 3.441406 -6.511719 C 3.519531 -6.429688 3.644531 -6.40625 3.746094 -6.40625 C 3.871094 -6.40625 3.992188 -6.46875 4.074219 -6.570312 C 4.195312 -6.734375 4.339844 -6.898438 4.484375 -7.042969 C 5.570312 -5.140625 5.875 -4.546875 5.894531 -3.644531 C 5.855469 -1.945312 4.667969 -0.859375 3.007812 -0.859375 C 1.820312 -0.859375 0.777344 -1.738281 0.777344 -2.988281 C 0.859375 -4.238281 1.597656 -5.179688 2.722656 -5.179688 C 3.253906 -5.179688 3.765625 -4.667969 3.808594 -3.972656 C 3.808594 -3.726562 3.992188 -3.542969 4.238281 -3.542969 C 4.484375 -3.542969 4.667969 -3.726562 4.667969 -3.972656 C 4.625 -5.097656 3.765625 -6.039062 2.703125 -6.039062 C 1.066406 -6.039062 0.0390625 -4.832031 -0.0820312 -2.988281 C -0.0820312 -1.332031 1.308594 0 3.007812 0 C 5.078125 0 6.714844 -1.414062 6.757812 -3.625 Z M 4.75 -8.597656 C 4.6875 -8.824219 4.648438 -9.027344 4.648438 -9.253906 C 4.648438 -9.539062 4.707031 -9.910156 4.953125 -10.15625 C 5.160156 -10.359375 5.382812 -10.421875 5.382812 -10.132812 C 5.382812 -9.683594 5.078125 -9.050781 4.75 -8.597656 Z M 4.75 -8.597656 "/></g></g></g><g fill="#000000" fill-opacity="1"><g transform="translate(80.172184, 32.946424)"><g/></g></g><g fill="#000000" fill-opacity="1"><g transform="translate(86.31131, 32.946424)"><g><path d="M 7.410156 -4.871094 C 7.1875 -4.953125 6.941406 -4.851562 6.839844 -4.648438 C 5.691406 -2.007812 4.382812 -0.820312 2.703125 -0.859375 C 1.472656 -0.902344 0.820312 -1.617188 0.859375 -2.785156 C 0.878906 -3.214844 0.941406 -3.601562 1.085938 -4.136719 C 3.359375 -4.6875 6.40625 -6 6.40625 -8.167969 C 6.40625 -9.152344 5.691406 -9.683594 4.667969 -9.683594 C 2.253906 -9.683594 0.121094 -5.425781 0 -2.804688 C -0.0390625 -1.125 0.984375 0 2.683594 0 C 4.75 0 6.304688 -1.351562 7.636719 -4.300781 C 7.65625 -4.359375 7.675781 -4.402344 7.675781 -4.464844 C 7.675781 -4.625 7.574219 -4.789062 7.410156 -4.871094 Z M 1.414062 -5.117188 C 2.066406 -6.695312 3.253906 -8.824219 4.667969 -8.824219 C 5.117188 -8.824219 5.546875 -8.722656 5.546875 -8.167969 C 5.546875 -6.652344 3.113281 -5.652344 1.414062 -5.117188 Z M 1.414062 -5.117188 "/></g></g></g><g fill="#000000" fill-opacity="1"><g transform="translate(29.446688, 53.083923)"><g><path d="M 16.359375 -8.3125 C 16.359375 -12.160156 14.761719 -14.945312 10.953125 -15.128906 C 6.796875 -15.128906 4.238281 -11.9375 4.195312 -7.433594 C 4.195312 -7.1875 4.402344 -7 4.625 -7 C 4.871094 -7 5.058594 -7.1875 5.058594 -7.433594 C 5.097656 -11.363281 7.226562 -14.269531 10.953125 -14.269531 C 14.207031 -14.105469 15.5 -11.691406 15.5 -8.3125 C 15.5 -4.605469 13.613281 0.53125 10.050781 0.53125 C 8.761719 0.53125 7.511719 -0.0625 7.511719 -1.289062 C 7.511719 -2.066406 8.085938 -2.683594 8.761719 -2.683594 C 9.292969 -2.683594 9.726562 -2.191406 9.949219 -1.617188 C 10.011719 -1.433594 10.175781 -1.332031 10.359375 -1.332031 C 10.644531 -1.332031 10.832031 -1.636719 10.75 -1.902344 C 10.421875 -2.867188 9.726562 -3.542969 8.761719 -3.542969 C 7.636719 -3.542969 6.652344 -2.621094 6.652344 -1.289062 C 6.652344 0.367188 8.105469 1.390625 10.050781 1.390625 C 14.125 1.390625 16.359375 -3.992188 16.359375 -8.3125 Z M 10.257812 -11.914062 C 10.480469 -12.40625 11.035156 -12.9375 11.507812 -13.019531 C 11.667969 -13.0625 11.855469 -13.207031 11.855469 -13.511719 C 11.8125 -13.777344 11.628906 -13.941406 11.34375 -13.878906 C 10.542969 -13.675781 9.886719 -13.101562 9.480469 -12.324219 C 8.90625 -11.199219 8.433594 -9.683594 7.964844 -8.105469 C 7 -4.976562 5.835938 -0.839844 2.96875 -0.839844 C 1.820312 -0.839844 0.859375 -1.515625 0.859375 -2.785156 C 0.859375 -3.972656 1.84375 -5.242188 2.96875 -5.242188 C 3.089844 -5.242188 3.195312 -5.21875 3.296875 -5.199219 C 3.582031 -5.140625 3.847656 -5.34375 3.847656 -5.628906 C 3.847656 -5.8125 3.726562 -5.976562 3.542969 -6.039062 C 3.335938 -6.101562 3.152344 -6.121094 2.949219 -6.121094 C 1.390625 -6.121094 0 -4.523438 0 -2.742188 C 0 -1.066406 1.308594 0.0195312 2.988281 0.0195312 C 6.386719 0.0195312 7.65625 -4.175781 8.78125 -7.863281 C 9.253906 -9.375 9.703125 -10.851562 10.257812 -11.914062 Z M 10.257812 -11.914062 "/></g></g></g><g fill="#000000" fill-opacity="1"><g transform="translate(46.493, 53.083923)"><g><path d="M 7.410156 -4.871094 C 7.1875 -4.953125 6.941406 -4.851562 6.839844 -4.648438 C 5.691406 -2.007812 4.382812 -0.820312 2.703125 -0.859375 C 1.472656 -0.902344 0.820312 -1.617188 0.859375 -2.785156 C 0.878906 -3.214844 0.941406 -3.601562 1.085938 -4.136719 C 3.359375 -4.6875 6.40625 -6 6.40625 -8.167969 C 6.40625 -9.152344 5.691406 -9.683594 4.667969 -9.683594 C 2.253906 -9.683594 0.121094 -5.425781 0 -2.804688 C -0.0390625 -1.125 0.984375 0 2.683594 0 C 4.75 0 6.304688 -1.351562 7.636719 -4.300781 C 7.65625 -4.359375 7.675781 -4.402344 7.675781 -4.464844 C 7.675781 -4.625 7.574219 -4.789062 7.410156 -4.871094 Z M 1.414062 -5.117188 C 2.066406 -6.695312 3.253906 -8.824219 4.667969 -8.824219 C 5.117188 -8.824219 5.546875 -8.722656 5.546875 -8.167969 C 5.546875 -6.652344 3.113281 -5.652344 1.414062 -5.117188 Z M 1.414062 -5.117188 "/></g></g></g><g fill="#000000" fill-opacity="1"><g transform="translate(52.980018, 53.083923)"><g><path d="M 8.457031 -4.871094 C 8.394531 -4.894531 8.332031 -4.914062 8.269531 -4.914062 C 8.105469 -4.914062 7.964844 -4.8125 7.882812 -4.648438 C 6.714844 -2.007812 5.9375 -0.859375 4.933594 -0.859375 C 4.484375 -0.859375 4.320312 -1.207031 4.320312 -1.71875 C 4.339844 -2.066406 4.382812 -2.414062 4.503906 -2.847656 C 4.625 -3.359375 5.609375 -6.285156 5.875 -6.960938 C 5.957031 -7.207031 5.855469 -7.472656 5.628906 -7.554688 C 5.40625 -7.636719 5.140625 -7.71875 4.851562 -7.800781 C 4.257812 -8.003906 3.5625 -8.230469 2.988281 -8.515625 C 3.234375 -9.316406 3.316406 -9.5 3.316406 -9.828125 C 3.316406 -10.644531 2.867188 -11.179688 2.128906 -11.179688 C 1.472656 -11.179688 0.878906 -10.6875 0.878906 -9.847656 C 0.878906 -9.089844 1.308594 -8.558594 1.925781 -8.128906 L 1.679688 -7.511719 L 0.0390625 -3.953125 C 0.0195312 -3.890625 0 -3.828125 0 -3.765625 C 0 -3.601562 0.101562 -3.460938 0.246094 -3.378906 C 0.308594 -3.359375 0.367188 -3.335938 0.449219 -3.335938 C 0.59375 -3.335938 0.738281 -3.417969 0.820312 -3.582031 C 2.457031 -7.164062 2.601562 -7.453125 2.683594 -7.699219 C 3.132812 -7.472656 3.359375 -7.390625 4.914062 -6.878906 C 4.730469 -6.429688 3.828125 -3.707031 3.664062 -3.050781 C 3.519531 -2.539062 3.460938 -2.128906 3.460938 -1.71875 C 3.460938 -0.714844 3.953125 0 4.914062 0 L 4.933594 0 C 6.328125 0 7.351562 -1.25 8.679688 -4.300781 C 8.699219 -4.359375 8.722656 -4.421875 8.722656 -4.484375 C 8.722656 -4.648438 8.621094 -4.789062 8.457031 -4.871094 Z M 2.457031 -9.847656 C 2.457031 -9.644531 2.332031 -9.273438 2.230469 -8.988281 C 1.925781 -9.234375 1.738281 -9.601562 1.738281 -9.929688 C 1.738281 -10.15625 1.863281 -10.320312 2.128906 -10.320312 C 2.292969 -10.320312 2.457031 -10.195312 2.457031 -9.847656 Z M 2.457031 -9.847656 "/></g></g></g><g fill="#000000" fill-opacity="1"><g transform="translate(60.510686, 53.083923)"><g><path d="M 3.335938 -10.726562 C 3.726562 -10.726562 4.035156 -11.035156 4.035156 -11.425781 C 4.035156 -11.8125 3.726562 -12.121094 3.335938 -12.121094 C 2.949219 -12.121094 2.621094 -11.8125 2.621094 -11.425781 C 2.621094 -11.035156 2.949219 -10.726562 3.335938 -10.726562 Z M 4.6875 -4.871094 C 4.625 -4.894531 4.585938 -4.914062 4.523438 -4.914062 C 4.359375 -4.914062 4.195312 -4.8125 4.113281 -4.648438 C 3.359375 -2.96875 2.414062 -0.859375 1.148438 -0.859375 C 0.714844 -0.859375 0.53125 -1.125 0.53125 -1.71875 C 0.53125 -2.601562 0.902344 -3.542969 2.886719 -9.132812 C 3.007812 -9.480469 2.742188 -9.683594 2.476562 -9.683594 C 2.3125 -9.683594 2.148438 -9.582031 2.089844 -9.398438 C 1.1875 -7.0625 -0.265625 -3.316406 -0.328125 -1.71875 C -0.367188 -0.777344 0.164062 0 1.148438 0 C 2.867188 0 3.929688 -2.089844 4.914062 -4.300781 C 4.933594 -4.359375 4.953125 -4.421875 4.953125 -4.484375 C 4.953125 -4.648438 4.851562 -4.8125 4.6875 -4.871094 Z M 4.6875 -4.871094 "/></g></g></g><g fill="#000000" fill-opacity="1"><g transform="translate(64.276019, 53.083923)"><g><path d="M 7.984375 -4.871094 C 7.921875 -4.894531 7.863281 -4.914062 7.800781 -4.914062 C 7.636719 -4.914062 7.453125 -4.832031 7.410156 -4.648438 C 7.082031 -3.480469 6.140625 -2.171875 5.058594 -2.171875 C 4.667969 -2.171875 4.339844 -2.3125 4.074219 -2.601562 C 4.464844 -3.234375 6.734375 -7.675781 7.433594 -9.109375 C 7.453125 -9.171875 7.472656 -9.234375 7.472656 -9.292969 C 7.472656 -9.457031 7.371094 -9.621094 7.226562 -9.703125 C 7.164062 -9.726562 7.105469 -9.746094 7.042969 -9.746094 C 6.878906 -9.746094 6.714844 -9.644531 6.632812 -9.5 C 6.328125 -8.824219 4.011719 -4.238281 3.789062 -3.871094 C 3.808594 -4.011719 3.847656 -4.195312 3.890625 -4.359375 C 3.953125 -4.648438 3.746094 -4.914062 3.460938 -4.914062 C 3.277344 -4.914062 3.113281 -4.789062 3.050781 -4.585938 C 2.886719 -4.011719 2.847656 -3.253906 3.070312 -2.640625 C 2.601562 -1.820312 1.84375 -0.859375 1.125 -0.859375 C 0.675781 -0.859375 0.511719 -1.125 0.511719 -1.71875 C 0.511719 -2.496094 1.125 -4.238281 2.90625 -9.152344 C 3.007812 -9.417969 2.824219 -9.726562 2.496094 -9.726562 C 2.3125 -9.726562 2.148438 -9.621094 2.089844 -9.457031 C 0.65625 -5.382812 -0.347656 -3.03125 -0.347656 -1.71875 C -0.347656 -0.714844 0.101562 0 1.125 0 C 2.007812 0 2.601562 -0.511719 3.601562 -1.863281 C 3.972656 -1.496094 4.484375 -1.308594 5.035156 -1.308594 C 6.46875 -1.308594 7.757812 -2.785156 8.210938 -4.320312 C 8.230469 -4.382812 8.25 -4.421875 8.25 -4.484375 C 8.25 -4.648438 8.148438 -4.8125 7.984375 -4.871094 Z M 7.984375 -4.871094 "/></g></g></g><g fill="#000000" fill-opacity="1"><g transform="translate(71.336023, 53.083923)"><g><path d="M 9.171875 -4.871094 C 9.109375 -4.894531 9.050781 -4.914062 8.988281 -4.914062 C 8.824219 -4.914062 8.679688 -4.8125 8.597656 -4.648438 L 8.578125 -4.585938 C 7.902344 -3.070312 6.917969 -0.859375 5.652344 -0.859375 C 5.21875 -0.859375 5.035156 -1.105469 5.035156 -1.71875 C 5.035156 -2.621094 5.710938 -4.402344 6.449219 -6.46875 L 7.472656 -9.214844 C 7.574219 -9.457031 7.410156 -9.785156 7.082031 -9.785156 C 6.898438 -9.785156 6.734375 -9.683594 6.675781 -9.519531 C 6.570312 -9.253906 6.449219 -8.945312 6.328125 -8.597656 C 5.957031 -9.335938 5.324219 -9.683594 4.464844 -9.683594 C 2.007812 -9.683594 -0.0625 -4.894531 -0.0625 -2.210938 C -0.0625 -0.984375 0.472656 0 1.617188 0 C 2.496094 0 3.359375 -0.574219 4.175781 -1.71875 C 4.175781 -0.714844 4.667969 0 5.652344 0 C 7.492188 0 8.597656 -2.519531 9.375 -4.238281 L 9.398438 -4.300781 C 9.417969 -4.359375 9.4375 -4.421875 9.4375 -4.484375 C 9.4375 -4.648438 9.335938 -4.789062 9.171875 -4.871094 Z M 1.597656 -0.859375 C 0.984375 -0.859375 0.796875 -1.453125 0.796875 -2.355469 C 0.839844 -4.382812 2.578125 -8.78125 4.464844 -8.824219 C 5.199219 -8.824219 5.734375 -8.269531 5.773438 -7.328125 L 5.28125 -6.019531 C 4.464844 -3.929688 3.253906 -0.859375 1.597656 -0.859375 Z M 1.597656 -0.859375 "/></g></g></g><g fill="#000000" fill-opacity="1"><g transform="translate(79.582923, 53.083923)"><g><path d="M 9.726562 -4.871094 C 9.664062 -4.894531 9.601562 -4.914062 9.5625 -4.914062 C 9.398438 -4.914062 9.234375 -4.8125 9.152344 -4.667969 C 8.1875 -2.558594 7.207031 -0.859375 5.734375 -0.859375 C 5.261719 -0.859375 5.078125 -1.226562 5.078125 -1.71875 C 5.078125 -2.253906 5.445312 -3.460938 5.753906 -4.402344 C 5.9375 -4.976562 8.375 -11.9375 8.578125 -12.53125 C 8.660156 -12.753906 8.515625 -13.101562 8.167969 -13.101562 C 8.003906 -13.101562 7.839844 -13 7.78125 -12.835938 L 6.695312 -9.703125 L 6.304688 -8.640625 C 5.976562 -9.273438 5.382812 -9.683594 4.464844 -9.683594 C 1.984375 -9.683594 -0.0625 -4.894531 -0.0625 -2.210938 C -0.0625 -0.984375 0.472656 0 1.617188 0 C 2.660156 0 3.5 -0.777344 4.21875 -1.800781 C 4.21875 -0.65625 4.769531 0 5.734375 0 C 7.617188 0 8.761719 -1.738281 9.949219 -4.300781 C 9.96875 -4.359375 9.992188 -4.421875 9.992188 -4.484375 C 9.992188 -4.648438 9.886719 -4.789062 9.726562 -4.871094 Z M 1.597656 -0.859375 C 0.984375 -0.859375 0.796875 -1.453125 0.796875 -2.355469 C 0.839844 -4.382812 2.578125 -8.761719 4.464844 -8.824219 C 5.261719 -8.824219 5.734375 -8.269531 5.773438 -7.328125 C 5.773438 -7.289062 5.773438 -7.246094 5.753906 -7.1875 C 5.609375 -6.859375 5.464844 -6.449219 5.28125 -6.019531 C 4.464844 -3.929688 3.253906 -0.859375 1.597656 -0.859375 Z M 1.597656 -0.859375 "/></g></g></g><g fill="#000000" fill-opacity="1"><g transform="translate(88.382336, 53.083923)"><g><path d="M 9.152344 -4.320312 C 9.273438 -4.605469 9.050781 -4.914062 8.742188 -4.914062 C 8.578125 -4.914062 8.414062 -4.8125 8.351562 -4.648438 C 7.636719 -2.949219 6.917969 -2.171875 6.058594 -2.171875 C 5.589844 -2.171875 5.242188 -2.3125 5.015625 -2.601562 C 5.957031 -4.195312 6.613281 -6.203125 6.613281 -7.492188 C 6.613281 -8.722656 5.917969 -9.644531 4.566406 -9.683594 C 3.542969 -9.683594 2.539062 -8.96875 1.679688 -7.535156 C 1.003906 -6.429688 -0.0625 -4.441406 -0.0625 -2.066406 C -0.0625 -0.878906 0.390625 0 1.71875 0 C 2.703125 0 3.746094 -0.839844 4.503906 -1.863281 C 4.953125 -1.496094 5.488281 -1.308594 6.058594 -1.308594 C 7.289062 -1.308594 8.25 -2.253906 9.152344 -4.320312 Z M 4.402344 -4.914062 C 4.195312 -4.914062 4.011719 -4.789062 3.972656 -4.585938 C 3.828125 -4.074219 3.789062 -3.171875 4.011719 -2.640625 C 3.335938 -1.679688 2.476562 -0.859375 1.71875 -0.859375 C 1.066406 -0.859375 0.820312 -1.371094 0.820312 -2.109375 C 0.820312 -4.21875 1.902344 -6.203125 2.4375 -7.082031 C 3.03125 -8.105469 3.765625 -8.824219 4.546875 -8.824219 C 5.242188 -8.824219 5.753906 -8.375 5.753906 -7.511719 C 5.753906 -6.570312 5.363281 -5.160156 4.730469 -3.890625 C 4.75 -4.035156 4.75 -4.195312 4.8125 -4.359375 C 4.894531 -4.648438 4.6875 -4.914062 4.402344 -4.914062 Z M 4.402344 -4.914062 "/></g></g></g><g fill="#000000" fill-opacity="1"><g transform="translate(96.383667, 53.083923)"><g><path d="M 6.757812 -3.625 C 6.734375 -5.015625 6.183594 -5.734375 5.117188 -7.699219 C 5.753906 -8.414062 6.265625 -9.316406 6.265625 -10.132812 C 6.222656 -10.726562 5.875 -11.199219 5.28125 -11.199219 C 4.441406 -11.199219 3.789062 -10.296875 3.789062 -9.234375 C 3.789062 -8.761719 3.910156 -8.3125 4.09375 -7.882812 C 3.847656 -7.636719 3.644531 -7.410156 3.398438 -7.125 C 3.335938 -7.042969 3.296875 -6.941406 3.296875 -6.859375 C 3.296875 -6.734375 3.335938 -6.59375 3.441406 -6.511719 C 3.519531 -6.429688 3.644531 -6.40625 3.746094 -6.40625 C 3.871094 -6.40625 3.992188 -6.46875 4.074219 -6.570312 C 4.195312 -6.734375 4.339844 -6.898438 4.484375 -7.042969 C 5.570312 -5.140625 5.875 -4.546875 5.894531 -3.644531 C 5.855469 -1.945312 4.667969 -0.859375 3.007812 -0.859375 C 1.820312 -0.859375 0.777344 -1.738281 0.777344 -2.988281 C 0.859375 -4.238281 1.597656 -5.179688 2.722656 -5.179688 C 3.253906 -5.179688 3.765625 -4.667969 3.808594 -3.972656 C 3.808594 -3.726562 3.992188 -3.542969 4.238281 -3.542969 C 4.484375 -3.542969 4.667969 -3.726562 4.667969 -3.972656 C 4.625 -5.097656 3.765625 -6.039062 2.703125 -6.039062 C 1.066406 -6.039062 0.0390625 -4.832031 -0.0820312 -2.988281 C -0.0820312 -1.332031 1.308594 0 3.007812 0 C 5.078125 0 6.714844 -1.414062 6.757812 -3.625 Z M 4.75 -8.597656 C 4.6875 -8.824219 4.648438 -9.027344 4.648438 -9.253906 C 4.648438 -9.539062 4.707031 -9.910156 4.953125 -10.15625 C 5.160156 -10.359375 5.382812 -10.421875 5.382812 -10.132812 C 5.382812 -9.683594 5.078125 -9.050781 4.75 -8.597656 Z M 4.75 -8.597656 "/></g></g></g></svg>